{"glyphs":{"0":{"ha":919,"x_min":72,"x_max":849,"o":"m 460 -8 q 260 51 347 -8 q 122 220 172 110 q 72 486 72 331 q 122 752 72 642 q 260 922 172 863 q 460 981 347 981 q 660 922 572 981 q 798 752 747 863 q 849 486 849 642 q 798 220 849 331 q 660 51 747 110 q 460 -8 572 -8 m 460 83 q 610 130 546 83 q 710 266 674 176 q 746 486 746 356 q 710 706 746 617 q 610 842 674 796 q 460 889 546 889 q 311 842 376 889 q 210 706 246 796 q 174 486 174 617 q 210 266 174 356 q 311 130 246 176 q 460 83 376 83 z "},"1":{"ha":501,"x_min":13,"x_max":342,"o":"m 242 0 l 242 931 l 286 883 l 13 883 l 13 972 l 342 972 l 342 0 l 242 0 z "},"2":{"ha":789,"x_min":25,"x_max":736,"o":"m 54 0 l 54 71 l 458 467 q 542 562 514 521 q 579 639 569 603 q 589 707 589 675 q 531 840 589 792 q 361 889 474 889 q 209 863 275 889 q 96 781 143 836 l 25 842 q 171 944 82 908 q 369 981 260 981 q 540 949 468 981 q 652 858 613 918 q 692 718 692 799 q 678 625 692 671 q 631 528 665 579 q 532 414 597 478 l 161 50 l 133 89 l 736 89 l 736 0 l 54 0 z "},"3":{"ha":783,"x_min":13,"x_max":715,"o":"m 363 -8 q 163 26 257 -8 q 13 117 69 60 l 61 196 q 188 115 108 147 q 363 83 268 83 q 548 136 483 83 q 613 278 613 189 q 549 419 613 367 q 350 472 486 472 l 281 472 l 281 546 l 581 922 l 594 883 l 53 883 l 53 972 l 678 972 l 678 901 l 378 525 l 329 557 l 367 557 q 628 479 542 557 q 715 279 715 401 q 676 132 715 197 q 559 29 638 67 q 363 -8 481 -8 z "},"4":{"ha":918,"x_min":56,"x_max":899,"o":"m 56 256 l 56 328 l 571 972 l 682 972 l 171 328 l 117 344 l 899 344 l 899 256 l 56 256 m 604 0 l 604 256 l 607 344 l 607 569 l 704 569 l 704 0 l 604 0 z "},"5":{"ha":786,"x_min":31,"x_max":732,"o":"m 379 -8 q 181 26 275 -8 q 31 117 86 60 l 79 196 q 205 115 125 147 q 378 83 285 83 q 566 138 501 83 q 631 282 631 193 q 601 390 631 344 q 500 460 571 435 q 306 485 429 485 l 99 485 l 149 972 l 681 972 l 681 883 l 189 883 l 240 932 l 197 524 l 146 574 l 328 574 q 564 538 475 574 q 692 437 653 501 q 732 286 732 372 q 693 137 732 204 q 576 31 654 69 q 379 -8 499 -8 z "},"6":{"ha":846,"x_min":72,"x_max":803,"o":"m 471 -8 q 253 49 342 -8 q 118 216 164 107 q 72 478 72 325 q 128 755 72 643 q 285 924 185 867 q 517 981 385 981 q 642 968 582 981 q 747 928 701 956 l 707 847 q 621 883 669 872 q 518 893 572 893 q 267 793 361 893 q 174 494 174 693 q 177 419 174 464 q 193 329 181 374 l 158 356 q 218 478 174 428 q 329 556 263 529 q 475 582 396 582 q 646 546 572 582 q 761 444 719 510 q 803 290 803 379 q 760 133 803 200 q 641 28 717 65 q 471 -8 565 -8 m 467 76 q 590 102 536 76 q 674 176 643 128 q 704 288 704 224 q 638 440 704 383 q 460 497 572 497 q 329 469 385 497 q 242 394 274 442 q 210 285 210 346 q 239 184 210 232 q 326 106 268 136 q 467 76 383 76 z "},"7":{"ha":818,"x_min":44,"x_max":758,"o":"m 243 0 l 663 928 l 693 883 l 92 883 l 143 932 l 143 701 l 44 701 l 44 972 l 758 972 l 758 901 l 351 0 l 243 0 z "},"8":{"ha":886,"x_min":67,"x_max":819,"o":"m 442 -8 q 241 25 325 -8 q 112 122 157 58 q 67 271 67 185 q 110 413 67 354 q 238 504 154 472 q 442 536 322 536 q 644 504 560 536 q 774 413 729 472 q 819 271 819 354 q 774 122 819 185 q 643 25 728 58 q 442 -8 558 -8 m 442 76 q 644 129 571 76 q 717 272 717 182 q 644 415 717 363 q 442 467 571 467 q 240 415 313 467 q 168 272 168 363 q 240 129 168 182 q 442 76 313 76 m 442 479 q 258 508 333 479 q 142 592 182 538 q 101 724 101 647 q 144 862 101 804 q 263 950 186 919 q 442 981 339 981 q 622 950 544 981 q 742 862 699 919 q 785 724 785 804 q 744 592 785 647 q 627 508 704 538 q 442 479 550 479 m 442 546 q 619 593 556 546 q 683 719 683 640 q 617 849 683 803 q 442 896 551 896 q 267 849 332 896 q 201 721 201 803 q 265 593 201 640 q 442 546 328 546 z "},"9":{"ha":846,"x_min":43,"x_max":774,"o":"m 375 981 q 593 923 504 981 q 728 757 682 865 q 774 494 774 649 q 717 218 774 331 q 561 49 661 106 q 329 -8 461 -8 q 205 4 264 -8 q 99 44 146 17 l 139 125 q 226 90 176 100 q 328 79 275 79 q 578 179 485 79 q 672 478 672 279 q 669 554 672 510 q 653 643 665 599 l 688 617 q 628 494 674 544 q 517 417 583 443 q 371 390 451 390 q 201 426 275 390 q 85 528 126 463 q 43 682 43 593 q 86 840 43 774 q 205 944 129 907 q 375 981 281 981 m 379 896 q 256 870 310 896 q 172 797 203 844 q 142 685 142 750 q 208 532 142 589 q 386 475 274 475 q 517 503 461 475 q 605 579 574 531 q 636 688 636 628 q 607 789 636 742 q 521 866 578 836 q 379 896 464 896 z "},"A":{"ha":996,"x_min":3,"x_max":993,"o":"m 3 0 l 447 972 l 549 972 l 993 0 l 885 0 l 476 913 l 518 913 l 110 0 l 3 0 m 178 260 l 208 343 l 774 343 l 804 260 l 178 260 z "},"Á":{"ha":996,"x_min":3,"x_max":993,"o":"m 3 0 l 447 972 l 549 972 l 993 0 l 885 0 l 476 913 l 518 913 l 110 0 l 3 0 m 178 260 l 208 343 l 774 343 l 804 260 l 178 260 z "},"Ă":{"ha":996,"x_min":3,"x_max":993,"o":"m 3 0 l 447 972 l 549 972 l 993 0 l 885 0 l 476 913 l 518 913 l 110 0 l 3 0 m 178 260 l 208 343 l 774 343 l 804 260 l 178 260 z "},"Ắ":{"ha":996,"x_min":3,"x_max":993,"o":"m 3 0 l 447 972 l 549 972 l 993 0 l 885 0 l 476 913 l 518 913 l 110 0 l 3 0 m 178 260 l 208 343 l 774 343 l 804 260 l 178 260 z "},"Ặ":{"ha":996,"x_min":3,"x_max":993,"o":"m 3 0 l 447 972 l 549 972 l 993 0 l 885 0 l 476 913 l 518 913 l 110 0 l 3 0 m 178 260 l 208 343 l 774 343 l 804 260 l 178 260 m 499 -264 q 457 -247 475 -264 q 439 -204 439 -231 q 457 -161 439 -178 q 499 -144 475 -144 q 541 -161 524 -144 q 558 -204 558 -178 q 541 -247 558 -231 q 499 -264 524 -264 z "},"Ằ":{"ha":996,"x_min":3,"x_max":993,"o":"m 3 0 l 447 972 l 549 972 l 993 0 l 885 0 l 476 913 l 518 913 l 110 0 l 3 0 m 178 260 l 208 343 l 774 343 l 804 260 l 178 260 z "},"Ẳ":{"ha":996,"x_min":3,"x_max":993,"o":"m 3 0 l 447 972 l 549 972 l 993 0 l 885 0 l 476 913 l 518 913 l 110 0 l 3 0 m 178 260 l 208 343 l 774 343 l 804 260 l 178 260 z "},"Ẵ":{"ha":996,"x_min":3,"x_max":993,"o":"m 3 0 l 447 972 l 549 972 l 993 0 l 885 0 l 476 913 l 518 913 l 110 0 l 3 0 m 178 260 l 208 343 l 774 343 l 804 260 l 178 260 z "},"Ǎ":{"ha":996,"x_min":3,"x_max":993,"o":"m 3 0 l 447 972 l 549 972 l 993 0 l 885 0 l 476 913 l 518 913 l 110 0 l 3 0 m 178 260 l 208 343 l 774 343 l 804 260 l 178 260 z "},"Â":{"ha":996,"x_min":3,"x_max":993,"o":"m 3 0 l 447 972 l 549 972 l 993 0 l 885 0 l 476 913 l 518 913 l 110 0 l 3 0 m 178 260 l 208 343 l 774 343 l 804 260 l 178 260 z "},"Ấ":{"ha":996,"x_min":3,"x_max":993,"o":"m 3 0 l 447 972 l 549 972 l 993 0 l 885 0 l 476 913 l 518 913 l 110 0 l 3 0 m 178 260 l 208 343 l 774 343 l 804 260 l 178 260 z "},"Ậ":{"ha":996,"x_min":3,"x_max":993,"o":"m 3 0 l 447 972 l 549 972 l 993 0 l 885 0 l 476 913 l 518 913 l 110 0 l 3 0 m 178 260 l 208 343 l 774 343 l 804 260 l 178 260 m 499 -264 q 457 -247 475 -264 q 439 -204 439 -231 q 457 -161 439 -178 q 499 -144 475 -144 q 541 -161 524 -144 q 558 -204 558 -178 q 541 -247 558 -231 q 499 -264 524 -264 z "},"Ầ":{"ha":996,"x_min":3,"x_max":993,"o":"m 3 0 l 447 972 l 549 972 l 993 0 l 885 0 l 476 913 l 518 913 l 110 0 l 3 0 m 178 260 l 208 343 l 774 343 l 804 260 l 178 260 z "},"Ẩ":{"ha":996,"x_min":3,"x_max":993,"o":"m 3 0 l 447 972 l 549 972 l 993 0 l 885 0 l 476 913 l 518 913 l 110 0 l 3 0 m 178 260 l 208 343 l 774 343 l 804 260 l 178 260 z "},"Ẫ":{"ha":996,"x_min":3,"x_max":993,"o":"m 3 0 l 447 972 l 549 972 l 993 0 l 885 0 l 476 913 l 518 913 l 110 0 l 3 0 m 178 260 l 208 343 l 774 343 l 804 260 l 178 260 z "},"Ȁ":{"ha":996,"x_min":3,"x_max":993,"o":"m 3 0 l 447 972 l 549 972 l 993 0 l 885 0 l 476 913 l 518 913 l 110 0 l 3 0 m 178 260 l 208 343 l 774 343 l 804 260 l 178 260 z "},"Ä":{"ha":996,"x_min":3,"x_max":993,"o":"m 3 0 l 447 972 l 549 972 l 993 0 l 885 0 l 476 913 l 518 913 l 110 0 l 3 0 m 178 260 l 208 343 l 774 343 l 804 260 l 178 260 z "},"Ạ":{"ha":996,"x_min":3,"x_max":993,"o":"m 3 0 l 447 972 l 549 972 l 993 0 l 885 0 l 476 913 l 518 913 l 110 0 l 3 0 m 178 260 l 208 343 l 774 343 l 804 260 l 178 260 m 499 -264 q 457 -247 475 -264 q 439 -204 439 -231 q 457 -161 439 -178 q 499 -144 475 -144 q 541 -161 524 -144 q 558 -204 558 -178 q 541 -247 558 -231 q 499 -264 524 -264 z "},"À":{"ha":996,"x_min":3,"x_max":993,"o":"m 3 0 l 447 972 l 549 972 l 993 0 l 885 0 l 476 913 l 518 913 l 110 0 l 3 0 m 178 260 l 208 343 l 774 343 l 804 260 l 178 260 z "},"Ả":{"ha":996,"x_min":3,"x_max":993,"o":"m 3 0 l 447 972 l 549 972 l 993 0 l 885 0 l 476 913 l 518 913 l 110 0 l 3 0 m 178 260 l 208 343 l 774 343 l 804 260 l 178 260 z "},"Ȃ":{"ha":996,"x_min":3,"x_max":993,"o":"m 3 0 l 447 972 l 549 972 l 993 0 l 885 0 l 476 913 l 518 913 l 110 0 l 3 0 m 178 260 l 208 343 l 774 343 l 804 260 l 178 260 z "},"Ā":{"ha":996,"x_min":3,"x_max":993,"o":"m 3 0 l 447 972 l 549 972 l 993 0 l 885 0 l 476 913 l 518 913 l 110 0 l 3 0 m 178 260 l 208 343 l 774 343 l 804 260 l 178 260 z "},"Ą":{"ha":996,"x_min":3,"x_max":1022,"o":"m 3 0 l 447 972 l 549 972 l 993 0 l 885 0 l 476 913 l 518 913 l 110 0 l 3 0 m 178 260 l 208 343 l 774 343 l 804 260 l 178 260 m 904 -306 q 793 -269 835 -306 q 751 -174 751 -233 q 769 -103 751 -140 q 829 -31 786 -67 q 947 38 872 6 l 993 0 q 890 -58 926 -29 q 838 -113 853 -86 q 824 -167 824 -140 q 849 -225 824 -206 q 914 -244 875 -244 q 960 -237 938 -244 q 1000 -218 983 -231 l 1022 -272 q 967 -297 997 -287 q 904 -306 938 -306 z "},"Å":{"ha":996,"x_min":3,"x_max":993,"o":"m 3 0 l 447 972 l 549 972 l 993 0 l 885 0 l 476 913 l 518 913 l 110 0 l 3 0 m 178 260 l 208 343 l 774 343 l 804 260 l 178 260 m 497 1069 q 423 1089 456 1069 q 372 1140 390 1108 q 353 1211 353 1172 q 372 1283 353 1250 q 424 1337 392 1317 q 497 1357 457 1357 q 572 1337 539 1357 q 624 1283 604 1317 q 643 1211 643 1250 q 624 1140 643 1172 q 572 1089 604 1108 q 497 1069 539 1069 m 497 1118 q 565 1145 539 1118 q 592 1211 592 1172 q 565 1280 592 1251 q 497 1308 539 1308 q 431 1281 457 1308 q 404 1211 404 1253 q 430 1144 404 1171 q 497 1118 456 1118 z "},"Ǻ":{"ha":996,"x_min":3,"x_max":993,"o":"m 3 0 l 447 972 l 549 972 l 993 0 l 885 0 l 476 913 l 518 913 l 110 0 l 3 0 m 178 260 l 208 343 l 774 343 l 804 260 l 178 260 m 497 1069 q 423 1089 456 1069 q 372 1140 390 1108 q 353 1211 353 1172 q 372 1283 353 1250 q 424 1337 392 1317 q 497 1357 457 1357 q 572 1337 539 1357 q 624 1283 604 1317 q 643 1211 643 1250 q 624 1140 643 1172 q 572 1089 604 1108 q 497 1069 539 1069 m 497 1118 q 565 1145 539 1118 q 592 1211 592 1172 q 565 1280 592 1251 q 497 1308 539 1308 q 431 1281 457 1308 q 404 1211 404 1253 q 430 1144 404 1171 q 497 1118 456 1118 m 606 1289 l 547 1310 l 688 1449 l 743 1404 l 606 1289 z "},"Ã":{"ha":996,"x_min":3,"x_max":993,"o":"m 3 0 l 447 972 l 549 972 l 993 0 l 885 0 l 476 913 l 518 913 l 110 0 l 3 0 m 178 260 l 208 343 l 774 343 l 804 260 l 178 260 z "},"Æ":{"ha":1435,"x_min":3,"x_max":1351,"o":"m 3 0 l 596 972 l 697 972 l 697 883 l 606 883 l 669 925 l 110 0 l 3 0 m 235 260 l 246 343 l 697 343 l 697 260 l 235 260 m 756 538 l 1271 538 l 1271 450 l 756 450 l 756 538 m 767 89 l 1351 89 l 1351 0 l 664 0 l 664 972 l 1331 972 l 1331 883 l 767 883 l 767 89 z "},"Ǽ":{"ha":1435,"x_min":3,"x_max":1351,"o":"m 3 0 l 596 972 l 697 972 l 697 883 l 606 883 l 669 925 l 110 0 l 3 0 m 235 260 l 246 343 l 697 343 l 697 260 l 235 260 m 756 538 l 1271 538 l 1271 450 l 756 450 l 756 538 m 767 89 l 1351 89 l 1351 0 l 664 0 l 664 972 l 1331 972 l 1331 883 l 767 883 l 767 89 z "},"B":{"ha":1047,"x_min":158,"x_max":971,"o":"m 158 0 l 158 972 l 578 972 q 830 907 740 972 q 919 722 919 842 q 883 589 919 643 q 783 507 846 535 q 644 479 719 479 l 668 513 q 828 484 761 513 q 933 399 896 456 q 971 260 971 343 q 880 68 971 136 q 606 0 789 0 l 158 0 m 261 85 l 604 85 q 800 128 732 85 q 868 268 868 172 q 800 406 868 363 q 604 450 732 450 l 250 450 l 250 535 l 571 535 q 752 579 688 535 q 817 711 817 624 q 752 844 817 800 q 571 888 688 888 l 261 888 l 261 85 z "},"C":{"ha":999,"x_min":72,"x_max":938,"o":"m 581 -8 q 378 28 471 -8 q 217 132 285 65 q 110 289 149 199 q 72 486 72 379 q 110 683 72 593 q 217 840 149 774 q 379 944 286 907 q 582 981 472 981 q 781 945 688 981 q 938 839 874 910 l 872 774 q 740 862 813 835 q 585 889 668 889 q 422 859 497 889 q 292 774 347 829 q 205 647 236 719 q 174 486 174 574 q 205 326 174 399 q 292 198 236 253 q 422 113 347 143 q 585 83 497 83 q 740 111 668 83 q 872 200 813 139 l 938 135 q 781 28 874 64 q 581 -8 688 -8 z "},"Ć":{"ha":999,"x_min":72,"x_max":938,"o":"m 581 -8 q 378 28 471 -8 q 217 132 285 65 q 110 289 149 199 q 72 486 72 379 q 110 683 72 593 q 217 840 149 774 q 379 944 286 907 q 582 981 472 981 q 781 945 688 981 q 938 839 874 910 l 872 774 q 740 862 813 835 q 585 889 668 889 q 422 859 497 889 q 292 774 347 829 q 205 647 236 719 q 174 486 174 574 q 205 326 174 399 q 292 198 236 253 q 422 113 347 143 q 585 83 497 83 q 740 111 668 83 q 872 200 813 139 l 938 135 q 781 28 874 64 q 581 -8 688 -8 z "},"Č":{"ha":999,"x_min":72,"x_max":938,"o":"m 581 -8 q 378 28 471 -8 q 217 132 285 65 q 110 289 149 199 q 72 486 72 379 q 110 683 72 593 q 217 840 149 774 q 379 944 286 907 q 582 981 472 981 q 781 945 688 981 q 938 839 874 910 l 872 774 q 740 862 813 835 q 585 889 668 889 q 422 859 497 889 q 292 774 347 829 q 205 647 236 719 q 174 486 174 574 q 205 326 174 399 q 292 198 236 253 q 422 113 347 143 q 585 83 497 83 q 740 111 668 83 q 872 200 813 139 l 938 135 q 781 28 874 64 q 581 -8 688 -8 z "},"Ç":{"ha":999,"x_min":72,"x_max":938,"o":"m 581 -8 q 378 28 471 -8 q 217 132 285 65 q 110 289 149 199 q 72 486 72 379 q 110 683 72 593 q 217 840 149 774 q 379 944 286 907 q 582 981 472 981 q 781 945 688 981 q 938 839 874 910 l 872 774 q 740 862 813 835 q 585 889 668 889 q 422 859 497 889 q 292 774 347 829 q 205 647 236 719 q 174 486 174 574 q 205 326 174 399 q 292 198 236 253 q 422 113 347 143 q 585 83 497 83 q 740 111 668 83 q 872 200 813 139 l 938 135 q 781 28 874 64 q 581 -8 688 -8 m 531 -306 q 467 -297 496 -306 q 414 -274 439 -289 l 438 -221 q 481 -240 458 -233 q 529 -247 504 -247 q 593 -230 571 -247 q 615 -182 615 -212 q 594 -136 615 -154 q 529 -118 572 -118 l 497 -118 l 531 8 l 590 8 l 569 -72 q 657 -108 626 -76 q 688 -185 688 -139 q 644 -273 688 -240 q 531 -306 600 -306 z "},"Ḉ":{"ha":999,"x_min":72,"x_max":938,"o":"m 581 -8 q 378 28 471 -8 q 217 132 285 65 q 110 289 149 199 q 72 486 72 379 q 110 683 72 593 q 217 840 149 774 q 379 944 286 907 q 582 981 472 981 q 781 945 688 981 q 938 839 874 910 l 872 774 q 740 862 813 835 q 585 889 668 889 q 422 859 497 889 q 292 774 347 829 q 205 647 236 719 q 174 486 174 574 q 205 326 174 399 q 292 198 236 253 q 422 113 347 143 q 585 83 497 83 q 740 111 668 83 q 872 200 813 139 l 938 135 q 781 28 874 64 q 581 -8 688 -8 m 531 -306 q 467 -297 496 -306 q 414 -274 439 -289 l 438 -221 q 481 -240 458 -233 q 529 -247 504 -247 q 593 -230 571 -247 q 615 -182 615 -212 q 594 -136 615 -154 q 529 -118 572 -118 l 497 -118 l 531 8 l 590 8 l 569 -72 q 657 -108 626 -76 q 688 -185 688 -139 q 644 -273 688 -240 q 531 -306 600 -306 z "},"Ĉ":{"ha":999,"x_min":72,"x_max":938,"o":"m 581 -8 q 378 28 471 -8 q 217 132 285 65 q 110 289 149 199 q 72 486 72 379 q 110 683 72 593 q 217 840 149 774 q 379 944 286 907 q 582 981 472 981 q 781 945 688 981 q 938 839 874 910 l 872 774 q 740 862 813 835 q 585 889 668 889 q 422 859 497 889 q 292 774 347 829 q 205 647 236 719 q 174 486 174 574 q 205 326 174 399 q 292 198 236 253 q 422 113 347 143 q 585 83 497 83 q 740 111 668 83 q 872 200 813 139 l 938 135 q 781 28 874 64 q 581 -8 688 -8 z "},"Ċ":{"ha":999,"x_min":72,"x_max":938,"o":"m 581 -8 q 378 28 471 -8 q 217 132 285 65 q 110 289 149 199 q 72 486 72 379 q 110 683 72 593 q 217 840 149 774 q 379 944 286 907 q 582 981 472 981 q 781 945 688 981 q 938 839 874 910 l 872 774 q 740 862 813 835 q 585 889 668 889 q 422 859 497 889 q 292 774 347 829 q 205 647 236 719 q 174 486 174 574 q 205 326 174 399 q 292 198 236 253 q 422 113 347 143 q 585 83 497 83 q 740 111 668 83 q 872 200 813 139 l 938 135 q 781 28 874 64 q 581 -8 688 -8 z "},"D":{"ha":1147,"x_min":158,"x_max":1075,"o":"m 158 0 l 158 972 l 554 972 q 827 910 710 972 q 1010 739 944 849 q 1075 486 1075 629 q 1010 233 1075 343 q 827 62 944 124 q 554 0 710 0 l 158 0 m 261 89 l 549 89 q 773 140 678 89 q 921 280 868 190 q 974 486 974 369 q 921 693 974 604 q 773 833 868 782 q 549 883 678 883 l 261 883 l 261 89 z "},"Ǆ":{"ha":2022,"x_min":158,"x_max":1968,"o":"m 158 0 l 158 972 l 554 972 q 827 910 710 972 q 1010 739 944 849 q 1075 486 1075 629 q 1010 233 1075 343 q 827 62 944 124 q 554 0 710 0 l 158 0 m 261 89 l 549 89 q 773 140 678 89 q 921 280 868 190 q 974 486 974 369 q 921 693 974 604 q 773 833 868 782 q 549 883 678 883 l 261 883 l 261 89 z "},"Ð":{"ha":1154,"x_min":18,"x_max":1082,"o":"m 165 0 l 165 972 l 561 972 q 834 910 717 972 q 1017 739 951 849 q 1082 486 1082 629 q 1017 233 1082 343 q 834 62 951 124 q 561 0 717 0 l 165 0 m 268 89 l 556 89 q 780 140 685 89 q 928 280 875 190 q 981 486 981 369 q 928 693 981 604 q 780 833 875 782 q 556 883 685 883 l 268 883 l 268 89 m 18 454 l 18 536 l 557 536 l 557 454 l 18 454 z "},"Ď":{"ha":1147,"x_min":158,"x_max":1075,"o":"m 158 0 l 158 972 l 554 972 q 827 910 710 972 q 1010 739 944 849 q 1075 486 1075 629 q 1010 233 1075 343 q 827 62 944 124 q 554 0 710 0 l 158 0 m 261 89 l 549 89 q 773 140 678 89 q 921 280 868 190 q 974 486 974 369 q 921 693 974 604 q 773 833 868 782 q 549 883 678 883 l 261 883 l 261 89 z "},"Đ":{"ha":1154,"x_min":18,"x_max":1082,"o":"m 165 0 l 165 972 l 561 972 q 834 910 717 972 q 1017 739 951 849 q 1082 486 1082 629 q 1017 233 1082 343 q 834 62 951 124 q 561 0 717 0 l 165 0 m 268 89 l 556 89 q 780 140 685 89 q 928 280 875 190 q 981 486 981 369 q 928 693 981 604 q 780 833 875 782 q 556 883 685 883 l 268 883 l 268 89 m 18 454 l 18 536 l 557 536 l 557 454 l 18 454 z "},"Ḍ":{"ha":1147,"x_min":158,"x_max":1075,"o":"m 158 0 l 158 972 l 554 972 q 827 910 710 972 q 1010 739 944 849 q 1075 486 1075 629 q 1010 233 1075 343 q 827 62 944 124 q 554 0 710 0 l 158 0 m 261 89 l 549 89 q 773 140 678 89 q 921 280 868 190 q 974 486 974 369 q 921 693 974 604 q 773 833 868 782 q 549 883 678 883 l 261 883 l 261 89 m 539 -264 q 497 -247 515 -264 q 479 -204 479 -231 q 497 -161 479 -178 q 539 -144 515 -144 q 581 -161 564 -144 q 599 -204 599 -178 q 581 -247 599 -231 q 539 -264 564 -264 z "},"Ḏ":{"ha":1147,"x_min":158,"x_max":1075,"o":"m 158 0 l 158 972 l 554 972 q 827 910 710 972 q 1010 739 944 849 q 1075 486 1075 629 q 1010 233 1075 343 q 827 62 944 124 q 554 0 710 0 l 158 0 m 261 89 l 549 89 q 773 140 678 89 q 921 280 868 190 q 974 486 974 369 q 921 693 974 604 q 773 833 868 782 q 549 883 678 883 l 261 883 l 261 89 m 325 -235 l 325 -169 l 753 -169 l 753 -235 l 325 -235 z "},"ǅ":{"ha":1857,"x_min":158,"x_max":1800,"o":"m 158 0 l 158 972 l 554 972 q 827 910 710 972 q 1010 739 944 849 q 1075 486 1075 629 q 1010 233 1075 343 q 827 62 944 124 q 554 0 710 0 l 158 0 m 261 89 l 549 89 q 773 140 678 89 q 921 280 868 190 q 974 486 974 369 q 921 693 974 604 q 773 833 868 782 q 549 883 678 883 l 261 883 l 261 89 z "},"E":{"ha":929,"x_min":158,"x_max":846,"o":"m 250 538 l 764 538 l 764 450 l 250 450 l 250 538 m 261 89 l 846 89 l 846 0 l 158 0 l 158 972 l 825 972 l 825 883 l 261 883 l 261 89 z "},"É":{"ha":929,"x_min":158,"x_max":846,"o":"m 250 538 l 764 538 l 764 450 l 250 450 l 250 538 m 261 89 l 846 89 l 846 0 l 158 0 l 158 972 l 825 972 l 825 883 l 261 883 l 261 89 z "},"Ĕ":{"ha":929,"x_min":158,"x_max":846,"o":"m 250 538 l 764 538 l 764 450 l 250 450 l 250 538 m 261 89 l 846 89 l 846 0 l 158 0 l 158 972 l 825 972 l 825 883 l 261 883 l 261 89 z "},"Ě":{"ha":929,"x_min":158,"x_max":846,"o":"m 250 538 l 764 538 l 764 450 l 250 450 l 250 538 m 261 89 l 846 89 l 846 0 l 158 0 l 158 972 l 825 972 l 825 883 l 261 883 l 261 89 z "},"Ḝ":{"ha":929,"x_min":158,"x_max":846,"o":"m 250 538 l 764 538 l 764 450 l 250 450 l 250 538 m 261 89 l 846 89 l 846 0 l 158 0 l 158 972 l 825 972 l 825 883 l 261 883 l 261 89 m 481 -306 q 417 -297 446 -306 q 364 -274 389 -289 l 388 -221 q 431 -240 408 -233 q 479 -247 454 -247 q 543 -230 521 -247 q 565 -182 565 -212 q 544 -136 565 -154 q 479 -118 522 -118 l 447 -118 l 481 8 l 540 8 l 519 -72 q 607 -108 576 -76 q 638 -185 638 -139 q 594 -273 638 -240 q 481 -306 550 -306 z "},"Ê":{"ha":929,"x_min":158,"x_max":846,"o":"m 250 538 l 764 538 l 764 450 l 250 450 l 250 538 m 261 89 l 846 89 l 846 0 l 158 0 l 158 972 l 825 972 l 825 883 l 261 883 l 261 89 z "},"Ế":{"ha":929,"x_min":158,"x_max":908,"o":"m 250 538 l 764 538 l 764 450 l 250 450 l 250 538 m 261 89 l 846 89 l 846 0 l 158 0 l 158 972 l 825 972 l 825 883 l 261 883 l 261 89 z "},"Ệ":{"ha":929,"x_min":158,"x_max":846,"o":"m 250 538 l 764 538 l 764 450 l 250 450 l 250 538 m 261 89 l 846 89 l 846 0 l 158 0 l 158 972 l 825 972 l 825 883 l 261 883 l 261 89 m 511 -264 q 469 -247 488 -264 q 451 -204 451 -231 q 469 -161 451 -178 q 511 -144 488 -144 q 553 -161 536 -144 q 571 -204 571 -178 q 553 -247 571 -231 q 511 -264 536 -264 z "},"Ề":{"ha":929,"x_min":158,"x_max":846,"o":"m 250 538 l 764 538 l 764 450 l 250 450 l 250 538 m 261 89 l 846 89 l 846 0 l 158 0 l 158 972 l 825 972 l 825 883 l 261 883 l 261 89 z "},"Ể":{"ha":929,"x_min":158,"x_max":846,"o":"m 250 538 l 764 538 l 764 450 l 250 450 l 250 538 m 261 89 l 846 89 l 846 0 l 158 0 l 158 972 l 825 972 l 825 883 l 261 883 l 261 89 z "},"Ễ":{"ha":929,"x_min":158,"x_max":846,"o":"m 250 538 l 764 538 l 764 450 l 250 450 l 250 538 m 261 89 l 846 89 l 846 0 l 158 0 l 158 972 l 825 972 l 825 883 l 261 883 l 261 89 z "},"Ȅ":{"ha":929,"x_min":158,"x_max":846,"o":"m 250 538 l 764 538 l 764 450 l 250 450 l 250 538 m 261 89 l 846 89 l 846 0 l 158 0 l 158 972 l 825 972 l 825 883 l 261 883 l 261 89 z "},"Ë":{"ha":929,"x_min":158,"x_max":846,"o":"m 250 538 l 764 538 l 764 450 l 250 450 l 250 538 m 261 89 l 846 89 l 846 0 l 158 0 l 158 972 l 825 972 l 825 883 l 261 883 l 261 89 z "},"Ė":{"ha":929,"x_min":158,"x_max":846,"o":"m 250 538 l 764 538 l 764 450 l 250 450 l 250 538 m 261 89 l 846 89 l 846 0 l 158 0 l 158 972 l 825 972 l 825 883 l 261 883 l 261 89 z "},"Ẹ":{"ha":929,"x_min":158,"x_max":846,"o":"m 250 538 l 764 538 l 764 450 l 250 450 l 250 538 m 261 89 l 846 89 l 846 0 l 158 0 l 158 972 l 825 972 l 825 883 l 261 883 l 261 89 m 511 -264 q 469 -247 488 -264 q 451 -204 451 -231 q 469 -161 451 -178 q 511 -144 488 -144 q 553 -161 536 -144 q 571 -204 571 -178 q 553 -247 571 -231 q 511 -264 536 -264 z "},"È":{"ha":929,"x_min":158,"x_max":846,"o":"m 250 538 l 764 538 l 764 450 l 250 450 l 250 538 m 261 89 l 846 89 l 846 0 l 158 0 l 158 972 l 825 972 l 825 883 l 261 883 l 261 89 z "},"Ẻ":{"ha":929,"x_min":158,"x_max":846,"o":"m 250 538 l 764 538 l 764 450 l 250 450 l 250 538 m 261 89 l 846 89 l 846 0 l 158 0 l 158 972 l 825 972 l 825 883 l 261 883 l 261 89 z "},"Ȇ":{"ha":929,"x_min":158,"x_max":846,"o":"m 250 538 l 764 538 l 764 450 l 250 450 l 250 538 m 261 89 l 846 89 l 846 0 l 158 0 l 158 972 l 825 972 l 825 883 l 261 883 l 261 89 z "},"Ē":{"ha":929,"x_min":158,"x_max":846,"o":"m 250 538 l 764 538 l 764 450 l 250 450 l 250 538 m 261 89 l 846 89 l 846 0 l 158 0 l 158 972 l 825 972 l 825 883 l 261 883 l 261 89 z "},"Ḗ":{"ha":929,"x_min":158,"x_max":846,"o":"m 250 538 l 764 538 l 764 450 l 250 450 l 250 538 m 261 89 l 846 89 l 846 0 l 158 0 l 158 972 l 825 972 l 825 883 l 261 883 l 261 89 z "},"Ḕ":{"ha":929,"x_min":158,"x_max":846,"o":"m 250 538 l 764 538 l 764 450 l 250 450 l 250 538 m 261 89 l 846 89 l 846 0 l 158 0 l 158 972 l 825 972 l 825 883 l 261 883 l 261 89 z "},"Ę":{"ha":929,"x_min":158,"x_max":874,"o":"m 250 538 l 764 538 l 764 450 l 250 450 l 250 538 m 261 89 l 846 89 l 846 0 l 158 0 l 158 972 l 825 972 l 825 883 l 261 883 l 261 89 m 757 -306 q 646 -269 688 -306 q 604 -174 604 -233 q 622 -103 604 -140 q 682 -31 639 -67 q 800 38 725 6 l 846 0 q 742 -58 779 -29 q 691 -113 706 -86 q 676 -167 676 -140 q 702 -225 676 -206 q 767 -244 728 -244 q 813 -237 790 -244 q 853 -218 836 -231 l 875 -272 q 820 -297 850 -287 q 757 -306 790 -306 z "},"Ẽ":{"ha":929,"x_min":158,"x_max":846,"o":"m 250 538 l 764 538 l 764 450 l 250 450 l 250 538 m 261 89 l 846 89 l 846 0 l 158 0 l 158 972 l 825 972 l 825 883 l 261 883 l 261 89 z "},"Ʒ":{"ha":854,"x_min":44,"x_max":778,"o":"m 410 -8 q 197 26 294 -8 q 44 114 100 60 l 85 194 q 219 113 135 146 q 407 81 304 81 q 606 134 538 81 q 675 279 675 188 q 607 421 675 368 q 394 474 539 474 l 322 474 l 322 546 l 646 922 l 654 885 l 81 885 l 81 972 l 735 972 l 735 901 l 413 525 l 372 556 l 410 556 q 615 521 533 556 q 737 424 696 486 q 778 279 778 361 q 737 132 778 197 q 614 29 696 67 q 410 -8 532 -8 z "},"Ǯ":{"ha":854,"x_min":44,"x_max":778,"o":"m 410 -8 q 197 26 294 -8 q 44 114 100 60 l 85 194 q 219 113 135 146 q 407 81 304 81 q 606 134 538 81 q 675 279 675 188 q 607 421 675 368 q 394 474 539 474 l 322 474 l 322 546 l 646 922 l 654 885 l 81 885 l 81 972 l 735 972 l 735 901 l 413 525 l 372 556 l 410 556 q 615 521 533 556 q 737 424 696 486 q 778 279 778 361 q 737 132 778 197 q 614 29 696 67 q 410 -8 532 -8 z "},"F":{"ha":879,"x_min":158,"x_max":825,"o":"m 250 501 l 764 501 l 764 413 l 250 413 l 250 501 m 261 0 l 158 0 l 158 972 l 825 972 l 825 883 l 261 883 l 261 0 z "},"G":{"ha":1074,"x_min":72,"x_max":947,"o":"m 585 -8 q 380 28 474 -8 q 217 132 286 65 q 110 289 149 199 q 72 486 72 379 q 110 683 72 593 q 218 840 149 774 q 381 944 288 907 q 586 981 475 981 q 790 946 697 981 q 947 840 882 911 l 883 775 q 749 863 822 836 q 590 889 675 889 q 424 859 500 889 q 292 774 349 829 q 205 647 236 719 q 174 486 174 574 q 205 326 174 400 q 292 198 236 253 q 424 113 349 143 q 589 83 500 83 q 747 108 672 83 q 883 193 821 133 l 942 115 q 779 23 872 54 q 585 -8 686 -8 m 843 128 l 843 486 l 942 486 l 942 115 l 843 128 z "},"Ğ":{"ha":1074,"x_min":72,"x_max":947,"o":"m 585 -8 q 380 28 474 -8 q 217 132 286 65 q 110 289 149 199 q 72 486 72 379 q 110 683 72 593 q 218 840 149 774 q 381 944 288 907 q 586 981 475 981 q 790 946 697 981 q 947 840 882 911 l 883 775 q 749 863 822 836 q 590 889 675 889 q 424 859 500 889 q 292 774 349 829 q 205 647 236 719 q 174 486 174 574 q 205 326 174 400 q 292 198 236 253 q 424 113 349 143 q 589 83 500 83 q 747 108 672 83 q 883 193 821 133 l 942 115 q 779 23 872 54 q 585 -8 686 -8 m 843 128 l 843 486 l 942 486 l 942 115 l 843 128 z "},"Ǧ":{"ha":1074,"x_min":72,"x_max":947,"o":"m 585 -8 q 380 28 474 -8 q 217 132 286 65 q 110 289 149 199 q 72 486 72 379 q 110 683 72 593 q 218 840 149 774 q 381 944 288 907 q 586 981 475 981 q 790 946 697 981 q 947 840 882 911 l 883 775 q 749 863 822 836 q 590 889 675 889 q 424 859 500 889 q 292 774 349 829 q 205 647 236 719 q 174 486 174 574 q 205 326 174 400 q 292 198 236 253 q 424 113 349 143 q 589 83 500 83 q 747 108 672 83 q 883 193 821 133 l 942 115 q 779 23 872 54 q 585 -8 686 -8 m 843 128 l 843 486 l 942 486 l 942 115 l 843 128 z "},"Ĝ":{"ha":1074,"x_min":72,"x_max":947,"o":"m 585 -8 q 380 28 474 -8 q 217 132 286 65 q 110 289 149 199 q 72 486 72 379 q 110 683 72 593 q 218 840 149 774 q 381 944 288 907 q 586 981 475 981 q 790 946 697 981 q 947 840 882 911 l 883 775 q 749 863 822 836 q 590 889 675 889 q 424 859 500 889 q 292 774 349 829 q 205 647 236 719 q 174 486 174 574 q 205 326 174 400 q 292 198 236 253 q 424 113 349 143 q 589 83 500 83 q 747 108 672 83 q 883 193 821 133 l 942 115 q 779 23 872 54 q 585 -8 686 -8 m 843 128 l 843 486 l 942 486 l 942 115 l 843 128 z "},"Ģ":{"ha":1074,"x_min":72,"x_max":947,"o":"m 585 -8 q 380 28 474 -8 q 217 132 286 65 q 110 289 149 199 q 72 486 72 379 q 110 683 72 593 q 218 840 149 774 q 381 944 288 907 q 586 981 475 981 q 790 946 697 981 q 947 840 882 911 l 883 775 q 749 863 822 836 q 590 889 675 889 q 424 859 500 889 q 292 774 349 829 q 205 647 236 719 q 174 486 174 574 q 205 326 174 400 q 292 198 236 253 q 424 113 349 143 q 589 83 500 83 q 747 108 672 83 q 883 193 821 133 l 942 115 q 779 23 872 54 q 585 -8 686 -8 m 843 128 l 843 486 l 942 486 l 942 115 l 843 128 m 513 -364 l 551 -214 l 561 -253 q 518 -237 535 -253 q 501 -199 501 -222 q 518 -160 501 -175 q 561 -144 535 -144 q 605 -160 589 -144 q 621 -199 621 -176 q 617 -228 621 -212 q 606 -261 614 -243 l 567 -364 l 513 -364 z "},"Ġ":{"ha":1074,"x_min":72,"x_max":947,"o":"m 585 -8 q 380 28 474 -8 q 217 132 286 65 q 110 289 149 199 q 72 486 72 379 q 110 683 72 593 q 218 840 149 774 q 381 944 288 907 q 586 981 475 981 q 790 946 697 981 q 947 840 882 911 l 883 775 q 749 863 822 836 q 590 889 675 889 q 424 859 500 889 q 292 774 349 829 q 205 647 236 719 q 174 486 174 574 q 205 326 174 400 q 292 198 236 253 q 424 113 349 143 q 589 83 500 83 q 747 108 672 83 q 883 193 821 133 l 942 115 q 779 23 872 54 q 585 -8 686 -8 m 843 128 l 843 486 l 942 486 l 942 115 l 843 128 z "},"Ḡ":{"ha":1074,"x_min":72,"x_max":947,"o":"m 585 -8 q 380 28 474 -8 q 217 132 286 65 q 110 289 149 199 q 72 486 72 379 q 110 683 72 593 q 218 840 149 774 q 381 944 288 907 q 586 981 475 981 q 790 946 697 981 q 947 840 882 911 l 883 775 q 749 863 822 836 q 590 889 675 889 q 424 859 500 889 q 292 774 349 829 q 205 647 236 719 q 174 486 174 574 q 205 326 174 400 q 292 198 236 253 q 424 113 349 143 q 589 83 500 83 q 747 108 672 83 q 883 193 821 133 l 942 115 q 779 23 872 54 q 585 -8 686 -8 m 843 128 l 843 486 l 942 486 l 942 115 l 843 128 z "},"Ǥ":{"ha":1119,"x_min":72,"x_max":1088,"o":"m 565 286 l 565 369 l 1088 369 l 1088 286 l 565 286 m 585 -8 q 380 28 474 -8 q 217 132 286 65 q 110 289 149 199 q 72 486 72 379 q 110 683 72 593 q 218 840 149 774 q 381 944 288 907 q 586 981 475 981 q 790 946 697 981 q 947 840 882 911 l 883 775 q 749 863 822 836 q 590 889 675 889 q 424 859 500 889 q 292 774 349 829 q 205 647 236 719 q 174 486 174 574 q 205 326 174 400 q 292 198 236 253 q 424 113 349 143 q 589 83 500 83 q 747 108 672 83 q 883 193 821 133 l 942 115 q 779 23 872 54 q 585 -8 686 -8 m 843 128 l 843 486 l 942 486 l 942 115 l 843 128 z "},"H":{"ha":1129,"x_min":158,"x_max":971,"o":"m 869 972 l 971 972 l 971 0 l 869 0 l 869 972 m 261 0 l 158 0 l 158 972 l 261 972 l 261 0 m 879 449 l 250 449 l 250 539 l 879 539 l 879 449 z "},"Ħ":{"ha":1143,"x_min":18,"x_max":1125,"o":"m 876 972 l 978 972 l 978 0 l 876 0 l 876 972 m 268 0 l 165 0 l 165 972 l 268 972 l 268 0 m 886 449 l 257 449 l 257 539 l 886 539 l 886 449 m 17 719 l 17 803 l 1124 803 l 1124 719 l 17 719 z "},"Ḫ":{"ha":1129,"x_min":158,"x_max":971,"o":"m 869 972 l 971 972 l 971 0 l 869 0 l 869 972 m 261 0 l 158 0 l 158 972 l 261 972 l 261 0 m 879 449 l 250 449 l 250 539 l 879 539 l 879 449 m 564 -285 q 416 -239 476 -285 q 353 -117 356 -193 l 419 -117 q 463 -198 421 -168 q 564 -228 504 -228 q 667 -198 625 -228 q 708 -117 708 -168 l 775 -117 q 712 -239 772 -193 q 564 -285 651 -285 z "},"Ȟ":{"ha":1129,"x_min":158,"x_max":971,"o":"m 869 972 l 971 972 l 971 0 l 869 0 l 869 972 m 261 0 l 158 0 l 158 972 l 261 972 l 261 0 m 879 449 l 250 449 l 250 539 l 879 539 l 879 449 z "},"Ĥ":{"ha":1129,"x_min":158,"x_max":971,"o":"m 869 972 l 971 972 l 971 0 l 869 0 l 869 972 m 261 0 l 158 0 l 158 972 l 261 972 l 261 0 m 879 449 l 250 449 l 250 539 l 879 539 l 879 449 z "},"Ḥ":{"ha":1129,"x_min":158,"x_max":971,"o":"m 869 972 l 971 972 l 971 0 l 869 0 l 869 972 m 261 0 l 158 0 l 158 972 l 261 972 l 261 0 m 879 449 l 250 449 l 250 539 l 879 539 l 879 449 m 564 -264 q 522 -247 540 -264 q 504 -204 504 -231 q 522 -161 504 -178 q 564 -144 540 -144 q 606 -161 589 -144 q 624 -204 624 -178 q 606 -247 624 -231 q 564 -264 589 -264 z "},"I":{"ha":419,"x_min":158,"x_max":261,"o":"m 158 0 l 158 972 l 261 972 l 261 0 l 158 0 z "},"Ĳ":{"ha":997,"x_min":136,"x_max":847,"o":"m 454 -8 q 279 18 361 -8 q 136 88 197 44 l 178 169 q 308 106 236 128 q 457 83 379 83 q 669 165 593 83 q 744 415 744 247 l 744 972 l 847 972 l 847 419 q 798 183 847 278 q 661 40 749 88 q 454 -8 574 -8 m 150 419 l 150 972 l 253 972 l 253 419 l 150 419 z "},"Í":{"ha":419,"x_min":119,"x_max":442,"o":"m 158 0 l 158 972 l 261 972 l 261 0 l 158 0 z "},"Ĭ":{"ha":419,"x_min":-1,"x_max":421,"o":"m 158 0 l 158 972 l 261 972 l 261 0 l 158 0 z "},"Î":{"ha":419,"x_min":-19,"x_max":439,"o":"m 158 0 l 158 972 l 261 972 l 261 0 l 158 0 z "},"Ȉ":{"ha":419,"x_min":-103,"x_max":367,"o":"m 158 0 l 158 972 l 261 972 l 261 0 l 158 0 z "},"Ï":{"ha":419,"x_min":26,"x_max":393,"o":"m 158 0 l 158 972 l 261 972 l 261 0 l 158 0 z "},"Ḯ":{"ha":419,"x_min":29,"x_max":413,"o":"m 158 0 l 158 972 l 261 972 l 261 0 l 158 0 z "},"İ":{"ha":419,"x_min":143,"x_max":276,"o":"m 158 0 l 158 972 l 261 972 l 261 0 l 158 0 z "},"Ị":{"ha":419,"x_min":150,"x_max":269,"o":"m 158 0 l 158 972 l 261 972 l 261 0 l 158 0 m 210 -264 q 168 -247 186 -264 q 150 -204 150 -231 q 168 -161 150 -178 q 210 -144 186 -144 q 252 -161 235 -144 q 269 -204 269 -178 q 252 -247 269 -231 q 210 -264 235 -264 z "},"Ì":{"ha":419,"x_min":-22,"x_max":300,"o":"m 158 0 l 158 972 l 261 972 l 261 0 l 158 0 z "},"Ỉ":{"ha":419,"x_min":90,"x_max":338,"o":"m 158 0 l 158 972 l 261 972 l 261 0 l 158 0 z "},"Ȋ":{"ha":419,"x_min":-1,"x_max":421,"o":"m 158 0 l 158 972 l 261 972 l 261 0 l 158 0 z "},"Ī":{"ha":419,"x_min":35,"x_max":385,"o":"m 158 0 l 158 972 l 261 972 l 261 0 l 158 0 z "},"Į":{"ha":419,"x_min":108,"x_max":314,"o":"m 158 0 l 158 972 l 261 972 l 261 0 l 158 0 m 232 -306 q 142 -271 176 -306 q 108 -179 108 -236 q 133 -74 108 -131 q 225 38 158 -18 l 261 0 q 194 -94 208 -53 q 181 -169 181 -136 q 199 -226 181 -206 q 243 -246 218 -246 q 271 -240 258 -246 q 294 -226 283 -235 l 314 -276 q 232 -306 283 -306 z "},"Ĩ":{"ha":419,"x_min":-10,"x_max":428,"o":"m 158 0 l 158 972 l 261 972 l 261 0 l 158 0 z "},"J":{"ha":696,"x_min":-6,"x_max":546,"o":"m 263 -8 q 109 28 181 -8 q -6 131 38 64 l 54 200 q 147 111 94 142 q 264 81 200 81 q 444 294 444 81 l 444 883 l 89 883 l 89 972 l 546 972 l 546 299 q 474 68 546 144 q 263 -8 403 -8 z "},"Ĵ":{"ha":696,"x_min":-6,"x_max":547,"o":"m 263 -8 q 109 28 181 -8 q -6 131 38 64 l 54 200 q 147 111 94 142 q 264 81 200 81 q 444 294 444 81 l 444 883 l 89 883 l 89 972 l 546 972 l 546 299 q 474 68 546 144 q 263 -8 403 -8 z "},"K":{"ha":988,"x_min":158,"x_max":979,"o":"m 247 242 l 243 367 l 832 972 l 950 972 l 521 522 l 463 460 l 247 242 m 158 0 l 158 972 l 261 972 l 261 0 l 158 0 m 857 0 l 438 483 l 507 558 l 979 0 l 857 0 z "},"Ǩ":{"ha":988,"x_min":158,"x_max":979,"o":"m 247 242 l 243 367 l 832 972 l 950 972 l 521 522 l 463 460 l 247 242 m 158 0 l 158 972 l 261 972 l 261 0 l 158 0 m 857 0 l 438 483 l 507 558 l 979 0 l 857 0 z "},"Ķ":{"ha":988,"x_min":158,"x_max":979,"o":"m 247 242 l 243 367 l 832 972 l 950 972 l 521 522 l 463 460 l 247 242 m 158 0 l 158 972 l 261 972 l 261 0 l 158 0 m 857 0 l 438 483 l 507 558 l 979 0 l 857 0 m 469 -364 l 508 -214 l 518 -253 q 475 -237 492 -253 q 458 -199 458 -222 q 475 -160 458 -175 q 518 -144 492 -144 q 562 -160 546 -144 q 578 -199 578 -176 q 574 -228 578 -212 q 563 -261 571 -243 l 524 -364 l 469 -364 z "},"L":{"ha":818,"x_min":158,"x_max":806,"o":"m 158 0 l 158 972 l 261 972 l 261 89 l 806 89 l 806 0 l 158 0 z "},"Ǉ":{"ha":1514,"x_min":158,"x_max":1364,"o":"m 158 0 l 158 972 l 261 972 l 261 89 l 806 89 l 806 0 l 158 0 m 1081 -8 q 927 28 999 -8 q 813 131 856 64 l 872 200 q 965 111 913 142 q 1082 81 1018 81 q 1263 294 1263 81 l 1263 883 l 907 883 l 907 972 l 1364 972 l 1364 299 q 1292 68 1364 144 q 1081 -8 1221 -8 z "},"Ĺ":{"ha":818,"x_min":119,"x_max":806,"o":"m 158 0 l 158 972 l 261 972 l 261 89 l 806 89 l 806 0 l 158 0 z "},"Ľ":{"ha":818,"x_min":158,"x_max":806,"o":"m 158 0 l 158 972 l 261 972 l 261 89 l 806 89 l 806 0 l 158 0 m 611 750 l 611 1011 l 694 1011 l 682 750 l 611 750 z "},"Ļ":{"ha":818,"x_min":158,"x_max":806,"o":"m 158 0 l 158 972 l 261 972 l 261 89 l 806 89 l 806 0 l 158 0 m 449 -364 l 488 -214 l 497 -253 q 454 -237 471 -253 q 438 -199 438 -222 q 454 -160 438 -175 q 497 -144 471 -144 q 541 -160 525 -144 q 557 -199 557 -176 q 553 -228 557 -212 q 542 -261 550 -243 l 503 -364 l 449 -364 z "},"Ŀ":{"ha":818,"x_min":158,"x_max":806,"o":"m 158 0 l 158 972 l 261 972 l 261 89 l 806 89 l 806 0 l 158 0 m 618 461 q 570 481 590 461 q 550 531 550 501 q 570 581 550 561 q 618 600 590 600 q 667 581 647 600 q 686 531 686 561 q 667 481 686 501 q 618 461 647 461 z "},"Ḷ":{"ha":818,"x_min":158,"x_max":806,"o":"m 158 0 l 158 972 l 261 972 l 261 89 l 806 89 l 806 0 l 158 0 m 497 -264 q 456 -247 474 -264 q 438 -204 438 -231 q 456 -161 438 -178 q 497 -144 474 -144 q 540 -161 522 -144 q 557 -204 557 -178 q 540 -247 557 -231 q 497 -264 522 -264 z "},"ǈ":{"ha":1199,"x_min":158,"x_max":1085,"o":"m 158 0 l 158 972 l 261 972 l 261 89 l 806 89 l 806 0 l 158 0 z "},"Ḻ":{"ha":818,"x_min":158,"x_max":806,"o":"m 158 0 l 158 972 l 261 972 l 261 89 l 806 89 l 806 0 l 158 0 m 283 -235 l 283 -169 l 711 -169 l 711 -235 l 283 -235 z "},"Ł":{"ha":825,"x_min":26,"x_max":813,"o":"m 165 0 l 165 972 l 268 972 l 268 89 l 813 89 l 813 0 l 165 0 m 72 360 l 26 418 l 432 724 l 479 664 l 72 360 z "},"M":{"ha":1326,"x_min":158,"x_max":1168,"o":"m 158 0 l 158 972 l 243 972 l 688 214 l 643 214 l 1083 972 l 1168 972 l 1168 0 l 1069 0 l 1069 818 l 1093 818 l 688 124 l 639 124 l 231 818 l 257 818 l 257 0 l 158 0 z "},"Ṃ":{"ha":1326,"x_min":158,"x_max":1168,"o":"m 158 0 l 158 972 l 243 972 l 688 214 l 643 214 l 1083 972 l 1168 972 l 1168 0 l 1069 0 l 1069 818 l 1093 818 l 688 124 l 639 124 l 231 818 l 257 818 l 257 0 l 158 0 m 663 -264 q 621 -247 639 -264 q 603 -204 603 -231 q 621 -161 603 -178 q 663 -144 639 -144 q 705 -161 688 -144 q 722 -204 722 -178 q 705 -247 722 -231 q 663 -264 688 -264 z "},"N":{"ha":1129,"x_min":158,"x_max":971,"o":"m 158 0 l 158 972 l 243 972 l 914 128 l 869 128 l 869 972 l 971 972 l 971 0 l 886 0 l 217 844 l 261 844 l 261 0 l 158 0 z "},"Ǌ":{"ha":1826,"x_min":158,"x_max":1675,"o":"m 158 0 l 158 972 l 243 972 l 914 128 l 869 128 l 869 972 l 971 972 l 971 0 l 886 0 l 217 844 l 261 844 l 261 0 l 158 0 m 1392 -8 q 1238 28 1310 -8 q 1124 131 1167 64 l 1183 200 q 1276 111 1224 142 q 1393 81 1329 81 q 1574 294 1574 81 l 1574 883 l 1218 883 l 1218 972 l 1675 972 l 1675 299 q 1603 68 1675 144 q 1392 -8 1532 -8 z "},"Ń":{"ha":1129,"x_min":158,"x_max":971,"o":"m 158 0 l 158 972 l 243 972 l 914 128 l 869 128 l 869 972 l 971 972 l 971 0 l 886 0 l 217 844 l 261 844 l 261 0 l 158 0 z "},"Ň":{"ha":1129,"x_min":158,"x_max":971,"o":"m 158 0 l 158 972 l 243 972 l 914 128 l 869 128 l 869 972 l 971 972 l 971 0 l 886 0 l 217 844 l 261 844 l 261 0 l 158 0 z "},"Ņ":{"ha":1129,"x_min":158,"x_max":971,"o":"m 158 0 l 158 972 l 243 972 l 914 128 l 869 128 l 869 972 l 971 972 l 971 0 l 886 0 l 217 844 l 261 844 l 261 0 l 158 0 m 515 -364 l 554 -214 l 564 -253 q 521 -237 538 -253 q 504 -199 504 -222 q 521 -160 504 -175 q 564 -144 538 -144 q 608 -160 592 -144 q 624 -199 624 -176 q 620 -228 624 -212 q 608 -261 617 -243 l 569 -364 l 515 -364 z "},"Ṅ":{"ha":1129,"x_min":158,"x_max":971,"o":"m 158 0 l 158 972 l 243 972 l 914 128 l 869 128 l 869 972 l 971 972 l 971 0 l 886 0 l 217 844 l 261 844 l 261 0 l 158 0 z "},"Ṇ":{"ha":1129,"x_min":158,"x_max":971,"o":"m 158 0 l 158 972 l 243 972 l 914 128 l 869 128 l 869 972 l 971 972 l 971 0 l 886 0 l 217 844 l 261 844 l 261 0 l 158 0 m 564 -264 q 522 -247 540 -264 q 504 -204 504 -231 q 522 -161 504 -178 q 564 -144 540 -144 q 606 -161 589 -144 q 624 -204 624 -178 q 606 -247 624 -231 q 564 -264 589 -264 z "},"Ŋ":{"ha":1129,"x_min":158,"x_max":971,"o":"m 158 0 l 158 972 l 243 972 l 914 128 l 886 0 l 217 844 l 261 844 l 261 0 l 158 0 m 690 -276 q 551 -245 617 -276 q 443 -157 486 -214 l 494 -85 q 581 -160 531 -133 q 690 -187 631 -187 q 869 28 869 -187 l 869 972 l 971 972 l 971 39 q 900 -199 971 -121 q 690 -276 829 -276 z "},"ǋ":{"ha":1510,"x_min":158,"x_max":1396,"o":"m 158 0 l 158 972 l 243 972 l 914 128 l 869 128 l 869 972 l 971 972 l 971 0 l 886 0 l 217 844 l 261 844 l 261 0 l 158 0 z "},"Ṉ":{"ha":1129,"x_min":158,"x_max":971,"o":"m 158 0 l 158 972 l 243 972 l 914 128 l 869 128 l 869 972 l 971 972 l 971 0 l 886 0 l 217 844 l 261 844 l 261 0 l 158 0 m 350 -235 l 350 -169 l 778 -169 l 778 -235 l 350 -235 z "},"Ñ":{"ha":1129,"x_min":158,"x_max":971,"o":"m 158 0 l 158 972 l 243 972 l 914 128 l 869 128 l 869 972 l 971 972 l 971 0 l 886 0 l 217 844 l 261 844 l 261 0 l 158 0 z "},"O":{"ha":1165,"x_min":72,"x_max":1093,"o":"m 583 -8 q 380 28 474 -8 q 217 133 286 65 q 110 290 149 200 q 72 486 72 379 q 110 683 72 593 q 217 840 149 772 q 379 944 286 907 q 583 981 472 981 q 786 944 693 981 q 948 840 879 907 q 1055 683 1017 774 q 1093 486 1093 593 q 1055 289 1093 379 q 948 132 1017 199 q 786 28 879 65 q 583 -8 693 -8 m 583 83 q 745 113 671 83 q 874 198 819 143 q 960 326 929 253 q 990 486 990 399 q 960 647 990 574 q 874 774 929 719 q 745 859 819 829 q 583 889 671 889 q 421 859 496 889 q 291 774 346 829 q 205 647 236 719 q 174 486 174 574 q 205 326 174 400 q 291 198 236 253 q 421 113 346 143 q 583 83 496 83 z "},"Ó":{"ha":1165,"x_min":72,"x_max":1093,"o":"m 583 -8 q 380 28 474 -8 q 217 133 286 65 q 110 290 149 200 q 72 486 72 379 q 110 683 72 593 q 217 840 149 772 q 379 944 286 907 q 583 981 472 981 q 786 944 693 981 q 948 840 879 907 q 1055 683 1017 774 q 1093 486 1093 593 q 1055 289 1093 379 q 948 132 1017 199 q 786 28 879 65 q 583 -8 693 -8 m 583 83 q 745 113 671 83 q 874 198 819 143 q 960 326 929 253 q 990 486 990 399 q 960 647 990 574 q 874 774 929 719 q 745 859 819 829 q 583 889 671 889 q 421 859 496 889 q 291 774 346 829 q 205 647 236 719 q 174 486 174 574 q 205 326 174 400 q 291 198 236 253 q 421 113 346 143 q 583 83 496 83 z "},"Ŏ":{"ha":1165,"x_min":72,"x_max":1093,"o":"m 583 -8 q 380 28 474 -8 q 217 133 286 65 q 110 290 149 200 q 72 486 72 379 q 110 683 72 593 q 217 840 149 772 q 379 944 286 907 q 583 981 472 981 q 786 944 693 981 q 948 840 879 907 q 1055 683 1017 774 q 1093 486 1093 593 q 1055 289 1093 379 q 948 132 1017 199 q 786 28 879 65 q 583 -8 693 -8 m 583 83 q 745 113 671 83 q 874 198 819 143 q 960 326 929 253 q 990 486 990 399 q 960 647 990 574 q 874 774 929 719 q 745 859 819 829 q 583 889 671 889 q 421 859 496 889 q 291 774 346 829 q 205 647 236 719 q 174 486 174 574 q 205 326 174 400 q 291 198 236 253 q 421 113 346 143 q 583 83 496 83 z "},"Ô":{"ha":1165,"x_min":72,"x_max":1093,"o":"m 583 -8 q 380 28 474 -8 q 217 133 286 65 q 110 290 149 200 q 72 486 72 379 q 110 683 72 593 q 217 840 149 772 q 379 944 286 907 q 583 981 472 981 q 786 944 693 981 q 948 840 879 907 q 1055 683 1017 774 q 1093 486 1093 593 q 1055 289 1093 379 q 948 132 1017 199 q 786 28 879 65 q 583 -8 693 -8 m 583 83 q 745 113 671 83 q 874 198 819 143 q 960 326 929 253 q 990 486 990 399 q 960 647 990 574 q 874 774 929 719 q 745 859 819 829 q 583 889 671 889 q 421 859 496 889 q 291 774 346 829 q 205 647 236 719 q 174 486 174 574 q 205 326 174 400 q 291 198 236 253 q 421 113 346 143 q 583 83 496 83 z "},"Ố":{"ha":1165,"x_min":72,"x_max":1093,"o":"m 583 -8 q 380 28 474 -8 q 217 133 286 65 q 110 290 149 200 q 72 486 72 379 q 110 683 72 593 q 217 840 149 772 q 379 944 286 907 q 583 981 472 981 q 786 944 693 981 q 948 840 879 907 q 1055 683 1017 774 q 1093 486 1093 593 q 1055 289 1093 379 q 948 132 1017 199 q 786 28 879 65 q 583 -8 693 -8 m 583 83 q 745 113 671 83 q 874 198 819 143 q 960 326 929 253 q 990 486 990 399 q 960 647 990 574 q 874 774 929 719 q 745 859 819 829 q 583 889 671 889 q 421 859 496 889 q 291 774 346 829 q 205 647 236 719 q 174 486 174 574 q 205 326 174 400 q 291 198 236 253 q 421 113 346 143 q 583 83 496 83 z "},"Ộ":{"ha":1165,"x_min":72,"x_max":1093,"o":"m 583 -8 q 380 28 474 -8 q 217 133 286 65 q 110 290 149 200 q 72 486 72 379 q 110 683 72 593 q 217 840 149 772 q 379 944 286 907 q 583 981 472 981 q 786 944 693 981 q 948 840 879 907 q 1055 683 1017 774 q 1093 486 1093 593 q 1055 289 1093 379 q 948 132 1017 199 q 786 28 879 65 q 583 -8 693 -8 m 583 83 q 745 113 671 83 q 874 198 819 143 q 960 326 929 253 q 990 486 990 399 q 960 647 990 574 q 874 774 929 719 q 745 859 819 829 q 583 889 671 889 q 421 859 496 889 q 291 774 346 829 q 205 647 236 719 q 174 486 174 574 q 205 326 174 400 q 291 198 236 253 q 421 113 346 143 q 583 83 496 83 m 583 -264 q 542 -247 560 -264 q 524 -204 524 -231 q 542 -161 524 -178 q 583 -144 560 -144 q 626 -161 608 -144 q 643 -204 643 -178 q 626 -247 643 -231 q 583 -264 608 -264 z "},"Ồ":{"ha":1165,"x_min":72,"x_max":1093,"o":"m 583 -8 q 380 28 474 -8 q 217 133 286 65 q 110 290 149 200 q 72 486 72 379 q 110 683 72 593 q 217 840 149 772 q 379 944 286 907 q 583 981 472 981 q 786 944 693 981 q 948 840 879 907 q 1055 683 1017 774 q 1093 486 1093 593 q 1055 289 1093 379 q 948 132 1017 199 q 786 28 879 65 q 583 -8 693 -8 m 583 83 q 745 113 671 83 q 874 198 819 143 q 960 326 929 253 q 990 486 990 399 q 960 647 990 574 q 874 774 929 719 q 745 859 819 829 q 583 889 671 889 q 421 859 496 889 q 291 774 346 829 q 205 647 236 719 q 174 486 174 574 q 205 326 174 400 q 291 198 236 253 q 421 113 346 143 q 583 83 496 83 z "},"Ổ":{"ha":1165,"x_min":72,"x_max":1093,"o":"m 583 -8 q 380 28 474 -8 q 217 133 286 65 q 110 290 149 200 q 72 486 72 379 q 110 683 72 593 q 217 840 149 772 q 379 944 286 907 q 583 981 472 981 q 786 944 693 981 q 948 840 879 907 q 1055 683 1017 774 q 1093 486 1093 593 q 1055 289 1093 379 q 948 132 1017 199 q 786 28 879 65 q 583 -8 693 -8 m 583 83 q 745 113 671 83 q 874 198 819 143 q 960 326 929 253 q 990 486 990 399 q 960 647 990 574 q 874 774 929 719 q 745 859 819 829 q 583 889 671 889 q 421 859 496 889 q 291 774 346 829 q 205 647 236 719 q 174 486 174 574 q 205 326 174 400 q 291 198 236 253 q 421 113 346 143 q 583 83 496 83 z "},"Ỗ":{"ha":1165,"x_min":72,"x_max":1093,"o":"m 583 -8 q 380 28 474 -8 q 217 133 286 65 q 110 290 149 200 q 72 486 72 379 q 110 683 72 593 q 217 840 149 772 q 379 944 286 907 q 583 981 472 981 q 786 944 693 981 q 948 840 879 907 q 1055 683 1017 774 q 1093 486 1093 593 q 1055 289 1093 379 q 948 132 1017 199 q 786 28 879 65 q 583 -8 693 -8 m 583 83 q 745 113 671 83 q 874 198 819 143 q 960 326 929 253 q 990 486 990 399 q 960 647 990 574 q 874 774 929 719 q 745 859 819 829 q 583 889 671 889 q 421 859 496 889 q 291 774 346 829 q 205 647 236 719 q 174 486 174 574 q 205 326 174 400 q 291 198 236 253 q 421 113 346 143 q 583 83 496 83 z "},"Ȍ":{"ha":1165,"x_min":72,"x_max":1093,"o":"m 583 -8 q 380 28 474 -8 q 217 133 286 65 q 110 290 149 200 q 72 486 72 379 q 110 683 72 593 q 217 840 149 772 q 379 944 286 907 q 583 981 472 981 q 786 944 693 981 q 948 840 879 907 q 1055 683 1017 774 q 1093 486 1093 593 q 1055 289 1093 379 q 948 132 1017 199 q 786 28 879 65 q 583 -8 693 -8 m 583 83 q 745 113 671 83 q 874 198 819 143 q 960 326 929 253 q 990 486 990 399 q 960 647 990 574 q 874 774 929 719 q 745 859 819 829 q 583 889 671 889 q 421 859 496 889 q 291 774 346 829 q 205 647 236 719 q 174 486 174 574 q 205 326 174 400 q 291 198 236 253 q 421 113 346 143 q 583 83 496 83 z "},"Ö":{"ha":1165,"x_min":72,"x_max":1093,"o":"m 583 -8 q 380 28 474 -8 q 217 133 286 65 q 110 290 149 200 q 72 486 72 379 q 110 683 72 593 q 217 840 149 772 q 379 944 286 907 q 583 981 472 981 q 786 944 693 981 q 948 840 879 907 q 1055 683 1017 774 q 1093 486 1093 593 q 1055 289 1093 379 q 948 132 1017 199 q 786 28 879 65 q 583 -8 693 -8 m 583 83 q 745 113 671 83 q 874 198 819 143 q 960 326 929 253 q 990 486 990 399 q 960 647 990 574 q 874 774 929 719 q 745 859 819 829 q 583 889 671 889 q 421 859 496 889 q 291 774 346 829 q 205 647 236 719 q 174 486 174 574 q 205 326 174 400 q 291 198 236 253 q 421 113 346 143 q 583 83 496 83 z "},"Ȫ":{"ha":1165,"x_min":72,"x_max":1093,"o":"m 583 -8 q 380 28 474 -8 q 217 133 286 65 q 110 290 149 200 q 72 486 72 379 q 110 683 72 593 q 217 840 149 772 q 379 944 286 907 q 583 981 472 981 q 786 944 693 981 q 948 840 879 907 q 1055 683 1017 774 q 1093 486 1093 593 q 1055 289 1093 379 q 948 132 1017 199 q 786 28 879 65 q 583 -8 693 -8 m 583 83 q 745 113 671 83 q 874 198 819 143 q 960 326 929 253 q 990 486 990 399 q 960 647 990 574 q 874 774 929 719 q 745 859 819 829 q 583 889 671 889 q 421 859 496 889 q 291 774 346 829 q 205 647 236 719 q 174 486 174 574 q 205 326 174 400 q 291 198 236 253 q 421 113 346 143 q 583 83 496 83 z "},"Ȱ":{"ha":1165,"x_min":72,"x_max":1093,"o":"m 583 -8 q 380 28 474 -8 q 217 133 286 65 q 110 290 149 200 q 72 486 72 379 q 110 683 72 593 q 217 840 149 772 q 379 944 286 907 q 583 981 472 981 q 786 944 693 981 q 948 840 879 907 q 1055 683 1017 774 q 1093 486 1093 593 q 1055 289 1093 379 q 948 132 1017 199 q 786 28 879 65 q 583 -8 693 -8 m 583 83 q 745 113 671 83 q 874 198 819 143 q 960 326 929 253 q 990 486 990 399 q 960 647 990 574 q 874 774 929 719 q 745 859 819 829 q 583 889 671 889 q 421 859 496 889 q 291 774 346 829 q 205 647 236 719 q 174 486 174 574 q 205 326 174 400 q 291 198 236 253 q 421 113 346 143 q 583 83 496 83 z "},"Ọ":{"ha":1165,"x_min":72,"x_max":1093,"o":"m 583 -8 q 380 28 474 -8 q 217 133 286 65 q 110 290 149 200 q 72 486 72 379 q 110 683 72 593 q 217 840 149 772 q 379 944 286 907 q 583 981 472 981 q 786 944 693 981 q 948 840 879 907 q 1055 683 1017 774 q 1093 486 1093 593 q 1055 289 1093 379 q 948 132 1017 199 q 786 28 879 65 q 583 -8 693 -8 m 583 83 q 745 113 671 83 q 874 198 819 143 q 960 326 929 253 q 990 486 990 399 q 960 647 990 574 q 874 774 929 719 q 745 859 819 829 q 583 889 671 889 q 421 859 496 889 q 291 774 346 829 q 205 647 236 719 q 174 486 174 574 q 205 326 174 400 q 291 198 236 253 q 421 113 346 143 q 583 83 496 83 m 583 -264 q 542 -247 560 -264 q 524 -204 524 -231 q 542 -161 524 -178 q 583 -144 560 -144 q 626 -161 608 -144 q 643 -204 643 -178 q 626 -247 643 -231 q 583 -264 608 -264 z "},"Ò":{"ha":1165,"x_min":72,"x_max":1093,"o":"m 583 -8 q 380 28 474 -8 q 217 133 286 65 q 110 290 149 200 q 72 486 72 379 q 110 683 72 593 q 217 840 149 772 q 379 944 286 907 q 583 981 472 981 q 786 944 693 981 q 948 840 879 907 q 1055 683 1017 774 q 1093 486 1093 593 q 1055 289 1093 379 q 948 132 1017 199 q 786 28 879 65 q 583 -8 693 -8 m 583 83 q 745 113 671 83 q 874 198 819 143 q 960 326 929 253 q 990 486 990 399 q 960 647 990 574 q 874 774 929 719 q 745 859 819 829 q 583 889 671 889 q 421 859 496 889 q 291 774 346 829 q 205 647 236 719 q 174 486 174 574 q 205 326 174 400 q 291 198 236 253 q 421 113 346 143 q 583 83 496 83 z "},"Ỏ":{"ha":1165,"x_min":72,"x_max":1093,"o":"m 583 -8 q 380 28 474 -8 q 217 133 286 65 q 110 290 149 200 q 72 486 72 379 q 110 683 72 593 q 217 840 149 772 q 379 944 286 907 q 583 981 472 981 q 786 944 693 981 q 948 840 879 907 q 1055 683 1017 774 q 1093 486 1093 593 q 1055 289 1093 379 q 948 132 1017 199 q 786 28 879 65 q 583 -8 693 -8 m 583 83 q 745 113 671 83 q 874 198 819 143 q 960 326 929 253 q 990 486 990 399 q 960 647 990 574 q 874 774 929 719 q 745 859 819 829 q 583 889 671 889 q 421 859 496 889 q 291 774 346 829 q 205 647 236 719 q 174 486 174 574 q 205 326 174 400 q 291 198 236 253 q 421 113 346 143 q 583 83 496 83 z "},"Ơ":{"ha":1165,"x_min":72,"x_max":1093,"o":"m 583 -8 q 380 28 474 -8 q 217 133 286 65 q 110 290 149 200 q 72 486 72 379 q 110 683 72 593 q 218 840 149 774 q 381 944 288 907 q 586 981 475 981 q 735 971 672 981 q 861 961 799 961 q 964 988 929 961 q 999 1067 999 1014 q 990 1115 999 1093 q 971 1156 982 1136 l 1036 1181 q 1063 1126 1053 1157 q 1072 1064 1072 1096 q 1017 938 1072 982 q 857 894 961 894 q 780 899 822 894 q 700 908 738 903 l 822 924 q 965 821 904 886 q 1060 670 1026 756 q 1093 486 1093 585 q 1055 289 1093 379 q 948 132 1017 199 q 786 28 879 65 q 583 -8 693 -8 m 583 83 q 745 114 671 83 q 874 199 819 144 q 960 326 929 253 q 990 486 990 400 q 960 646 990 572 q 874 774 929 719 q 745 858 819 828 q 583 889 671 889 q 421 859 496 889 q 291 774 346 829 q 205 647 236 719 q 174 486 174 574 q 205 327 174 400 q 291 199 236 254 q 421 113 346 143 q 583 83 496 83 z "},"Ớ":{"ha":1165,"x_min":72,"x_max":1093,"o":"m 583 -8 q 380 28 474 -8 q 217 133 286 65 q 110 290 149 200 q 72 486 72 379 q 110 683 72 593 q 218 840 149 774 q 381 944 288 907 q 586 981 475 981 q 735 971 672 981 q 861 961 799 961 q 964 988 929 961 q 999 1067 999 1014 q 990 1115 999 1093 q 971 1156 982 1136 l 1036 1181 q 1063 1126 1053 1157 q 1072 1064 1072 1096 q 1017 938 1072 982 q 857 894 961 894 q 780 899 822 894 q 700 908 738 903 l 822 924 q 965 821 904 886 q 1060 670 1026 756 q 1093 486 1093 585 q 1055 289 1093 379 q 948 132 1017 199 q 786 28 879 65 q 583 -8 693 -8 m 583 83 q 745 114 671 83 q 874 199 819 144 q 960 326 929 253 q 990 486 990 400 q 960 646 990 572 q 874 774 929 719 q 745 858 819 828 q 583 889 671 889 q 421 859 496 889 q 291 774 346 829 q 205 647 236 719 q 174 486 174 574 q 205 327 174 400 q 291 199 236 254 q 421 113 346 143 q 583 83 496 83 z "},"Ợ":{"ha":1165,"x_min":72,"x_max":1093,"o":"m 583 -8 q 380 28 474 -8 q 217 133 286 65 q 110 290 149 200 q 72 486 72 379 q 110 683 72 593 q 218 840 149 774 q 381 944 288 907 q 586 981 475 981 q 735 971 672 981 q 861 961 799 961 q 964 988 929 961 q 999 1067 999 1014 q 990 1115 999 1093 q 971 1156 982 1136 l 1036 1181 q 1063 1126 1053 1157 q 1072 1064 1072 1096 q 1017 938 1072 982 q 857 894 961 894 q 780 899 822 894 q 700 908 738 903 l 822 924 q 965 821 904 886 q 1060 670 1026 756 q 1093 486 1093 585 q 1055 289 1093 379 q 948 132 1017 199 q 786 28 879 65 q 583 -8 693 -8 m 583 83 q 745 114 671 83 q 874 199 819 144 q 960 326 929 253 q 990 486 990 400 q 960 646 990 572 q 874 774 929 719 q 745 858 819 828 q 583 889 671 889 q 421 859 496 889 q 291 774 346 829 q 205 647 236 719 q 174 486 174 574 q 205 327 174 400 q 291 199 236 254 q 421 113 346 143 q 583 83 496 83 m 583 -264 q 542 -247 560 -264 q 524 -204 524 -231 q 542 -161 524 -178 q 583 -144 560 -144 q 626 -161 608 -144 q 643 -204 643 -178 q 626 -247 643 -231 q 583 -264 608 -264 z "},"Ờ":{"ha":1165,"x_min":72,"x_max":1093,"o":"m 583 -8 q 380 28 474 -8 q 217 133 286 65 q 110 290 149 200 q 72 486 72 379 q 110 683 72 593 q 218 840 149 774 q 381 944 288 907 q 586 981 475 981 q 735 971 672 981 q 861 961 799 961 q 964 988 929 961 q 999 1067 999 1014 q 990 1115 999 1093 q 971 1156 982 1136 l 1036 1181 q 1063 1126 1053 1157 q 1072 1064 1072 1096 q 1017 938 1072 982 q 857 894 961 894 q 780 899 822 894 q 700 908 738 903 l 822 924 q 965 821 904 886 q 1060 670 1026 756 q 1093 486 1093 585 q 1055 289 1093 379 q 948 132 1017 199 q 786 28 879 65 q 583 -8 693 -8 m 583 83 q 745 114 671 83 q 874 199 819 144 q 960 326 929 253 q 990 486 990 400 q 960 646 990 572 q 874 774 929 719 q 745 858 819 828 q 583 889 671 889 q 421 859 496 889 q 291 774 346 829 q 205 647 236 719 q 174 486 174 574 q 205 327 174 400 q 291 199 236 254 q 421 113 346 143 q 583 83 496 83 z "},"Ở":{"ha":1165,"x_min":72,"x_max":1093,"o":"m 583 -8 q 380 28 474 -8 q 217 133 286 65 q 110 290 149 200 q 72 486 72 379 q 110 683 72 593 q 218 840 149 774 q 381 944 288 907 q 586 981 475 981 q 735 971 672 981 q 861 961 799 961 q 964 988 929 961 q 999 1067 999 1014 q 990 1115 999 1093 q 971 1156 982 1136 l 1036 1181 q 1063 1126 1053 1157 q 1072 1064 1072 1096 q 1017 938 1072 982 q 857 894 961 894 q 780 899 822 894 q 700 908 738 903 l 822 924 q 965 821 904 886 q 1060 670 1026 756 q 1093 486 1093 585 q 1055 289 1093 379 q 948 132 1017 199 q 786 28 879 65 q 583 -8 693 -8 m 583 83 q 745 114 671 83 q 874 199 819 144 q 960 326 929 253 q 990 486 990 400 q 960 646 990 572 q 874 774 929 719 q 745 858 819 828 q 583 889 671 889 q 421 859 496 889 q 291 774 346 829 q 205 647 236 719 q 174 486 174 574 q 205 327 174 400 q 291 199 236 254 q 421 113 346 143 q 583 83 496 83 z "},"Ỡ":{"ha":1165,"x_min":72,"x_max":1093,"o":"m 583 -8 q 380 28 474 -8 q 217 133 286 65 q 110 290 149 200 q 72 486 72 379 q 110 683 72 593 q 218 840 149 774 q 381 944 288 907 q 586 981 475 981 q 735 971 672 981 q 861 961 799 961 q 964 988 929 961 q 999 1067 999 1014 q 990 1115 999 1093 q 971 1156 982 1136 l 1036 1181 q 1063 1126 1053 1157 q 1072 1064 1072 1096 q 1017 938 1072 982 q 857 894 961 894 q 780 899 822 894 q 700 908 738 903 l 822 924 q 965 821 904 886 q 1060 670 1026 756 q 1093 486 1093 585 q 1055 289 1093 379 q 948 132 1017 199 q 786 28 879 65 q 583 -8 693 -8 m 583 83 q 745 114 671 83 q 874 199 819 144 q 960 326 929 253 q 990 486 990 400 q 960 646 990 572 q 874 774 929 719 q 745 858 819 828 q 583 889 671 889 q 421 859 496 889 q 291 774 346 829 q 205 647 236 719 q 174 486 174 574 q 205 327 174 400 q 291 199 236 254 q 421 113 346 143 q 583 83 496 83 z "},"Ő":{"ha":1165,"x_min":72,"x_max":1093,"o":"m 583 -8 q 380 28 474 -8 q 217 133 286 65 q 110 290 149 200 q 72 486 72 379 q 110 683 72 593 q 217 840 149 772 q 379 944 286 907 q 583 981 472 981 q 786 944 693 981 q 948 840 879 907 q 1055 683 1017 774 q 1093 486 1093 593 q 1055 289 1093 379 q 948 132 1017 199 q 786 28 879 65 q 583 -8 693 -8 m 583 83 q 745 113 671 83 q 874 198 819 143 q 960 326 929 253 q 990 486 990 399 q 960 647 990 574 q 874 774 929 719 q 745 859 819 829 q 583 889 671 889 q 421 859 496 889 q 291 774 346 829 q 205 647 236 719 q 174 486 174 574 q 205 326 174 400 q 291 198 236 253 q 421 113 346 143 q 583 83 496 83 z "},"Ȏ":{"ha":1165,"x_min":72,"x_max":1093,"o":"m 583 -8 q 380 28 474 -8 q 217 133 286 65 q 110 290 149 200 q 72 486 72 379 q 110 683 72 593 q 217 840 149 772 q 379 944 286 907 q 583 981 472 981 q 786 944 693 981 q 948 840 879 907 q 1055 683 1017 774 q 1093 486 1093 593 q 1055 289 1093 379 q 948 132 1017 199 q 786 28 879 65 q 583 -8 693 -8 m 583 83 q 745 113 671 83 q 874 198 819 143 q 960 326 929 253 q 990 486 990 399 q 960 647 990 574 q 874 774 929 719 q 745 859 819 829 q 583 889 671 889 q 421 859 496 889 q 291 774 346 829 q 205 647 236 719 q 174 486 174 574 q 205 326 174 400 q 291 198 236 253 q 421 113 346 143 q 583 83 496 83 z "},"Ō":{"ha":1165,"x_min":72,"x_max":1093,"o":"m 583 -8 q 380 28 474 -8 q 217 133 286 65 q 110 290 149 200 q 72 486 72 379 q 110 683 72 593 q 217 840 149 772 q 379 944 286 907 q 583 981 472 981 q 786 944 693 981 q 948 840 879 907 q 1055 683 1017 774 q 1093 486 1093 593 q 1055 289 1093 379 q 948 132 1017 199 q 786 28 879 65 q 583 -8 693 -8 m 583 83 q 745 113 671 83 q 874 198 819 143 q 960 326 929 253 q 990 486 990 399 q 960 647 990 574 q 874 774 929 719 q 745 859 819 829 q 583 889 671 889 q 421 859 496 889 q 291 774 346 829 q 205 647 236 719 q 174 486 174 574 q 205 326 174 400 q 291 198 236 253 q 421 113 346 143 q 583 83 496 83 z "},"Ṓ":{"ha":1165,"x_min":72,"x_max":1093,"o":"m 583 -8 q 380 28 474 -8 q 217 133 286 65 q 110 290 149 200 q 72 486 72 379 q 110 683 72 593 q 217 840 149 772 q 379 944 286 907 q 583 981 472 981 q 786 944 693 981 q 948 840 879 907 q 1055 683 1017 774 q 1093 486 1093 593 q 1055 289 1093 379 q 948 132 1017 199 q 786 28 879 65 q 583 -8 693 -8 m 583 83 q 745 113 671 83 q 874 198 819 143 q 960 326 929 253 q 990 486 990 399 q 960 647 990 574 q 874 774 929 719 q 745 859 819 829 q 583 889 671 889 q 421 859 496 889 q 291 774 346 829 q 205 647 236 719 q 174 486 174 574 q 205 326 174 400 q 291 198 236 253 q 421 113 346 143 q 583 83 496 83 z "},"Ṑ":{"ha":1165,"x_min":72,"x_max":1093,"o":"m 583 -8 q 380 28 474 -8 q 217 133 286 65 q 110 290 149 200 q 72 486 72 379 q 110 683 72 593 q 217 840 149 772 q 379 944 286 907 q 583 981 472 981 q 786 944 693 981 q 948 840 879 907 q 1055 683 1017 774 q 1093 486 1093 593 q 1055 289 1093 379 q 948 132 1017 199 q 786 28 879 65 q 583 -8 693 -8 m 583 83 q 745 113 671 83 q 874 198 819 143 q 960 326 929 253 q 990 486 990 399 q 960 647 990 574 q 874 774 929 719 q 745 859 819 829 q 583 889 671 889 q 421 859 496 889 q 291 774 346 829 q 205 647 236 719 q 174 486 174 574 q 205 326 174 400 q 291 198 236 253 q 421 113 346 143 q 583 83 496 83 z "},"Ǫ":{"ha":1165,"x_min":72,"x_max":1093,"o":"m 589 -306 q 477 -269 518 -306 q 436 -174 436 -233 q 453 -103 436 -140 q 513 -29 469 -65 q 631 38 557 7 l 626 -6 q 603 -8 614 -7 q 583 -8 593 -8 q 380 28 472 -8 q 218 132 288 65 q 110 289 149 199 q 72 486 72 379 q 110 683 72 593 q 218 840 149 774 q 380 944 288 907 q 583 981 472 981 q 786 944 693 981 q 948 840 879 907 q 1055 683 1017 774 q 1093 486 1093 593 q 1042 262 1093 361 q 906 98 992 163 q 717 8 821 33 q 610 -33 657 -6 q 535 -94 563 -60 q 508 -167 508 -128 q 534 -225 508 -206 q 599 -244 560 -244 q 644 -237 621 -244 q 683 -218 667 -231 l 707 -272 q 652 -297 682 -287 q 589 -306 622 -306 m 583 83 q 745 113 671 83 q 874 198 819 143 q 960 326 929 253 q 990 486 990 400 q 960 647 990 574 q 874 774 929 719 q 745 859 819 829 q 583 889 671 889 q 421 859 496 889 q 291 774 346 829 q 205 647 236 719 q 174 486 174 574 q 205 326 174 400 q 291 198 236 253 q 421 113 346 143 q 583 83 496 83 z "},"Ø":{"ha":1165,"x_min":72,"x_max":1093,"o":"m 583 -8 q 380 28 474 -8 q 217 133 286 65 q 110 290 149 200 q 72 486 72 379 q 110 683 72 593 q 217 840 149 772 q 379 944 286 907 q 583 981 472 981 q 786 944 693 981 q 948 840 879 907 q 1055 683 1017 774 q 1093 486 1093 593 q 1055 289 1093 379 q 948 132 1017 199 q 786 28 879 65 q 583 -8 693 -8 m 583 83 q 745 113 671 83 q 874 198 819 143 q 960 326 929 253 q 990 486 990 399 q 960 647 990 574 q 874 774 929 719 q 745 859 819 829 q 583 889 671 889 q 421 859 496 889 q 291 774 346 829 q 205 647 236 719 q 174 486 174 574 q 205 326 174 400 q 291 198 236 253 q 421 113 346 143 q 583 83 496 83 m 121 -97 l 964 1069 l 1046 1069 l 204 -97 l 121 -97 z "},"Ǿ":{"ha":1165,"x_min":72,"x_max":1093,"o":"m 583 -8 q 380 28 474 -8 q 217 133 286 65 q 110 290 149 200 q 72 486 72 379 q 110 683 72 593 q 217 840 149 772 q 379 944 286 907 q 583 981 472 981 q 786 944 693 981 q 948 840 879 907 q 1055 683 1017 774 q 1093 486 1093 593 q 1055 289 1093 379 q 948 132 1017 199 q 786 28 879 65 q 583 -8 693 -8 m 583 83 q 745 113 671 83 q 874 198 819 143 q 960 326 929 253 q 990 486 990 399 q 960 647 990 574 q 874 774 929 719 q 745 859 819 829 q 583 889 671 889 q 421 859 496 889 q 291 774 346 829 q 205 647 236 719 q 174 486 174 574 q 205 326 174 400 q 291 198 236 253 q 421 113 346 143 q 583 83 496 83 m 121 -97 l 964 1069 l 1046 1069 l 204 -97 l 121 -97 z "},"Õ":{"ha":1165,"x_min":72,"x_max":1093,"o":"m 583 -8 q 380 28 474 -8 q 217 133 286 65 q 110 290 149 200 q 72 486 72 379 q 110 683 72 593 q 217 840 149 772 q 379 944 286 907 q 583 981 472 981 q 786 944 693 981 q 948 840 879 907 q 1055 683 1017 774 q 1093 486 1093 593 q 1055 289 1093 379 q 948 132 1017 199 q 786 28 879 65 q 583 -8 693 -8 m 583 83 q 745 113 671 83 q 874 198 819 143 q 960 326 929 253 q 990 486 990 399 q 960 647 990 574 q 874 774 929 719 q 745 859 819 829 q 583 889 671 889 q 421 859 496 889 q 291 774 346 829 q 205 647 236 719 q 174 486 174 574 q 205 326 174 400 q 291 198 236 253 q 421 113 346 143 q 583 83 496 83 z "},"Ṍ":{"ha":1165,"x_min":72,"x_max":1093,"o":"m 583 -8 q 380 28 474 -8 q 217 133 286 65 q 110 290 149 200 q 72 486 72 379 q 110 683 72 593 q 217 840 149 772 q 379 944 286 907 q 583 981 472 981 q 786 944 693 981 q 948 840 879 907 q 1055 683 1017 774 q 1093 486 1093 593 q 1055 289 1093 379 q 948 132 1017 199 q 786 28 879 65 q 583 -8 693 -8 m 583 83 q 745 113 671 83 q 874 198 819 143 q 960 326 929 253 q 990 486 990 399 q 960 647 990 574 q 874 774 929 719 q 745 859 819 829 q 583 889 671 889 q 421 859 496 889 q 291 774 346 829 q 205 647 236 719 q 174 486 174 574 q 205 326 174 400 q 291 198 236 253 q 421 113 346 143 q 583 83 496 83 z "},"Ṏ":{"ha":1165,"x_min":72,"x_max":1093,"o":"m 583 -8 q 380 28 474 -8 q 217 133 286 65 q 110 290 149 200 q 72 486 72 379 q 110 683 72 593 q 217 840 149 772 q 379 944 286 907 q 583 981 472 981 q 786 944 693 981 q 948 840 879 907 q 1055 683 1017 774 q 1093 486 1093 593 q 1055 289 1093 379 q 948 132 1017 199 q 786 28 879 65 q 583 -8 693 -8 m 583 83 q 745 113 671 83 q 874 198 819 143 q 960 326 929 253 q 990 486 990 399 q 960 647 990 574 q 874 774 929 719 q 745 859 819 829 q 583 889 671 889 q 421 859 496 889 q 291 774 346 829 q 205 647 236 719 q 174 486 174 574 q 205 326 174 400 q 291 198 236 253 q 421 113 346 143 q 583 83 496 83 z "},"Ȭ":{"ha":1165,"x_min":72,"x_max":1093,"o":"m 583 -8 q 380 28 474 -8 q 217 133 286 65 q 110 290 149 200 q 72 486 72 379 q 110 683 72 593 q 217 840 149 772 q 379 944 286 907 q 583 981 472 981 q 786 944 693 981 q 948 840 879 907 q 1055 683 1017 774 q 1093 486 1093 593 q 1055 289 1093 379 q 948 132 1017 199 q 786 28 879 65 q 583 -8 693 -8 m 583 83 q 745 113 671 83 q 874 198 819 143 q 960 326 929 253 q 990 486 990 399 q 960 647 990 574 q 874 774 929 719 q 745 859 819 829 q 583 889 671 889 q 421 859 496 889 q 291 774 346 829 q 205 647 236 719 q 174 486 174 574 q 205 326 174 400 q 291 198 236 253 q 421 113 346 143 q 583 83 496 83 z "},"Œ":{"ha":1557,"x_min":72,"x_max":1474,"o":"m 593 0 q 320 62 438 0 q 138 233 203 124 q 72 485 72 342 q 138 738 72 628 q 320 910 203 849 q 593 972 438 972 l 813 972 l 813 883 l 597 883 q 374 833 469 883 q 226 692 279 782 q 174 485 174 603 q 226 279 174 368 q 374 140 279 190 q 597 89 469 89 l 813 89 l 813 0 l 593 0 m 878 538 l 1392 538 l 1392 450 l 878 450 l 878 538 m 888 89 l 1474 89 l 1474 0 l 786 0 l 786 972 l 1453 972 l 1453 883 l 888 883 l 888 89 z "},"P":{"ha":997,"x_min":158,"x_max":919,"o":"m 158 0 l 158 972 l 522 972 q 735 933 646 972 q 872 819 824 893 q 919 639 919 744 q 872 462 919 536 q 735 347 824 388 q 522 307 646 307 l 215 307 l 261 356 l 261 0 l 158 0 m 261 347 l 215 397 l 519 397 q 741 460 665 397 q 817 639 817 524 q 741 819 817 756 q 519 883 665 883 l 215 883 l 261 932 l 261 347 z "},"Þ":{"ha":997,"x_min":158,"x_max":919,"o":"m 235 179 l 235 269 l 519 269 q 741 333 665 269 q 817 514 817 397 q 741 693 817 629 q 519 757 665 757 l 235 757 l 235 846 l 522 846 q 735 806 646 846 q 872 692 824 765 q 919 514 919 618 q 872 335 919 410 q 735 219 824 260 q 522 179 646 179 l 235 179 m 158 0 l 158 972 l 261 972 l 261 0 l 158 0 z "},"Q":{"ha":1165,"x_min":72,"x_max":1138,"o":"m 583 -8 q 380 28 474 -8 q 217 133 286 65 q 110 290 149 200 q 72 486 72 379 q 110 683 72 593 q 217 840 149 772 q 379 944 286 907 q 583 981 472 981 q 786 944 693 981 q 948 840 879 907 q 1055 683 1017 774 q 1093 486 1093 593 q 1055 289 1093 379 q 948 132 1017 199 q 786 28 879 65 q 583 -8 693 -8 m 901 -193 q 815 -182 857 -193 q 731 -147 774 -171 q 644 -83 689 -122 q 547 11 600 -44 l 660 39 q 744 -46 703 -12 q 824 -95 785 -79 q 903 -111 864 -111 q 1088 -22 1011 -111 l 1138 -82 q 901 -193 1046 -193 m 583 83 q 745 113 671 83 q 874 199 819 143 q 960 327 929 254 q 990 486 990 400 q 960 647 990 574 q 874 774 929 719 q 745 859 819 829 q 583 889 671 889 q 421 859 496 889 q 291 774 346 829 q 205 647 236 719 q 174 486 174 574 q 205 327 174 400 q 291 199 236 254 q 421 113 346 143 q 583 83 496 83 z "},"R":{"ha":1004,"x_min":158,"x_max":935,"o":"m 158 0 l 158 972 l 522 972 q 735 933 646 972 q 872 819 824 893 q 919 639 919 744 q 872 462 919 536 q 735 348 824 388 q 522 308 646 308 l 215 308 l 261 356 l 261 0 l 158 0 m 822 0 l 572 353 l 683 353 l 935 0 l 822 0 m 261 347 l 215 396 l 519 396 q 741 460 665 396 q 817 639 817 524 q 741 819 817 756 q 519 883 665 883 l 215 883 l 261 932 l 261 347 z "},"Ŕ":{"ha":1004,"x_min":158,"x_max":935,"o":"m 158 0 l 158 972 l 522 972 q 735 933 646 972 q 872 819 824 893 q 919 639 919 744 q 872 462 919 536 q 735 348 824 388 q 522 308 646 308 l 215 308 l 261 356 l 261 0 l 158 0 m 822 0 l 572 353 l 683 353 l 935 0 l 822 0 m 261 347 l 215 396 l 519 396 q 741 460 665 396 q 817 639 817 524 q 741 819 817 756 q 519 883 665 883 l 215 883 l 261 932 l 261 347 z "},"Ř":{"ha":1004,"x_min":158,"x_max":935,"o":"m 158 0 l 158 972 l 522 972 q 735 933 646 972 q 872 819 824 893 q 919 639 919 744 q 872 462 919 536 q 735 348 824 388 q 522 308 646 308 l 215 308 l 261 356 l 261 0 l 158 0 m 822 0 l 572 353 l 683 353 l 935 0 l 822 0 m 261 347 l 215 396 l 519 396 q 741 460 665 396 q 817 639 817 524 q 741 819 817 756 q 519 883 665 883 l 215 883 l 261 932 l 261 347 z "},"Ŗ":{"ha":1004,"x_min":158,"x_max":935,"o":"m 158 0 l 158 972 l 522 972 q 735 933 646 972 q 872 819 824 893 q 919 639 919 744 q 872 462 919 536 q 735 348 824 388 q 522 308 646 308 l 215 308 l 261 356 l 261 0 l 158 0 m 822 0 l 572 353 l 683 353 l 935 0 l 822 0 m 261 347 l 215 396 l 519 396 q 741 460 665 396 q 817 639 817 524 q 741 819 817 756 q 519 883 665 883 l 215 883 l 261 932 l 261 347 m 464 -364 l 503 -214 l 513 -253 q 469 -237 486 -253 q 453 -199 453 -222 q 469 -160 453 -175 q 513 -144 486 -144 q 556 -160 540 -144 q 572 -199 572 -176 q 569 -228 572 -212 q 557 -261 565 -243 l 518 -364 l 464 -364 z "},"Ȑ":{"ha":1004,"x_min":158,"x_max":935,"o":"m 158 0 l 158 972 l 522 972 q 735 933 646 972 q 872 819 824 893 q 919 639 919 744 q 872 462 919 536 q 735 348 824 388 q 522 308 646 308 l 215 308 l 261 356 l 261 0 l 158 0 m 822 0 l 572 353 l 683 353 l 935 0 l 822 0 m 261 347 l 215 396 l 519 396 q 741 460 665 396 q 817 639 817 524 q 741 819 817 756 q 519 883 665 883 l 215 883 l 261 932 l 261 347 z "},"Ṛ":{"ha":1004,"x_min":158,"x_max":935,"o":"m 158 0 l 158 972 l 522 972 q 735 933 646 972 q 872 819 824 893 q 919 639 919 744 q 872 462 919 536 q 735 348 824 388 q 522 308 646 308 l 215 308 l 261 356 l 261 0 l 158 0 m 822 0 l 572 353 l 683 353 l 935 0 l 822 0 m 261 347 l 215 396 l 519 396 q 741 460 665 396 q 817 639 817 524 q 741 819 817 756 q 519 883 665 883 l 215 883 l 261 932 l 261 347 m 513 -264 q 471 -247 489 -264 q 453 -204 453 -231 q 471 -161 453 -178 q 513 -144 489 -144 q 555 -161 538 -144 q 572 -204 572 -178 q 555 -247 572 -231 q 513 -264 538 -264 z "},"Ȓ":{"ha":1004,"x_min":158,"x_max":935,"o":"m 158 0 l 158 972 l 522 972 q 735 933 646 972 q 872 819 824 893 q 919 639 919 744 q 872 462 919 536 q 735 348 824 388 q 522 308 646 308 l 215 308 l 261 356 l 261 0 l 158 0 m 822 0 l 572 353 l 683 353 l 935 0 l 822 0 m 261 347 l 215 396 l 519 396 q 741 460 665 396 q 817 639 817 524 q 741 819 817 756 q 519 883 665 883 l 215 883 l 261 932 l 261 347 z "},"Ṟ":{"ha":1004,"x_min":158,"x_max":935,"o":"m 158 0 l 158 972 l 522 972 q 735 933 646 972 q 872 819 824 893 q 919 639 919 744 q 872 462 919 536 q 735 348 824 388 q 522 308 646 308 l 215 308 l 261 356 l 261 0 l 158 0 m 822 0 l 572 353 l 683 353 l 935 0 l 822 0 m 261 347 l 215 396 l 519 396 q 741 460 665 396 q 817 639 817 524 q 741 819 817 756 q 519 883 665 883 l 215 883 l 261 932 l 261 347 m 299 -235 l 299 -169 l 726 -169 l 726 -235 l 299 -235 z "},"S":{"ha":854,"x_min":65,"x_max":789,"o":"m 426 -8 q 219 27 318 -8 q 65 118 119 63 l 106 197 q 244 113 157 147 q 426 79 331 79 q 576 102 518 79 q 660 164 633 125 q 688 250 688 203 q 655 342 688 307 q 569 397 622 376 q 453 432 517 417 q 325 465 389 447 q 208 511 261 482 q 122 588 154 540 q 89 714 89 636 q 127 847 89 786 q 244 944 165 907 q 447 981 324 981 q 610 958 529 981 q 749 894 690 935 l 714 813 q 581 874 651 854 q 446 893 511 893 q 301 869 358 893 q 217 806 244 846 q 190 717 190 767 q 223 625 190 660 q 309 571 256 590 q 426 536 363 551 q 553 503 490 521 q 670 456 617 485 q 756 381 724 428 q 789 257 789 333 q 750 126 789 186 q 631 28 711 65 q 426 -8 551 -8 z "},"Ś":{"ha":854,"x_min":65,"x_max":789,"o":"m 426 -8 q 219 27 318 -8 q 65 118 119 63 l 106 197 q 244 113 157 147 q 426 79 331 79 q 576 102 518 79 q 660 164 633 125 q 688 250 688 203 q 655 342 688 307 q 569 397 622 376 q 453 432 517 417 q 325 465 389 447 q 208 511 261 482 q 122 588 154 540 q 89 714 89 636 q 127 847 89 786 q 244 944 165 907 q 447 981 324 981 q 610 958 529 981 q 749 894 690 935 l 714 813 q 581 874 651 854 q 446 893 511 893 q 301 869 358 893 q 217 806 244 846 q 190 717 190 767 q 223 625 190 660 q 309 571 256 590 q 426 536 363 551 q 553 503 490 521 q 670 456 617 485 q 756 381 724 428 q 789 257 789 333 q 750 126 789 186 q 631 28 711 65 q 426 -8 551 -8 z "},"Ṥ":{"ha":854,"x_min":65,"x_max":789,"o":"m 426 -8 q 219 27 318 -8 q 65 118 119 63 l 106 197 q 244 113 157 147 q 426 79 331 79 q 576 102 518 79 q 660 164 633 125 q 688 250 688 203 q 655 342 688 307 q 569 397 622 376 q 453 432 517 417 q 325 465 389 447 q 208 511 261 482 q 122 588 154 540 q 89 714 89 636 q 127 847 89 786 q 244 944 165 907 q 447 981 324 981 q 610 958 529 981 q 749 894 690 935 l 714 813 q 581 874 651 854 q 446 893 511 893 q 301 869 358 893 q 217 806 244 846 q 190 717 190 767 q 223 625 190 660 q 309 571 256 590 q 426 536 363 551 q 553 503 490 521 q 670 456 617 485 q 756 381 724 428 q 789 257 789 333 q 750 126 789 186 q 631 28 711 65 q 426 -8 551 -8 z "},"Ꞌ":{"ha":335,"x_min":117,"x_max":218,"o":"m 117 414 l 117 972 l 218 972 l 207 414 l 117 414 z "},"Š":{"ha":854,"x_min":65,"x_max":789,"o":"m 426 -8 q 219 27 318 -8 q 65 118 119 63 l 106 197 q 244 113 157 147 q 426 79 331 79 q 576 102 518 79 q 660 164 633 125 q 688 250 688 203 q 655 342 688 307 q 569 397 622 376 q 453 432 517 417 q 325 465 389 447 q 208 511 261 482 q 122 588 154 540 q 89 714 89 636 q 127 847 89 786 q 244 944 165 907 q 447 981 324 981 q 610 958 529 981 q 749 894 690 935 l 714 813 q 581 874 651 854 q 446 893 511 893 q 301 869 358 893 q 217 806 244 846 q 190 717 190 767 q 223 625 190 660 q 309 571 256 590 q 426 536 363 551 q 553 503 490 521 q 670 456 617 485 q 756 381 724 428 q 789 257 789 333 q 750 126 789 186 q 631 28 711 65 q 426 -8 551 -8 z "},"Ṧ":{"ha":854,"x_min":65,"x_max":789,"o":"m 426 -8 q 219 27 318 -8 q 65 118 119 63 l 106 197 q 244 113 157 147 q 426 79 331 79 q 576 102 518 79 q 660 164 633 125 q 688 250 688 203 q 655 342 688 307 q 569 397 622 376 q 453 432 517 417 q 325 465 389 447 q 208 511 261 482 q 122 588 154 540 q 89 714 89 636 q 127 847 89 786 q 244 944 165 907 q 447 981 324 981 q 610 958 529 981 q 749 894 690 935 l 714 813 q 581 874 651 854 q 446 893 511 893 q 301 869 358 893 q 217 806 244 846 q 190 717 190 767 q 223 625 190 660 q 309 571 256 590 q 426 536 363 551 q 553 503 490 521 q 670 456 617 485 q 756 381 724 428 q 789 257 789 333 q 750 126 789 186 q 631 28 711 65 q 426 -8 551 -8 z "},"Ş":{"ha":854,"x_min":65,"x_max":789,"o":"m 426 -8 q 219 27 318 -8 q 65 118 119 63 l 106 197 q 244 113 157 147 q 426 79 331 79 q 576 102 518 79 q 660 164 633 125 q 688 250 688 203 q 655 342 688 307 q 569 397 622 376 q 453 432 517 417 q 325 465 389 447 q 208 511 261 482 q 122 588 154 540 q 89 714 89 636 q 127 847 89 786 q 244 944 165 907 q 447 981 324 981 q 610 958 529 981 q 749 894 690 935 l 714 813 q 581 874 651 854 q 446 893 511 893 q 301 869 358 893 q 217 806 244 846 q 190 717 190 767 q 223 625 190 660 q 309 571 256 590 q 426 536 363 551 q 553 503 490 521 q 670 456 617 485 q 756 381 724 428 q 789 257 789 333 q 750 126 789 186 q 631 28 711 65 q 426 -8 551 -8 m 415 -306 q 352 -297 381 -306 q 299 -274 324 -289 l 322 -221 q 366 -240 343 -233 q 414 -247 389 -247 q 478 -230 456 -247 q 500 -182 500 -212 q 478 -136 500 -154 q 414 -118 457 -118 l 382 -118 l 415 8 l 475 8 l 454 -72 q 542 -108 511 -76 q 572 -185 572 -139 q 528 -273 572 -240 q 415 -306 485 -306 z "},"Ŝ":{"ha":854,"x_min":65,"x_max":789,"o":"m 426 -8 q 219 27 318 -8 q 65 118 119 63 l 106 197 q 244 113 157 147 q 426 79 331 79 q 576 102 518 79 q 660 164 633 125 q 688 250 688 203 q 655 342 688 307 q 569 397 622 376 q 453 432 517 417 q 325 465 389 447 q 208 511 261 482 q 122 588 154 540 q 89 714 89 636 q 127 847 89 786 q 244 944 165 907 q 447 981 324 981 q 610 958 529 981 q 749 894 690 935 l 714 813 q 581 874 651 854 q 446 893 511 893 q 301 869 358 893 q 217 806 244 846 q 190 717 190 767 q 223 625 190 660 q 309 571 256 590 q 426 536 363 551 q 553 503 490 521 q 670 456 617 485 q 756 381 724 428 q 789 257 789 333 q 750 126 789 186 q 631 28 711 65 q 426 -8 551 -8 z "},"Ș":{"ha":854,"x_min":65,"x_max":789,"o":"m 426 -8 q 219 27 318 -8 q 65 118 119 63 l 106 197 q 244 113 157 147 q 426 79 331 79 q 576 102 518 79 q 660 164 633 125 q 688 250 688 203 q 655 342 688 307 q 569 397 622 376 q 453 432 517 417 q 325 465 389 447 q 208 511 261 482 q 122 588 154 540 q 89 714 89 636 q 127 847 89 786 q 244 944 165 907 q 447 981 324 981 q 610 958 529 981 q 749 894 690 935 l 714 813 q 581 874 651 854 q 446 893 511 893 q 301 869 358 893 q 217 806 244 846 q 190 717 190 767 q 223 625 190 660 q 309 571 256 590 q 426 536 363 551 q 553 503 490 521 q 670 456 617 485 q 756 381 724 428 q 789 257 789 333 q 750 126 789 186 q 631 28 711 65 q 426 -8 551 -8 m 397 -364 l 436 -214 l 446 -253 q 403 -237 419 -253 q 386 -199 386 -222 q 403 -160 386 -175 q 446 -144 419 -144 q 490 -160 474 -144 q 506 -199 506 -176 q 502 -228 506 -212 q 490 -261 499 -243 l 451 -364 l 397 -364 z "},"Ṡ":{"ha":854,"x_min":65,"x_max":789,"o":"m 426 -8 q 219 27 318 -8 q 65 118 119 63 l 106 197 q 244 113 157 147 q 426 79 331 79 q 576 102 518 79 q 660 164 633 125 q 688 250 688 203 q 655 342 688 307 q 569 397 622 376 q 453 432 517 417 q 325 465 389 447 q 208 511 261 482 q 122 588 154 540 q 89 714 89 636 q 127 847 89 786 q 244 944 165 907 q 447 981 324 981 q 610 958 529 981 q 749 894 690 935 l 714 813 q 581 874 651 854 q 446 893 511 893 q 301 869 358 893 q 217 806 244 846 q 190 717 190 767 q 223 625 190 660 q 309 571 256 590 q 426 536 363 551 q 553 503 490 521 q 670 456 617 485 q 756 381 724 428 q 789 257 789 333 q 750 126 789 186 q 631 28 711 65 q 426 -8 551 -8 z "},"Ṣ":{"ha":854,"x_min":65,"x_max":789,"o":"m 426 -8 q 219 27 318 -8 q 65 118 119 63 l 106 197 q 244 113 157 147 q 426 79 331 79 q 576 102 518 79 q 660 164 633 125 q 688 250 688 203 q 655 342 688 307 q 569 397 622 376 q 453 432 517 417 q 325 465 389 447 q 208 511 261 482 q 122 588 154 540 q 89 714 89 636 q 127 847 89 786 q 244 944 165 907 q 447 981 324 981 q 610 958 529 981 q 749 894 690 935 l 714 813 q 581 874 651 854 q 446 893 511 893 q 301 869 358 893 q 217 806 244 846 q 190 717 190 767 q 223 625 190 660 q 309 571 256 590 q 426 536 363 551 q 553 503 490 521 q 670 456 617 485 q 756 381 724 428 q 789 257 789 333 q 750 126 789 186 q 631 28 711 65 q 426 -8 551 -8 m 446 -264 q 404 -247 422 -264 q 386 -204 386 -231 q 404 -161 386 -178 q 446 -144 422 -144 q 488 -161 471 -144 q 506 -204 506 -178 q 488 -247 506 -231 q 446 -264 471 -264 z "},"Ṩ":{"ha":854,"x_min":65,"x_max":789,"o":"m 426 -8 q 219 27 318 -8 q 65 118 119 63 l 106 197 q 244 113 157 147 q 426 79 331 79 q 576 102 518 79 q 660 164 633 125 q 688 250 688 203 q 655 342 688 307 q 569 397 622 376 q 453 432 517 417 q 325 465 389 447 q 208 511 261 482 q 122 588 154 540 q 89 714 89 636 q 127 847 89 786 q 244 944 165 907 q 447 981 324 981 q 610 958 529 981 q 749 894 690 935 l 714 813 q 581 874 651 854 q 446 893 511 893 q 301 869 358 893 q 217 806 244 846 q 190 717 190 767 q 223 625 190 660 q 309 571 256 590 q 426 536 363 551 q 553 503 490 521 q 670 456 617 485 q 756 381 724 428 q 789 257 789 333 q 750 126 789 186 q 631 28 711 65 q 426 -8 551 -8 m 446 -264 q 404 -247 422 -264 q 386 -204 386 -231 q 404 -161 386 -178 q 446 -144 422 -144 q 488 -161 471 -144 q 506 -204 506 -178 q 488 -247 506 -231 q 446 -264 471 -264 z "},"ẞ":{"ha":1050,"x_min":150,"x_max":974,"o":"m 639 -8 q 540 0 586 -8 q 450 28 493 8 l 468 114 q 547 88 504 97 q 638 79 589 79 q 807 130 744 79 q 869 279 869 181 q 806 429 869 379 q 633 479 742 479 q 572 475 603 479 q 515 463 540 471 l 494 515 l 828 878 l 838 808 q 715 873 783 853 q 572 893 647 893 q 334 809 415 893 q 253 567 253 725 l 253 0 l 150 0 l 150 571 q 199 790 150 699 q 342 931 249 882 q 567 981 435 981 q 683 970 625 981 q 792 939 740 960 q 883 885 843 918 l 883 817 l 579 488 l 540 546 q 592 557 564 554 q 649 560 619 560 q 816 527 743 560 q 931 431 889 494 q 974 275 974 368 q 932 120 974 183 q 815 24 890 57 q 639 -8 739 -8 z "},"Ə":{"ha":1135,"x_min":72,"x_max":1063,"o":"m 568 -8 q 370 28 461 -8 q 213 133 279 65 q 109 291 146 200 q 72 490 72 382 l 72 521 l 974 521 l 974 433 l 139 433 l 174 486 q 203 323 174 397 q 284 194 232 249 q 408 110 336 140 q 568 81 481 81 q 723 110 651 81 q 848 193 794 139 q 931 321 901 247 q 960 481 960 394 l 960 490 q 929 649 960 576 q 844 775 899 721 q 715 859 789 829 q 557 889 642 889 q 443 877 499 889 q 338 840 388 865 q 246 776 289 815 l 185 847 q 288 920 231 890 q 415 965 346 950 q 557 981 483 981 q 759 944 667 981 q 919 840 851 907 q 1025 683 988 774 q 1063 488 1063 593 q 1025 292 1063 382 q 920 134 988 201 q 763 29 853 67 q 568 -8 672 -8 z "},"T":{"ha":797,"x_min":6,"x_max":792,"o":"m 347 0 l 347 883 l 6 883 l 6 972 l 792 972 l 792 883 l 450 883 l 450 0 l 347 0 z "},"Ŧ":{"ha":797,"x_min":6,"x_max":792,"o":"m 347 0 l 347 883 l 6 883 l 6 972 l 792 972 l 792 883 l 450 883 l 450 0 l 347 0 m 129 438 l 129 519 l 668 519 l 668 438 l 129 438 z "},"Ť":{"ha":797,"x_min":6,"x_max":792,"o":"m 347 0 l 347 883 l 6 883 l 6 972 l 792 972 l 792 883 l 450 883 l 450 0 l 347 0 z "},"Ţ":{"ha":797,"x_min":6,"x_max":792,"o":"m 347 0 l 347 883 l 6 883 l 6 972 l 792 972 l 792 883 l 450 883 l 450 0 l 347 0 m 368 -306 q 305 -297 333 -306 q 251 -274 276 -289 l 275 -221 q 319 -240 296 -233 q 367 -247 342 -247 q 431 -230 408 -247 q 453 -182 453 -212 q 431 -136 453 -154 q 367 -118 410 -118 l 335 -118 l 368 8 l 428 8 l 407 -72 q 494 -108 464 -76 q 525 -185 525 -139 q 481 -273 525 -240 q 368 -306 438 -306 z "},"Ț":{"ha":797,"x_min":6,"x_max":792,"o":"m 347 0 l 347 883 l 6 883 l 6 972 l 792 972 l 792 883 l 450 883 l 450 0 l 347 0 m 350 -364 l 389 -214 l 399 -253 q 356 -237 372 -253 q 339 -199 339 -222 q 356 -160 339 -175 q 399 -144 372 -144 q 442 -160 426 -144 q 458 -199 458 -176 q 455 -228 458 -212 q 443 -261 451 -243 l 404 -364 l 350 -364 z "},"Ṭ":{"ha":797,"x_min":6,"x_max":792,"o":"m 347 0 l 347 883 l 6 883 l 6 972 l 792 972 l 792 883 l 450 883 l 450 0 l 347 0 m 399 -264 q 357 -247 375 -264 q 339 -204 339 -231 q 357 -161 339 -178 q 399 -144 375 -144 q 441 -161 424 -144 q 458 -204 458 -178 q 441 -247 458 -231 q 399 -264 424 -264 z "},"Ṯ":{"ha":797,"x_min":6,"x_max":792,"o":"m 347 0 l 347 883 l 6 883 l 6 972 l 792 972 l 792 883 l 450 883 l 450 0 l 347 0 m 185 -235 l 185 -169 l 613 -169 l 613 -235 l 185 -235 z "},"U":{"ha":1100,"x_min":150,"x_max":949,"o":"m 550 -8 q 257 99 364 -8 q 150 415 150 206 l 150 972 l 253 972 l 253 419 q 331 165 253 247 q 550 83 408 83 q 771 165 693 83 q 849 419 849 247 l 849 972 l 949 972 l 949 415 q 842 99 949 206 q 550 -8 736 -8 z "},"Ú":{"ha":1100,"x_min":150,"x_max":949,"o":"m 550 -8 q 257 99 364 -8 q 150 415 150 206 l 150 972 l 253 972 l 253 419 q 331 165 253 247 q 550 83 408 83 q 771 165 693 83 q 849 419 849 247 l 849 972 l 949 972 l 949 415 q 842 99 949 206 q 550 -8 736 -8 z "},"Ŭ":{"ha":1100,"x_min":150,"x_max":949,"o":"m 550 -8 q 257 99 364 -8 q 150 415 150 206 l 150 972 l 253 972 l 253 419 q 331 165 253 247 q 550 83 408 83 q 771 165 693 83 q 849 419 849 247 l 849 972 l 949 972 l 949 415 q 842 99 949 206 q 550 -8 736 -8 z "},"Ǔ":{"ha":1100,"x_min":150,"x_max":949,"o":"m 550 -8 q 257 99 364 -8 q 150 415 150 206 l 150 972 l 253 972 l 253 419 q 331 165 253 247 q 550 83 408 83 q 771 165 693 83 q 849 419 849 247 l 849 972 l 949 972 l 949 415 q 842 99 949 206 q 550 -8 736 -8 z "},"Û":{"ha":1100,"x_min":150,"x_max":949,"o":"m 550 -8 q 257 99 364 -8 q 150 415 150 206 l 150 972 l 253 972 l 253 419 q 331 165 253 247 q 550 83 408 83 q 771 165 693 83 q 849 419 849 247 l 849 972 l 949 972 l 949 415 q 842 99 949 206 q 550 -8 736 -8 z "},"Ȕ":{"ha":1100,"x_min":150,"x_max":949,"o":"m 550 -8 q 257 99 364 -8 q 150 415 150 206 l 150 972 l 253 972 l 253 419 q 331 165 253 247 q 550 83 408 83 q 771 165 693 83 q 849 419 849 247 l 849 972 l 949 972 l 949 415 q 842 99 949 206 q 550 -8 736 -8 z "},"Ü":{"ha":1100,"x_min":150,"x_max":949,"o":"m 550 -8 q 257 99 364 -8 q 150 415 150 206 l 150 972 l 253 972 l 253 419 q 331 165 253 247 q 550 83 408 83 q 771 165 693 83 q 849 419 849 247 l 849 972 l 949 972 l 949 415 q 842 99 949 206 q 550 -8 736 -8 z "},"Ụ":{"ha":1100,"x_min":150,"x_max":949,"o":"m 550 -8 q 257 99 364 -8 q 150 415 150 206 l 150 972 l 253 972 l 253 419 q 331 165 253 247 q 550 83 408 83 q 771 165 693 83 q 849 419 849 247 l 849 972 l 949 972 l 949 415 q 842 99 949 206 q 550 -8 736 -8 m 550 -264 q 508 -247 526 -264 q 490 -204 490 -231 q 508 -161 490 -178 q 550 -144 526 -144 q 592 -161 575 -144 q 610 -204 610 -178 q 592 -247 610 -231 q 550 -264 575 -264 z "},"Ù":{"ha":1100,"x_min":150,"x_max":949,"o":"m 550 -8 q 257 99 364 -8 q 150 415 150 206 l 150 972 l 253 972 l 253 419 q 331 165 253 247 q 550 83 408 83 q 771 165 693 83 q 849 419 849 247 l 849 972 l 949 972 l 949 415 q 842 99 949 206 q 550 -8 736 -8 z "},"Ủ":{"ha":1100,"x_min":150,"x_max":949,"o":"m 550 -8 q 257 99 364 -8 q 150 415 150 206 l 150 972 l 253 972 l 253 419 q 331 165 253 247 q 550 83 408 83 q 771 165 693 83 q 849 419 849 247 l 849 972 l 949 972 l 949 415 q 842 99 949 206 q 550 -8 736 -8 z "},"Ư":{"ha":1107,"x_min":150,"x_max":1088,"o":"m 550 -8 q 257 99 364 -8 q 150 415 150 206 l 150 972 l 253 972 l 253 419 q 331 165 253 247 q 550 83 408 83 q 771 165 693 83 q 849 419 849 247 l 849 972 l 949 972 l 949 415 q 842 99 949 206 q 550 -8 736 -8 m 901 897 l 901 972 l 922 972 q 992 1000 971 972 q 1014 1067 1014 1028 q 1006 1115 1014 1093 q 986 1156 999 1138 l 1051 1181 q 1078 1127 1068 1157 q 1088 1064 1088 1097 q 1046 944 1088 990 q 922 897 1004 897 l 901 897 z "},"Ứ":{"ha":1107,"x_min":150,"x_max":1088,"o":"m 550 -8 q 257 99 364 -8 q 150 415 150 206 l 150 972 l 253 972 l 253 419 q 331 165 253 247 q 550 83 408 83 q 771 165 693 83 q 849 419 849 247 l 849 972 l 949 972 l 949 415 q 842 99 949 206 q 550 -8 736 -8 m 901 897 l 901 972 l 922 972 q 992 1000 971 972 q 1014 1067 1014 1028 q 1006 1115 1014 1093 q 986 1156 999 1138 l 1051 1181 q 1078 1127 1068 1157 q 1088 1064 1088 1097 q 1046 944 1088 990 q 922 897 1004 897 l 901 897 z "},"Ự":{"ha":1107,"x_min":150,"x_max":1088,"o":"m 550 -8 q 257 99 364 -8 q 150 415 150 206 l 150 972 l 253 972 l 253 419 q 331 165 253 247 q 550 83 408 83 q 771 165 693 83 q 849 419 849 247 l 849 972 l 949 972 l 949 415 q 842 99 949 206 q 550 -8 736 -8 m 901 897 l 901 972 l 922 972 q 992 1000 971 972 q 1014 1067 1014 1028 q 1006 1115 1014 1093 q 986 1156 999 1138 l 1051 1181 q 1078 1127 1068 1157 q 1088 1064 1088 1097 q 1046 944 1088 990 q 922 897 1004 897 l 901 897 m 550 -264 q 508 -247 526 -264 q 490 -204 490 -231 q 508 -161 490 -178 q 550 -144 526 -144 q 592 -161 575 -144 q 610 -204 610 -178 q 592 -247 610 -231 q 550 -264 575 -264 z "},"Ừ":{"ha":1107,"x_min":150,"x_max":1088,"o":"m 550 -8 q 257 99 364 -8 q 150 415 150 206 l 150 972 l 253 972 l 253 419 q 331 165 253 247 q 550 83 408 83 q 771 165 693 83 q 849 419 849 247 l 849 972 l 949 972 l 949 415 q 842 99 949 206 q 550 -8 736 -8 m 901 897 l 901 972 l 922 972 q 992 1000 971 972 q 1014 1067 1014 1028 q 1006 1115 1014 1093 q 986 1156 999 1138 l 1051 1181 q 1078 1127 1068 1157 q 1088 1064 1088 1097 q 1046 944 1088 990 q 922 897 1004 897 l 901 897 z "},"Ử":{"ha":1107,"x_min":150,"x_max":1088,"o":"m 550 -8 q 257 99 364 -8 q 150 415 150 206 l 150 972 l 253 972 l 253 419 q 331 165 253 247 q 550 83 408 83 q 771 165 693 83 q 849 419 849 247 l 849 972 l 949 972 l 949 415 q 842 99 949 206 q 550 -8 736 -8 m 901 897 l 901 972 l 922 972 q 992 1000 971 972 q 1014 1067 1014 1028 q 1006 1115 1014 1093 q 986 1156 999 1138 l 1051 1181 q 1078 1127 1068 1157 q 1088 1064 1088 1097 q 1046 944 1088 990 q 922 897 1004 897 l 901 897 z "},"Ữ":{"ha":1107,"x_min":150,"x_max":1088,"o":"m 550 -8 q 257 99 364 -8 q 150 415 150 206 l 150 972 l 253 972 l 253 419 q 331 165 253 247 q 550 83 408 83 q 771 165 693 83 q 849 419 849 247 l 849 972 l 949 972 l 949 415 q 842 99 949 206 q 550 -8 736 -8 m 901 897 l 901 972 l 922 972 q 992 1000 971 972 q 1014 1067 1014 1028 q 1006 1115 1014 1093 q 986 1156 999 1138 l 1051 1181 q 1078 1127 1068 1157 q 1088 1064 1088 1097 q 1046 944 1088 990 q 922 897 1004 897 l 901 897 z "},"Ű":{"ha":1100,"x_min":150,"x_max":949,"o":"m 550 -8 q 257 99 364 -8 q 150 415 150 206 l 150 972 l 253 972 l 253 419 q 331 165 253 247 q 550 83 408 83 q 771 165 693 83 q 849 419 849 247 l 849 972 l 949 972 l 949 415 q 842 99 949 206 q 550 -8 736 -8 z "},"Ȗ":{"ha":1100,"x_min":150,"x_max":949,"o":"m 550 -8 q 257 99 364 -8 q 150 415 150 206 l 150 972 l 253 972 l 253 419 q 331 165 253 247 q 550 83 408 83 q 771 165 693 83 q 849 419 849 247 l 849 972 l 949 972 l 949 415 q 842 99 949 206 q 550 -8 736 -8 z "},"Ū":{"ha":1100,"x_min":150,"x_max":949,"o":"m 550 -8 q 257 99 364 -8 q 150 415 150 206 l 150 972 l 253 972 l 253 419 q 331 165 253 247 q 550 83 408 83 q 771 165 693 83 q 849 419 849 247 l 849 972 l 949 972 l 949 415 q 842 99 949 206 q 550 -8 736 -8 z "},"Ṻ":{"ha":1100,"x_min":150,"x_max":949,"o":"m 550 -8 q 257 99 364 -8 q 150 415 150 206 l 150 972 l 253 972 l 253 419 q 331 165 253 247 q 550 83 408 83 q 771 165 693 83 q 849 419 849 247 l 849 972 l 949 972 l 949 415 q 842 99 949 206 q 550 -8 736 -8 z "},"Ų":{"ha":1100,"x_min":150,"x_max":949,"o":"m 849 972 l 949 972 l 949 415 q 882 149 949 246 q 700 11 815 51 q 569 -50 614 -18 q 510 -112 525 -82 q 494 -167 494 -142 q 520 -225 494 -206 q 585 -244 546 -244 q 630 -237 607 -244 q 669 -218 653 -231 l 692 -272 q 638 -297 668 -287 q 574 -306 607 -306 q 463 -269 504 -306 q 421 -174 421 -233 q 438 -103 421 -140 q 498 -31 456 -67 q 617 36 540 6 l 607 -6 q 578 -8 593 -7 q 550 -8 564 -8 q 257 99 364 -8 q 150 415 150 206 l 150 972 l 253 972 l 253 419 q 331 165 253 247 q 550 83 408 83 q 771 165 693 83 q 849 419 849 247 l 849 972 z "},"Ů":{"ha":1100,"x_min":150,"x_max":949,"o":"m 550 -8 q 257 99 364 -8 q 150 415 150 206 l 150 972 l 253 972 l 253 419 q 331 165 253 247 q 550 83 408 83 q 771 165 693 83 q 849 419 849 247 l 849 972 l 949 972 l 949 415 q 842 99 949 206 q 550 -8 736 -8 m 549 1069 q 474 1089 507 1069 q 423 1140 442 1108 q 404 1211 404 1172 q 424 1283 404 1250 q 476 1337 443 1317 q 549 1357 508 1357 q 623 1337 590 1357 q 675 1283 656 1317 q 694 1211 694 1250 q 675 1140 694 1172 q 623 1089 656 1108 q 549 1069 590 1069 m 549 1118 q 617 1145 590 1118 q 643 1211 643 1172 q 617 1280 643 1251 q 549 1308 590 1308 q 482 1281 508 1308 q 456 1211 456 1253 q 481 1144 456 1171 q 549 1118 507 1118 z "},"Ũ":{"ha":1100,"x_min":150,"x_max":949,"o":"m 550 -8 q 257 99 364 -8 q 150 415 150 206 l 150 972 l 253 972 l 253 419 q 331 165 253 247 q 550 83 408 83 q 771 165 693 83 q 849 419 849 247 l 849 972 l 949 972 l 949 415 q 842 99 949 206 q 550 -8 736 -8 z "},"Ṹ":{"ha":1100,"x_min":150,"x_max":949,"o":"m 550 -8 q 257 99 364 -8 q 150 415 150 206 l 150 972 l 253 972 l 253 419 q 331 165 253 247 q 550 83 408 83 q 771 165 693 83 q 849 419 849 247 l 849 972 l 949 972 l 949 415 q 842 99 949 206 q 550 -8 736 -8 z "},"V":{"ha":969,"x_min":4,"x_max":967,"o":"m 435 0 l 4 972 l 115 972 l 518 57 l 457 57 l 863 972 l 967 972 l 536 0 l 435 0 z "},"W":{"ha":1543,"x_min":51,"x_max":1493,"o":"m 379 0 l 51 972 l 157 972 l 464 57 l 411 57 l 728 972 l 822 972 l 1135 57 l 1085 57 l 1394 972 l 1493 972 l 1165 0 l 1057 0 l 758 868 l 786 868 l 486 0 l 379 0 z "},"Ẃ":{"ha":1543,"x_min":51,"x_max":1493,"o":"m 379 0 l 51 972 l 157 972 l 464 57 l 411 57 l 728 972 l 822 972 l 1135 57 l 1085 57 l 1394 972 l 1493 972 l 1165 0 l 1057 0 l 758 868 l 786 868 l 486 0 l 379 0 z "},"Ŵ":{"ha":1543,"x_min":51,"x_max":1493,"o":"m 379 0 l 51 972 l 157 972 l 464 57 l 411 57 l 728 972 l 822 972 l 1135 57 l 1085 57 l 1394 972 l 1493 972 l 1165 0 l 1057 0 l 758 868 l 786 868 l 486 0 l 379 0 z "},"Ẅ":{"ha":1543,"x_min":51,"x_max":1493,"o":"m 379 0 l 51 972 l 157 972 l 464 57 l 411 57 l 728 972 l 822 972 l 1135 57 l 1085 57 l 1394 972 l 1493 972 l 1165 0 l 1057 0 l 758 868 l 786 868 l 486 0 l 379 0 z "},"Ẁ":{"ha":1543,"x_min":51,"x_max":1493,"o":"m 379 0 l 51 972 l 157 972 l 464 57 l 411 57 l 728 972 l 822 972 l 1135 57 l 1085 57 l 1394 972 l 1493 972 l 1165 0 l 1057 0 l 758 868 l 786 868 l 486 0 l 379 0 z "},"X":{"ha":911,"x_min":24,"x_max":888,"o":"m 24 0 l 422 539 l 422 460 l 47 972 l 165 972 l 481 544 l 435 543 l 750 972 l 861 972 l 490 467 l 490 539 l 888 0 l 768 0 l 432 457 l 475 457 l 142 0 l 24 0 z "},"Y":{"ha":882,"x_min":1,"x_max":881,"o":"m 390 0 l 390 361 l 414 297 l 1 972 l 111 972 l 474 379 l 415 379 l 778 972 l 881 972 l 468 297 l 492 361 l 492 0 l 390 0 z "},"Ý":{"ha":882,"x_min":1,"x_max":881,"o":"m 390 0 l 390 361 l 414 297 l 1 972 l 111 972 l 474 379 l 415 379 l 778 972 l 881 972 l 468 297 l 492 361 l 492 0 l 390 0 z "},"Ŷ":{"ha":882,"x_min":1,"x_max":881,"o":"m 390 0 l 390 361 l 414 297 l 1 972 l 111 972 l 474 379 l 415 379 l 778 972 l 881 972 l 468 297 l 492 361 l 492 0 l 390 0 z "},"Ÿ":{"ha":882,"x_min":1,"x_max":881,"o":"m 390 0 l 390 361 l 414 297 l 1 972 l 111 972 l 474 379 l 415 379 l 778 972 l 881 972 l 468 297 l 492 361 l 492 0 l 390 0 z "},"Ẏ":{"ha":882,"x_min":1,"x_max":881,"o":"m 390 0 l 390 361 l 414 297 l 1 972 l 111 972 l 474 379 l 415 379 l 778 972 l 881 972 l 468 297 l 492 361 l 492 0 l 390 0 z "},"Ỵ":{"ha":882,"x_min":1,"x_max":881,"o":"m 390 0 l 390 361 l 414 297 l 1 972 l 111 972 l 474 379 l 415 379 l 778 972 l 881 972 l 468 297 l 492 361 l 492 0 l 390 0 m 440 -264 q 399 -247 417 -264 q 381 -204 381 -231 q 399 -161 381 -178 q 440 -144 417 -144 q 483 -161 465 -144 q 500 -204 500 -178 q 483 -247 500 -231 q 440 -264 465 -264 z "},"Ỳ":{"ha":882,"x_min":1,"x_max":881,"o":"m 390 0 l 390 361 l 414 297 l 1 972 l 111 972 l 474 379 l 415 379 l 778 972 l 881 972 l 468 297 l 492 361 l 492 0 l 390 0 z "},"Ỷ":{"ha":882,"x_min":1,"x_max":881,"o":"m 390 0 l 390 361 l 414 297 l 1 972 l 111 972 l 474 379 l 415 379 l 778 972 l 881 972 l 468 297 l 492 361 l 492 0 l 390 0 z "},"Ȳ":{"ha":882,"x_min":1,"x_max":881,"o":"m 390 0 l 390 361 l 414 297 l 1 972 l 111 972 l 474 379 l 415 379 l 778 972 l 881 972 l 468 297 l 492 361 l 492 0 l 390 0 z "},"Ỹ":{"ha":882,"x_min":1,"x_max":881,"o":"m 390 0 l 390 361 l 414 297 l 1 972 l 111 972 l 474 379 l 415 379 l 778 972 l 881 972 l 468 297 l 492 361 l 492 0 l 390 0 z "},"Z":{"ha":904,"x_min":63,"x_max":860,"o":"m 63 0 l 63 71 l 738 922 l 749 883 l 72 883 l 72 972 l 843 972 l 843 901 l 169 50 l 157 89 l 860 89 l 860 0 l 63 0 z "},"Ź":{"ha":904,"x_min":63,"x_max":860,"o":"m 63 0 l 63 71 l 738 922 l 749 883 l 72 883 l 72 972 l 843 972 l 843 901 l 169 50 l 157 89 l 860 89 l 860 0 l 63 0 z "},"Ž":{"ha":904,"x_min":63,"x_max":860,"o":"m 63 0 l 63 71 l 738 922 l 749 883 l 72 883 l 72 972 l 843 972 l 843 901 l 169 50 l 157 89 l 860 89 l 860 0 l 63 0 z "},"Ż":{"ha":904,"x_min":63,"x_max":860,"o":"m 63 0 l 63 71 l 738 922 l 749 883 l 72 883 l 72 972 l 843 972 l 843 901 l 169 50 l 157 89 l 860 89 l 860 0 l 63 0 z "},"Ẓ":{"ha":904,"x_min":63,"x_max":860,"o":"m 63 0 l 63 71 l 738 922 l 749 883 l 72 883 l 72 972 l 843 972 l 843 901 l 169 50 l 157 89 l 860 89 l 860 0 l 63 0 m 472 -264 q 431 -247 449 -264 q 413 -204 413 -231 q 431 -161 413 -178 q 472 -144 449 -144 q 515 -161 497 -144 q 532 -204 532 -178 q 515 -247 532 -231 q 472 -264 497 -264 z "},"a":{"ha":819,"x_min":76,"x_max":689,"o":"m 594 0 l 594 161 l 590 188 l 590 457 q 538 600 590 550 q 383 650 486 650 q 249 626 313 650 q 140 564 185 603 l 96 638 q 229 710 151 685 q 393 736 307 736 q 612 666 535 736 q 689 453 689 596 l 689 0 l 594 0 m 343 -7 q 201 20 261 -7 q 108 95 140 47 q 76 206 76 143 q 103 309 76 263 q 192 384 131 356 q 358 413 254 413 l 610 413 l 610 339 l 361 339 q 215 301 256 339 q 174 208 174 264 q 222 108 174 146 q 358 71 271 71 q 502 109 442 71 q 590 219 563 147 l 613 151 q 516 36 585 79 q 343 -7 447 -7 z "},"á":{"ha":819,"x_min":76,"x_max":689,"o":"m 594 0 l 594 161 l 590 188 l 590 457 q 538 600 590 550 q 383 650 486 650 q 249 626 313 650 q 140 564 185 603 l 96 638 q 229 710 151 685 q 393 736 307 736 q 612 666 535 736 q 689 453 689 596 l 689 0 l 594 0 m 343 -7 q 201 20 261 -7 q 108 95 140 47 q 76 206 76 143 q 103 309 76 263 q 192 384 131 356 q 358 413 254 413 l 610 413 l 610 339 l 361 339 q 215 301 256 339 q 174 208 174 264 q 222 108 174 146 q 358 71 271 71 q 502 109 442 71 q 590 219 563 147 l 613 151 q 516 36 585 79 q 343 -7 447 -7 m 306 843 l 496 1015 l 628 1015 l 403 843 l 306 843 z "},"ă":{"ha":819,"x_min":76,"x_max":689,"o":"m 594 0 l 594 161 l 590 188 l 590 457 q 538 600 590 550 q 383 650 486 650 q 249 626 313 650 q 140 564 185 603 l 96 638 q 229 710 151 685 q 393 736 307 736 q 612 666 535 736 q 689 453 689 596 l 689 0 l 594 0 m 343 -7 q 201 20 261 -7 q 108 95 140 47 q 76 206 76 143 q 103 309 76 263 q 192 384 131 356 q 358 413 254 413 l 610 413 l 610 339 l 361 339 q 215 301 256 339 q 174 208 174 264 q 222 108 174 146 q 358 71 271 71 q 502 109 442 71 q 590 219 563 147 l 613 151 q 516 36 585 79 q 343 -7 447 -7 m 396 836 q 248 884 308 836 q 185 1015 188 932 l 254 1015 q 298 929 257 961 q 396 897 339 897 q 495 929 454 897 q 538 1015 536 961 l 607 1015 q 544 884 604 932 q 396 836 483 836 z "},"ắ":{"ha":819,"x_min":76,"x_max":689,"o":"m 594 0 l 594 161 l 590 188 l 590 457 q 538 600 590 550 q 383 650 486 650 q 249 626 313 650 q 140 564 185 603 l 96 638 q 229 710 151 685 q 393 736 307 736 q 612 666 535 736 q 689 453 689 596 l 689 0 l 594 0 m 343 -7 q 201 20 261 -7 q 108 95 140 47 q 76 206 76 143 q 103 309 76 263 q 192 384 131 356 q 358 413 254 413 l 610 413 l 610 339 l 361 339 q 215 301 256 339 q 174 208 174 264 q 222 108 174 146 q 358 71 271 71 q 502 109 442 71 q 590 219 563 147 l 613 151 q 516 36 585 79 q 343 -7 447 -7 z "},"ặ":{"ha":819,"x_min":76,"x_max":689,"o":"m 594 0 l 594 161 l 590 188 l 590 457 q 538 600 590 550 q 383 650 486 650 q 249 626 313 650 q 140 564 185 603 l 96 638 q 229 710 151 685 q 393 736 307 736 q 612 666 535 736 q 689 453 689 596 l 689 0 l 594 0 m 343 -7 q 201 20 261 -7 q 108 95 140 47 q 76 206 76 143 q 103 309 76 263 q 192 384 131 356 q 358 413 254 413 l 610 413 l 610 339 l 361 339 q 215 301 256 339 q 174 208 174 264 q 222 108 174 146 q 358 71 271 71 q 502 109 442 71 q 590 219 563 147 l 613 151 q 516 36 585 79 q 343 -7 447 -7 m 399 -264 q 357 -247 375 -264 q 339 -204 339 -231 q 357 -161 339 -178 q 399 -144 375 -144 q 441 -161 424 -144 q 458 -204 458 -178 q 441 -247 458 -231 q 399 -264 424 -264 m 396 836 q 248 884 308 836 q 185 1015 188 932 l 254 1015 q 298 929 257 961 q 396 897 339 897 q 495 929 454 897 q 538 1015 536 961 l 607 1015 q 544 884 604 932 q 396 836 483 836 z "},"ằ":{"ha":819,"x_min":76,"x_max":689,"o":"m 594 0 l 594 161 l 590 188 l 590 457 q 538 600 590 550 q 383 650 486 650 q 249 626 313 650 q 140 564 185 603 l 96 638 q 229 710 151 685 q 393 736 307 736 q 612 666 535 736 q 689 453 689 596 l 689 0 l 594 0 m 343 -7 q 201 20 261 -7 q 108 95 140 47 q 76 206 76 143 q 103 309 76 263 q 192 384 131 356 q 358 413 254 413 l 610 413 l 610 339 l 361 339 q 215 301 256 339 q 174 208 174 264 q 222 108 174 146 q 358 71 271 71 q 502 109 442 71 q 590 219 563 147 l 613 151 q 516 36 585 79 q 343 -7 447 -7 z "},"ẳ":{"ha":819,"x_min":76,"x_max":689,"o":"m 594 0 l 594 161 l 590 188 l 590 457 q 538 600 590 550 q 383 650 486 650 q 249 626 313 650 q 140 564 185 603 l 96 638 q 229 710 151 685 q 393 736 307 736 q 612 666 535 736 q 689 453 689 596 l 689 0 l 594 0 m 343 -7 q 201 20 261 -7 q 108 95 140 47 q 76 206 76 143 q 103 309 76 263 q 192 384 131 356 q 358 413 254 413 l 610 413 l 610 339 l 361 339 q 215 301 256 339 q 174 208 174 264 q 222 108 174 146 q 358 71 271 71 q 502 109 442 71 q 590 219 563 147 l 613 151 q 516 36 585 79 q 343 -7 447 -7 z "},"ẵ":{"ha":819,"x_min":76,"x_max":689,"o":"m 594 0 l 594 161 l 590 188 l 590 457 q 538 600 590 550 q 383 650 486 650 q 249 626 313 650 q 140 564 185 603 l 96 638 q 229 710 151 685 q 393 736 307 736 q 612 666 535 736 q 689 453 689 596 l 689 0 l 594 0 m 343 -7 q 201 20 261 -7 q 108 95 140 47 q 76 206 76 143 q 103 309 76 263 q 192 384 131 356 q 358 413 254 413 l 610 413 l 610 339 l 361 339 q 215 301 256 339 q 174 208 174 264 q 222 108 174 146 q 358 71 271 71 q 502 109 442 71 q 590 219 563 147 l 613 151 q 516 36 585 79 q 343 -7 447 -7 z "},"ǎ":{"ha":819,"x_min":76,"x_max":689,"o":"m 594 0 l 594 161 l 590 188 l 590 457 q 538 600 590 550 q 383 650 486 650 q 249 626 313 650 q 140 564 185 603 l 96 638 q 229 710 151 685 q 393 736 307 736 q 612 666 535 736 q 689 453 689 596 l 689 0 l 594 0 m 343 -7 q 201 20 261 -7 q 108 95 140 47 q 76 206 76 143 q 103 309 76 263 q 192 384 131 356 q 358 413 254 413 l 610 413 l 610 339 l 361 339 q 215 301 256 339 q 174 208 174 264 q 222 108 174 146 q 358 71 271 71 q 502 109 442 71 q 590 219 563 147 l 613 151 q 516 36 585 79 q 343 -7 447 -7 m 346 843 l 167 1015 l 258 1015 l 435 869 l 357 869 l 533 1015 l 625 1015 l 446 843 l 346 843 z "},"â":{"ha":819,"x_min":76,"x_max":689,"o":"m 594 0 l 594 161 l 590 188 l 590 457 q 538 600 590 550 q 383 650 486 650 q 249 626 313 650 q 140 564 185 603 l 96 638 q 229 710 151 685 q 393 736 307 736 q 612 666 535 736 q 689 453 689 596 l 689 0 l 594 0 m 343 -7 q 201 20 261 -7 q 108 95 140 47 q 76 206 76 143 q 103 309 76 263 q 192 384 131 356 q 358 413 254 413 l 610 413 l 610 339 l 361 339 q 215 301 256 339 q 174 208 174 264 q 222 108 174 146 q 358 71 271 71 q 502 109 442 71 q 590 219 563 147 l 613 151 q 516 36 585 79 q 343 -7 447 -7 m 167 843 l 346 1015 l 446 1015 l 625 843 l 533 843 l 357 990 l 435 990 l 258 843 l 167 843 z "},"ấ":{"ha":819,"x_min":76,"x_max":811,"o":"m 594 0 l 594 161 l 590 188 l 590 457 q 538 600 590 550 q 383 650 486 650 q 249 626 313 650 q 140 564 185 603 l 96 638 q 229 710 151 685 q 393 736 307 736 q 612 666 535 736 q 689 453 689 596 l 689 0 l 594 0 m 343 -7 q 201 20 261 -7 q 108 95 140 47 q 76 206 76 143 q 103 309 76 263 q 192 384 131 356 q 358 413 254 413 l 610 413 l 610 339 l 361 339 q 215 301 256 339 q 174 208 174 264 q 222 108 174 146 q 358 71 271 71 q 502 109 442 71 q 590 219 563 147 l 613 151 q 516 36 585 79 q 343 -7 447 -7 z "},"ậ":{"ha":819,"x_min":76,"x_max":689,"o":"m 594 0 l 594 161 l 590 188 l 590 457 q 538 600 590 550 q 383 650 486 650 q 249 626 313 650 q 140 564 185 603 l 96 638 q 229 710 151 685 q 393 736 307 736 q 612 666 535 736 q 689 453 689 596 l 689 0 l 594 0 m 343 -7 q 201 20 261 -7 q 108 95 140 47 q 76 206 76 143 q 103 309 76 263 q 192 384 131 356 q 358 413 254 413 l 610 413 l 610 339 l 361 339 q 215 301 256 339 q 174 208 174 264 q 222 108 174 146 q 358 71 271 71 q 502 109 442 71 q 590 219 563 147 l 613 151 q 516 36 585 79 q 343 -7 447 -7 m 399 -264 q 357 -247 375 -264 q 339 -204 339 -231 q 357 -161 339 -178 q 399 -144 375 -144 q 441 -161 424 -144 q 458 -204 458 -178 q 441 -247 458 -231 q 399 -264 424 -264 m 167 843 l 346 1015 l 446 1015 l 625 843 l 533 843 l 357 990 l 435 990 l 258 843 l 167 843 z "},"ầ":{"ha":819,"x_min":76,"x_max":693,"o":"m 594 0 l 594 161 l 590 188 l 590 457 q 538 600 590 550 q 383 650 486 650 q 249 626 313 650 q 140 564 185 603 l 96 638 q 229 710 151 685 q 393 736 307 736 q 612 666 535 736 q 689 453 689 596 l 689 0 l 594 0 m 343 -7 q 201 20 261 -7 q 108 95 140 47 q 76 206 76 143 q 103 309 76 263 q 192 384 131 356 q 358 413 254 413 l 610 413 l 610 339 l 361 339 q 215 301 256 339 q 174 208 174 264 q 222 108 174 146 q 358 71 271 71 q 502 109 442 71 q 590 219 563 147 l 613 151 q 516 36 585 79 q 343 -7 447 -7 z "},"ẩ":{"ha":819,"x_min":76,"x_max":689,"o":"m 594 0 l 594 161 l 590 188 l 590 457 q 538 600 590 550 q 383 650 486 650 q 249 626 313 650 q 140 564 185 603 l 96 638 q 229 710 151 685 q 393 736 307 736 q 612 666 535 736 q 689 453 689 596 l 689 0 l 594 0 m 343 -7 q 201 20 261 -7 q 108 95 140 47 q 76 206 76 143 q 103 309 76 263 q 192 384 131 356 q 358 413 254 413 l 610 413 l 610 339 l 361 339 q 215 301 256 339 q 174 208 174 264 q 222 108 174 146 q 358 71 271 71 q 502 109 442 71 q 590 219 563 147 l 613 151 q 516 36 585 79 q 343 -7 447 -7 z "},"ẫ":{"ha":819,"x_min":76,"x_max":689,"o":"m 594 0 l 594 161 l 590 188 l 590 457 q 538 600 590 550 q 383 650 486 650 q 249 626 313 650 q 140 564 185 603 l 96 638 q 229 710 151 685 q 393 736 307 736 q 612 666 535 736 q 689 453 689 596 l 689 0 l 594 0 m 343 -7 q 201 20 261 -7 q 108 95 140 47 q 76 206 76 143 q 103 309 76 263 q 192 384 131 356 q 358 413 254 413 l 610 413 l 610 339 l 361 339 q 215 301 256 339 q 174 208 174 264 q 222 108 174 146 q 358 71 271 71 q 502 109 442 71 q 590 219 563 147 l 613 151 q 516 36 585 79 q 343 -7 447 -7 z "},"ȁ":{"ha":819,"x_min":76,"x_max":689,"o":"m 594 0 l 594 161 l 590 188 l 590 457 q 538 600 590 550 q 383 650 486 650 q 249 626 313 650 q 140 564 185 603 l 96 638 q 229 710 151 685 q 393 736 307 736 q 612 666 535 736 q 689 453 689 596 l 689 0 l 594 0 m 343 -7 q 201 20 261 -7 q 108 95 140 47 q 76 206 76 143 q 103 309 76 263 q 192 384 131 356 q 358 413 254 413 l 610 413 l 610 339 l 361 339 q 215 301 256 339 q 174 208 174 264 q 222 108 174 146 q 358 71 271 71 q 502 109 442 71 q 590 219 563 147 l 613 151 q 516 36 585 79 q 343 -7 447 -7 m 465 843 l 308 1015 l 418 1015 l 553 843 l 465 843 m 239 843 l 83 1015 l 193 1015 l 326 843 l 239 843 z "},"ä":{"ha":819,"x_min":76,"x_max":689,"o":"m 594 0 l 594 161 l 590 188 l 590 457 q 538 600 590 550 q 383 650 486 650 q 249 626 313 650 q 140 564 185 603 l 96 638 q 229 710 151 685 q 393 736 307 736 q 612 666 535 736 q 689 453 689 596 l 689 0 l 594 0 m 343 -7 q 201 20 261 -7 q 108 95 140 47 q 76 206 76 143 q 103 309 76 263 q 192 384 131 356 q 358 413 254 413 l 610 413 l 610 339 l 361 339 q 215 301 256 339 q 174 208 174 264 q 222 108 174 146 q 358 71 271 71 q 502 109 442 71 q 590 219 563 147 l 613 151 q 516 36 585 79 q 343 -7 447 -7 m 519 875 q 478 892 496 875 q 460 935 460 908 q 478 978 460 961 q 519 994 496 994 q 562 978 544 994 q 579 935 579 961 q 562 892 579 908 q 519 875 544 875 m 272 875 q 230 892 247 875 q 213 935 213 908 q 230 978 213 961 q 272 994 247 994 q 314 978 296 994 q 332 935 332 961 q 314 892 332 908 q 272 875 296 875 z "},"ạ":{"ha":819,"x_min":76,"x_max":689,"o":"m 594 0 l 594 161 l 590 188 l 590 457 q 538 600 590 550 q 383 650 486 650 q 249 626 313 650 q 140 564 185 603 l 96 638 q 229 710 151 685 q 393 736 307 736 q 612 666 535 736 q 689 453 689 596 l 689 0 l 594 0 m 343 -7 q 201 20 261 -7 q 108 95 140 47 q 76 206 76 143 q 103 309 76 263 q 192 384 131 356 q 358 413 254 413 l 610 413 l 610 339 l 361 339 q 215 301 256 339 q 174 208 174 264 q 222 108 174 146 q 358 71 271 71 q 502 109 442 71 q 590 219 563 147 l 613 151 q 516 36 585 79 q 343 -7 447 -7 m 399 -264 q 357 -247 375 -264 q 339 -204 339 -231 q 357 -161 339 -178 q 399 -144 375 -144 q 441 -161 424 -144 q 458 -204 458 -178 q 441 -247 458 -231 q 399 -264 424 -264 z "},"à":{"ha":819,"x_min":76,"x_max":689,"o":"m 594 0 l 594 161 l 590 188 l 590 457 q 538 600 590 550 q 383 650 486 650 q 249 626 313 650 q 140 564 185 603 l 96 638 q 229 710 151 685 q 393 736 307 736 q 612 666 535 736 q 689 453 689 596 l 689 0 l 594 0 m 343 -7 q 201 20 261 -7 q 108 95 140 47 q 76 206 76 143 q 103 309 76 263 q 192 384 131 356 q 358 413 254 413 l 610 413 l 610 339 l 361 339 q 215 301 256 339 q 174 208 174 264 q 222 108 174 146 q 358 71 271 71 q 502 109 442 71 q 590 219 563 147 l 613 151 q 516 36 585 79 q 343 -7 447 -7 m 389 843 l 164 1015 l 296 1015 l 486 843 l 389 843 z "},"ả":{"ha":819,"x_min":76,"x_max":689,"o":"m 594 0 l 594 161 l 590 188 l 590 457 q 538 600 590 550 q 383 650 486 650 q 249 626 313 650 q 140 564 185 603 l 96 638 q 229 710 151 685 q 393 736 307 736 q 612 666 535 736 q 689 453 689 596 l 689 0 l 594 0 m 343 -7 q 201 20 261 -7 q 108 95 140 47 q 76 206 76 143 q 103 309 76 263 q 192 384 131 356 q 358 413 254 413 l 610 413 l 610 339 l 361 339 q 215 301 256 339 q 174 208 174 264 q 222 108 174 146 q 358 71 271 71 q 502 109 442 71 q 590 219 563 147 l 613 151 q 516 36 585 79 q 343 -7 447 -7 m 414 833 l 379 876 q 441 919 421 896 q 461 975 461 943 q 440 1024 461 1004 q 385 1043 419 1043 q 301 1017 342 1043 l 278 1065 q 333 1092 301 1083 q 393 1101 364 1101 q 488 1069 451 1101 q 525 982 525 1036 q 498 897 525 933 q 414 833 471 860 z "},"ȃ":{"ha":819,"x_min":76,"x_max":689,"o":"m 594 0 l 594 161 l 590 188 l 590 457 q 538 600 590 550 q 383 650 486 650 q 249 626 313 650 q 140 564 185 603 l 96 638 q 229 710 151 685 q 393 736 307 736 q 612 666 535 736 q 689 453 689 596 l 689 0 l 594 0 m 343 -7 q 201 20 261 -7 q 108 95 140 47 q 76 206 76 143 q 103 309 76 263 q 192 384 131 356 q 358 413 254 413 l 610 413 l 610 339 l 361 339 q 215 301 256 339 q 174 208 174 264 q 222 108 174 146 q 358 71 271 71 q 502 109 442 71 q 590 219 563 147 l 613 151 q 516 36 585 79 q 343 -7 447 -7 m 185 843 q 248 974 188 926 q 396 1021 308 1021 q 544 974 483 1021 q 607 843 604 926 l 538 843 q 495 929 536 897 q 396 961 454 961 q 298 929 339 961 q 254 843 257 897 l 185 843 z "},"ā":{"ha":819,"x_min":76,"x_max":689,"o":"m 594 0 l 594 161 l 590 188 l 590 457 q 538 600 590 550 q 383 650 486 650 q 249 626 313 650 q 140 564 185 603 l 96 638 q 229 710 151 685 q 393 736 307 736 q 612 666 535 736 q 689 453 689 596 l 689 0 l 594 0 m 343 -7 q 201 20 261 -7 q 108 95 140 47 q 76 206 76 143 q 103 309 76 263 q 192 384 131 356 q 358 413 254 413 l 610 413 l 610 339 l 361 339 q 215 301 256 339 q 174 208 174 264 q 222 108 174 146 q 358 71 271 71 q 502 109 442 71 q 590 219 563 147 l 613 151 q 516 36 585 79 q 343 -7 447 -7 m 182 896 l 182 961 l 610 961 l 610 896 l 182 896 z "},"ą":{"ha":819,"x_min":76,"x_max":718,"o":"m 594 0 l 594 161 l 590 188 l 590 457 q 538 600 590 550 q 383 650 486 650 q 249 626 313 650 q 140 564 185 603 l 96 638 q 229 710 151 685 q 393 736 307 736 q 612 666 535 736 q 689 453 689 596 l 689 0 l 594 0 m 343 -7 q 201 20 261 -7 q 108 95 140 47 q 76 206 76 143 q 103 309 76 263 q 192 384 131 356 q 358 413 254 413 l 610 413 l 610 339 l 361 339 q 215 301 256 339 q 174 208 174 264 q 222 108 174 146 q 358 71 271 71 q 502 109 442 71 q 590 219 563 147 l 613 151 q 516 36 585 79 q 343 -7 447 -7 m 600 -306 q 489 -269 531 -306 q 447 -174 447 -233 q 465 -103 447 -140 q 525 -31 482 -67 q 643 38 568 6 l 689 0 q 585 -58 622 -29 q 534 -113 549 -86 q 519 -167 519 -140 q 545 -225 519 -206 q 610 -244 571 -244 q 656 -237 633 -244 q 696 -218 679 -231 l 718 -272 q 663 -297 693 -287 q 600 -306 633 -306 z "},"å":{"ha":819,"x_min":76,"x_max":689,"o":"m 594 0 l 594 161 l 590 188 l 590 457 q 538 600 590 550 q 383 650 486 650 q 249 626 313 650 q 140 564 185 603 l 96 638 q 229 710 151 685 q 393 736 307 736 q 612 666 535 736 q 689 453 689 596 l 689 0 l 594 0 m 343 -7 q 201 20 261 -7 q 108 95 140 47 q 76 206 76 143 q 103 309 76 263 q 192 384 131 356 q 358 413 254 413 l 610 413 l 610 339 l 361 339 q 215 301 256 339 q 174 208 174 264 q 222 108 174 146 q 358 71 271 71 q 502 109 442 71 q 590 219 563 147 l 613 151 q 516 36 585 79 q 343 -7 447 -7 m 394 826 q 320 846 353 826 q 269 897 288 865 q 250 968 250 929 q 269 1040 250 1007 q 322 1094 289 1074 q 394 1114 354 1114 q 469 1094 436 1114 q 521 1040 501 1074 q 540 968 540 1007 q 521 897 540 929 q 469 846 501 865 q 394 826 436 826 m 394 875 q 463 902 436 875 q 489 968 489 929 q 463 1037 489 1008 q 394 1065 436 1065 q 328 1038 354 1065 q 301 968 301 1010 q 327 901 301 928 q 394 875 353 875 z "},"ǻ":{"ha":819,"x_min":76,"x_max":689,"o":"m 594 0 l 594 161 l 590 188 l 590 457 q 538 600 590 550 q 383 650 486 650 q 249 626 313 650 q 140 564 185 603 l 96 638 q 229 710 151 685 q 393 736 307 736 q 612 666 535 736 q 689 453 689 596 l 689 0 l 594 0 m 343 -7 q 201 20 261 -7 q 108 95 140 47 q 76 206 76 143 q 103 309 76 263 q 192 384 131 356 q 358 413 254 413 l 610 413 l 610 339 l 361 339 q 215 301 256 339 q 174 208 174 264 q 222 108 174 146 q 358 71 271 71 q 502 109 442 71 q 590 219 563 147 l 613 151 q 516 36 585 79 q 343 -7 447 -7 m 394 826 q 320 846 353 826 q 269 897 288 865 q 250 968 250 929 q 269 1040 250 1007 q 322 1094 289 1074 q 394 1114 354 1114 q 469 1094 436 1114 q 521 1040 501 1074 q 540 968 540 1007 q 521 897 540 929 q 469 846 501 865 q 394 826 436 826 m 394 875 q 463 902 436 875 q 489 968 489 929 q 463 1037 489 1008 q 394 1065 436 1065 q 328 1038 354 1065 q 301 968 301 1010 q 327 901 301 928 q 394 875 353 875 m 503 1046 l 444 1067 l 585 1206 l 640 1161 l 503 1046 z "},"ã":{"ha":819,"x_min":76,"x_max":689,"o":"m 594 0 l 594 161 l 590 188 l 590 457 q 538 600 590 550 q 383 650 486 650 q 249 626 313 650 q 140 564 185 603 l 96 638 q 229 710 151 685 q 393 736 307 736 q 612 666 535 736 q 689 453 689 596 l 689 0 l 594 0 m 343 -7 q 201 20 261 -7 q 108 95 140 47 q 76 206 76 143 q 103 309 76 263 q 192 384 131 356 q 358 413 254 413 l 610 413 l 610 339 l 361 339 q 215 301 256 339 q 174 208 174 264 q 222 108 174 146 q 358 71 271 71 q 502 109 442 71 q 590 219 563 147 l 613 151 q 516 36 585 79 q 343 -7 447 -7 m 490 851 q 433 865 458 851 q 388 898 408 879 q 349 931 368 917 q 308 946 329 946 q 258 922 276 946 q 236 857 239 899 l 176 857 q 213 968 179 926 q 301 1010 247 1010 q 359 995 333 1010 q 405 962 385 981 q 444 929 425 943 q 483 915 463 915 q 535 938 515 915 q 556 1001 554 961 l 615 1001 q 579 893 614 935 q 490 851 544 851 z "},"æ":{"ha":1369,"x_min":76,"x_max":1306,"o":"m 353 -7 q 149 53 222 -7 q 76 208 76 113 q 103 308 76 263 q 192 383 131 354 q 358 411 254 411 l 607 411 l 607 338 l 361 338 q 215 301 256 338 q 174 210 174 264 q 223 108 174 146 q 360 71 272 71 q 528 126 465 71 q 590 279 590 182 l 590 457 q 538 600 590 550 q 383 650 486 650 q 249 626 313 650 q 140 564 185 603 l 96 638 q 229 710 151 685 q 392 736 307 736 q 588 683 517 736 q 676 525 660 631 l 632 533 q 757 681 674 626 q 950 736 840 736 q 1091 709 1026 736 q 1203 633 1156 682 q 1278 518 1251 585 q 1306 371 1306 451 q 1305 353 1306 361 q 1303 338 1304 346 l 669 338 l 669 411 l 1250 411 l 1210 379 q 1174 524 1210 464 q 1079 618 1139 585 q 949 651 1019 651 q 819 618 879 651 q 724 524 760 585 q 689 376 689 463 l 689 361 q 726 215 689 278 q 827 116 763 151 q 978 81 892 81 q 1102 104 1046 81 q 1201 176 1158 128 l 1257 113 q 1135 23 1208 53 q 975 -7 1063 -7 q 819 21 892 -7 q 692 106 746 49 q 608 249 638 163 l 672 247 q 610 97 658 153 q 494 17 563 42 q 353 -7 426 -7 z "},"ǽ":{"ha":1369,"x_min":76,"x_max":1306,"o":"m 353 -7 q 149 53 222 -7 q 76 208 76 113 q 103 308 76 263 q 192 383 131 354 q 358 411 254 411 l 607 411 l 607 338 l 361 338 q 215 301 256 338 q 174 210 174 264 q 223 108 174 146 q 360 71 272 71 q 528 126 465 71 q 590 279 590 182 l 590 457 q 538 600 590 550 q 383 650 486 650 q 249 626 313 650 q 140 564 185 603 l 96 638 q 229 710 151 685 q 392 736 307 736 q 588 683 517 736 q 676 525 660 631 l 632 533 q 757 681 674 626 q 950 736 840 736 q 1091 709 1026 736 q 1203 633 1156 682 q 1278 518 1251 585 q 1306 371 1306 451 q 1305 353 1306 361 q 1303 338 1304 346 l 669 338 l 669 411 l 1250 411 l 1210 379 q 1174 524 1210 464 q 1079 618 1139 585 q 949 651 1019 651 q 819 618 879 651 q 724 524 760 585 q 689 376 689 463 l 689 361 q 726 215 689 278 q 827 116 763 151 q 978 81 892 81 q 1102 104 1046 81 q 1201 176 1158 128 l 1257 113 q 1135 23 1208 53 q 975 -7 1063 -7 q 819 21 892 -7 q 692 106 746 49 q 608 249 638 163 l 672 247 q 610 97 658 153 q 494 17 563 42 q 353 -7 426 -7 m 550 843 l 740 1015 l 872 1015 l 647 843 l 550 843 z "},"b":{"ha":942,"x_min":138,"x_max":878,"o":"m 514 -7 q 342 37 418 -7 q 221 164 265 81 q 176 365 176 247 q 222 567 176 485 q 343 693 267 650 q 514 736 419 736 q 701 690 618 736 q 831 560 783 643 q 878 365 878 476 q 831 172 878 256 q 701 40 783 88 q 514 -7 618 -7 m 138 0 l 138 1031 l 236 1031 l 236 514 l 222 367 l 232 219 l 232 0 l 138 0 m 507 81 q 646 116 585 81 q 743 216 707 151 q 779 365 779 281 q 743 515 779 451 q 646 615 707 579 q 507 650 585 650 q 367 615 429 650 q 270 515 306 579 q 235 365 235 451 q 270 216 235 281 q 367 116 306 151 q 507 81 429 81 z "},"c":{"ha":782,"x_min":64,"x_max":726,"o":"m 440 -7 q 247 41 332 -7 q 113 173 161 89 q 64 365 64 257 q 113 558 64 475 q 247 689 161 642 q 440 736 332 736 q 608 700 533 736 q 726 592 683 664 l 653 542 q 560 624 615 597 q 439 650 504 650 q 299 615 361 650 q 200 515 236 579 q 164 365 164 451 q 200 215 164 279 q 299 116 236 151 q 439 81 361 81 q 560 107 504 81 q 653 188 615 133 l 726 138 q 608 30 683 67 q 440 -7 533 -7 z "},"ć":{"ha":782,"x_min":64,"x_max":726,"o":"m 440 -7 q 247 41 332 -7 q 113 173 161 89 q 64 365 64 257 q 113 558 64 475 q 247 689 161 642 q 440 736 332 736 q 608 700 533 736 q 726 592 683 664 l 653 542 q 560 624 615 597 q 439 650 504 650 q 299 615 361 650 q 200 515 236 579 q 164 365 164 451 q 200 215 164 279 q 299 116 236 151 q 439 81 361 81 q 560 107 504 81 q 653 188 615 133 l 726 138 q 608 30 683 67 q 440 -7 533 -7 m 325 843 l 515 1015 l 647 1015 l 422 843 l 325 843 z "},"č":{"ha":782,"x_min":64,"x_max":726,"o":"m 440 -7 q 247 41 332 -7 q 113 173 161 89 q 64 365 64 257 q 113 558 64 475 q 247 689 161 642 q 440 736 332 736 q 608 700 533 736 q 726 592 683 664 l 653 542 q 560 624 615 597 q 439 650 504 650 q 299 615 361 650 q 200 515 236 579 q 164 365 164 451 q 200 215 164 279 q 299 116 236 151 q 439 81 361 81 q 560 107 504 81 q 653 188 615 133 l 726 138 q 608 30 683 67 q 440 -7 533 -7 m 365 843 l 186 1015 l 278 1015 l 454 869 l 376 869 l 553 1015 l 644 1015 l 465 843 l 365 843 z "},"ç":{"ha":782,"x_min":64,"x_max":726,"o":"m 440 -7 q 247 41 332 -7 q 113 173 161 89 q 64 365 64 257 q 113 558 64 475 q 247 689 161 642 q 440 736 332 736 q 608 700 533 736 q 726 592 683 664 l 653 542 q 560 624 615 597 q 439 650 504 650 q 299 615 361 650 q 200 515 236 579 q 164 365 164 451 q 200 215 164 279 q 299 116 236 151 q 439 81 361 81 q 560 107 504 81 q 653 188 615 133 l 726 138 q 608 30 683 67 q 440 -7 533 -7 m 382 -306 q 319 -297 347 -306 q 265 -274 290 -289 l 289 -221 q 333 -240 310 -233 q 381 -247 356 -247 q 444 -230 422 -247 q 467 -182 467 -212 q 445 -136 467 -154 q 381 -118 424 -118 l 349 -118 l 382 8 l 442 8 l 421 -72 q 508 -108 478 -76 q 539 -185 539 -139 q 495 -273 539 -240 q 382 -306 451 -306 z "},"ḉ":{"ha":782,"x_min":64,"x_max":726,"o":"m 440 -7 q 247 41 332 -7 q 113 173 161 89 q 64 365 64 257 q 113 558 64 475 q 247 689 161 642 q 440 736 332 736 q 608 700 533 736 q 726 592 683 664 l 653 542 q 560 624 615 597 q 439 650 504 650 q 299 615 361 650 q 200 515 236 579 q 164 365 164 451 q 200 215 164 279 q 299 116 236 151 q 439 81 361 81 q 560 107 504 81 q 653 188 615 133 l 726 138 q 608 30 683 67 q 440 -7 533 -7 m 382 -306 q 319 -297 347 -306 q 265 -274 290 -289 l 289 -221 q 333 -240 310 -233 q 381 -247 356 -247 q 444 -230 422 -247 q 467 -182 467 -212 q 445 -136 467 -154 q 381 -118 424 -118 l 349 -118 l 382 8 l 442 8 l 421 -72 q 508 -108 478 -76 q 539 -185 539 -139 q 495 -273 539 -240 q 382 -306 451 -306 m 325 843 l 515 1015 l 647 1015 l 422 843 l 325 843 z "},"ĉ":{"ha":782,"x_min":64,"x_max":726,"o":"m 440 -7 q 247 41 332 -7 q 113 173 161 89 q 64 365 64 257 q 113 558 64 475 q 247 689 161 642 q 440 736 332 736 q 608 700 533 736 q 726 592 683 664 l 653 542 q 560 624 615 597 q 439 650 504 650 q 299 615 361 650 q 200 515 236 579 q 164 365 164 451 q 200 215 164 279 q 299 116 236 151 q 439 81 361 81 q 560 107 504 81 q 653 188 615 133 l 726 138 q 608 30 683 67 q 440 -7 533 -7 m 186 843 l 365 1015 l 465 1015 l 644 843 l 553 843 l 376 990 l 454 990 l 278 843 l 186 843 z "},"ċ":{"ha":782,"x_min":64,"x_max":726,"o":"m 440 -7 q 247 41 332 -7 q 113 173 161 89 q 64 365 64 257 q 113 558 64 475 q 247 689 161 642 q 440 736 332 736 q 608 700 533 736 q 726 592 683 664 l 653 542 q 560 624 615 597 q 439 650 504 650 q 299 615 361 650 q 200 515 236 579 q 164 365 164 451 q 200 215 164 279 q 299 116 236 151 q 439 81 361 81 q 560 107 504 81 q 653 188 615 133 l 726 138 q 608 30 683 67 q 440 -7 533 -7 m 415 875 q 368 894 388 875 q 349 942 349 914 q 368 990 349 971 q 415 1008 388 1008 q 463 990 443 1008 q 482 942 482 971 q 463 894 482 914 q 415 875 443 875 z "},"d":{"ha":942,"x_min":64,"x_max":804,"o":"m 428 -7 q 241 40 324 -7 q 111 172 158 88 q 64 365 64 256 q 111 560 64 476 q 241 690 158 643 q 428 736 324 736 q 599 693 524 736 q 720 567 675 650 q 765 365 765 485 q 721 164 765 247 q 601 37 676 81 q 428 -7 525 -7 m 435 81 q 574 116 513 81 q 672 216 636 151 q 707 365 707 281 q 672 515 707 451 q 574 615 636 579 q 435 650 513 650 q 297 615 358 650 q 200 515 236 579 q 164 365 164 451 q 200 216 164 281 q 297 116 236 151 q 435 81 358 81 m 710 0 l 710 219 l 719 367 l 706 514 l 706 1031 l 804 1031 l 804 0 l 710 0 z "},"ð":{"ha":879,"x_min":64,"x_max":815,"o":"m 406 -8 q 230 29 307 -8 q 108 136 153 67 q 64 299 64 206 q 108 461 64 392 q 231 568 153 531 q 411 606 310 606 q 563 575 494 606 q 677 485 632 544 q 733 342 722 426 l 696 329 q 712 419 708 374 q 715 503 715 465 q 671 729 715 638 q 544 867 626 821 q 351 914 463 914 q 240 905 292 914 q 147 883 189 896 l 131 968 q 231 989 174 981 q 351 997 288 997 q 595 939 492 997 q 757 766 699 881 q 815 482 815 651 q 767 222 815 332 q 628 51 719 111 q 406 -8 538 -8 m 411 76 q 555 108 496 76 q 644 191 614 140 q 675 299 675 242 q 642 413 675 363 q 553 492 610 463 q 419 521 496 521 q 232 460 300 521 q 164 299 164 399 q 195 182 164 232 q 282 104 226 132 q 411 76 338 76 m 211 685 l 183 753 l 733 982 l 761 914 l 211 685 z "},"ď":{"ha":942,"x_min":64,"x_max":1017,"o":"m 428 -7 q 241 40 324 -7 q 111 172 158 88 q 64 365 64 256 q 111 560 64 476 q 241 690 158 643 q 428 736 324 736 q 599 693 524 736 q 720 567 675 650 q 765 365 765 485 q 721 164 765 247 q 601 37 676 81 q 428 -7 525 -7 m 435 81 q 574 116 513 81 q 672 216 636 151 q 707 365 707 281 q 672 515 707 451 q 574 615 636 579 q 435 650 513 650 q 297 615 358 650 q 200 515 236 579 q 164 365 164 451 q 200 216 164 281 q 297 116 236 151 q 435 81 358 81 m 710 0 l 710 219 l 719 367 l 706 514 l 706 1031 l 804 1031 l 804 0 l 710 0 m 933 808 l 933 1069 l 1017 1069 l 1004 808 l 933 808 z "},"đ":{"ha":942,"x_min":64,"x_max":942,"o":"m 428 -7 q 241 40 324 -7 q 111 172 158 88 q 64 365 64 256 q 111 560 64 476 q 241 690 158 643 q 428 736 324 736 q 599 693 524 736 q 720 567 675 650 q 765 365 765 485 q 721 164 765 247 q 601 37 676 81 q 428 -7 525 -7 m 435 81 q 574 116 513 81 q 672 216 636 151 q 707 365 707 281 q 672 515 707 451 q 574 615 636 579 q 435 650 513 650 q 297 615 358 650 q 200 515 236 579 q 164 365 164 451 q 200 216 164 281 q 297 116 236 151 q 435 81 358 81 m 710 0 l 710 219 l 719 367 l 706 514 l 706 1031 l 804 1031 l 804 0 l 710 0 m 400 843 l 400 915 l 942 915 l 942 843 l 400 843 z "},"ḍ":{"ha":942,"x_min":64,"x_max":804,"o":"m 428 -7 q 241 40 324 -7 q 111 172 158 88 q 64 365 64 256 q 111 560 64 476 q 241 690 158 643 q 428 736 324 736 q 599 693 524 736 q 720 567 675 650 q 765 365 765 485 q 721 164 765 247 q 601 37 676 81 q 428 -7 525 -7 m 435 81 q 574 116 513 81 q 672 216 636 151 q 707 365 707 281 q 672 515 707 451 q 574 615 636 579 q 435 650 513 650 q 297 615 358 650 q 200 515 236 579 q 164 365 164 451 q 200 216 164 281 q 297 116 236 151 q 435 81 358 81 m 710 0 l 710 219 l 719 367 l 706 514 l 706 1031 l 804 1031 l 804 0 l 710 0 m 472 -264 q 431 -247 449 -264 q 413 -204 413 -231 q 431 -161 413 -178 q 472 -144 449 -144 q 515 -161 497 -144 q 532 -204 532 -178 q 515 -247 532 -231 q 472 -264 497 -264 z "},"ḏ":{"ha":942,"x_min":64,"x_max":804,"o":"m 428 -7 q 241 40 324 -7 q 111 172 158 88 q 64 365 64 256 q 111 560 64 476 q 241 690 158 643 q 428 736 324 736 q 599 693 524 736 q 720 567 675 650 q 765 365 765 485 q 721 164 765 247 q 601 37 676 81 q 428 -7 525 -7 m 435 81 q 574 116 513 81 q 672 216 636 151 q 707 365 707 281 q 672 515 707 451 q 574 615 636 579 q 435 650 513 650 q 297 615 358 650 q 200 515 236 579 q 164 365 164 451 q 200 216 164 281 q 297 116 236 151 q 435 81 358 81 m 710 0 l 710 219 l 719 367 l 706 514 l 706 1031 l 804 1031 l 804 0 l 710 0 m 258 -235 l 258 -169 l 686 -169 l 686 -235 l 258 -235 z "},"ǆ":{"ha":1669,"x_min":64,"x_max":1593,"o":"m 428 -7 q 241 40 324 -7 q 111 172 158 88 q 64 365 64 256 q 111 560 64 476 q 241 690 158 643 q 428 736 324 736 q 599 693 524 736 q 720 567 675 650 q 765 365 765 485 q 721 164 765 247 q 601 37 676 81 q 428 -7 525 -7 m 435 81 q 574 116 513 81 q 672 216 636 151 q 707 365 707 281 q 672 515 707 451 q 574 615 636 579 q 435 650 513 650 q 297 615 358 650 q 200 515 236 579 q 164 365 164 451 q 200 216 164 281 q 297 116 236 151 q 435 81 358 81 m 710 0 l 710 219 l 719 367 l 706 514 l 706 1031 l 804 1031 l 804 0 l 710 0 z "},"e":{"ha":839,"x_min":64,"x_max":775,"o":"m 447 -7 q 247 41 333 -7 q 113 173 161 89 q 64 365 64 257 q 110 557 64 474 q 238 688 157 640 q 421 736 319 736 q 603 690 524 736 q 729 559 683 643 q 775 365 775 475 q 774 351 775 358 q 774 335 774 343 l 139 335 l 139 408 l 721 408 l 682 379 q 648 520 682 458 q 556 617 614 582 q 421 651 497 651 q 286 617 346 651 q 193 519 226 582 q 160 376 160 457 l 160 361 q 197 215 160 278 q 299 116 233 151 q 450 81 365 81 q 574 104 517 81 q 674 176 632 128 l 729 113 q 608 24 681 54 q 447 -7 535 -7 z "},"é":{"ha":839,"x_min":64,"x_max":775,"o":"m 447 -7 q 247 41 333 -7 q 113 173 161 89 q 64 365 64 257 q 110 557 64 474 q 238 688 157 640 q 421 736 319 736 q 603 690 524 736 q 729 559 683 643 q 775 365 775 475 q 774 351 775 358 q 774 335 774 343 l 139 335 l 139 408 l 721 408 l 682 379 q 648 520 682 458 q 556 617 614 582 q 421 651 497 651 q 286 617 346 651 q 193 519 226 582 q 160 376 160 457 l 160 361 q 197 215 160 278 q 299 116 233 151 q 450 81 365 81 q 574 104 517 81 q 674 176 632 128 l 729 113 q 608 24 681 54 q 447 -7 535 -7 m 329 843 l 519 1015 l 651 1015 l 426 843 l 329 843 z "},"ĕ":{"ha":839,"x_min":64,"x_max":775,"o":"m 447 -7 q 247 41 333 -7 q 113 173 161 89 q 64 365 64 257 q 110 557 64 474 q 238 688 157 640 q 421 736 319 736 q 603 690 524 736 q 729 559 683 643 q 775 365 775 475 q 774 351 775 358 q 774 335 774 343 l 139 335 l 139 408 l 721 408 l 682 379 q 648 520 682 458 q 556 617 614 582 q 421 651 497 651 q 286 617 346 651 q 193 519 226 582 q 160 376 160 457 l 160 361 q 197 215 160 278 q 299 116 233 151 q 450 81 365 81 q 574 104 517 81 q 674 176 632 128 l 729 113 q 608 24 681 54 q 447 -7 535 -7 m 419 836 q 272 884 332 836 q 208 1015 211 932 l 278 1015 q 322 929 281 961 q 419 897 363 897 q 519 929 478 897 q 561 1015 560 961 l 631 1015 q 567 884 628 932 q 419 836 507 836 z "},"ě":{"ha":839,"x_min":64,"x_max":775,"o":"m 447 -7 q 247 41 333 -7 q 113 173 161 89 q 64 365 64 257 q 110 557 64 474 q 238 688 157 640 q 421 736 319 736 q 603 690 524 736 q 729 559 683 643 q 775 365 775 475 q 774 351 775 358 q 774 335 774 343 l 139 335 l 139 408 l 721 408 l 682 379 q 648 520 682 458 q 556 617 614 582 q 421 651 497 651 q 286 617 346 651 q 193 519 226 582 q 160 376 160 457 l 160 361 q 197 215 160 278 q 299 116 233 151 q 450 81 365 81 q 574 104 517 81 q 674 176 632 128 l 729 113 q 608 24 681 54 q 447 -7 535 -7 m 369 843 l 190 1015 l 282 1015 l 458 869 l 381 869 l 557 1015 l 649 1015 l 469 843 l 369 843 z "},"ḝ":{"ha":839,"x_min":64,"x_max":775,"o":"m 447 -7 q 247 41 333 -7 q 113 173 161 89 q 64 365 64 257 q 110 557 64 474 q 238 688 157 640 q 421 736 319 736 q 603 690 524 736 q 729 559 683 643 q 775 365 775 475 q 774 351 775 358 q 774 335 774 343 l 139 335 l 139 408 l 721 408 l 682 379 q 648 520 682 458 q 556 617 614 582 q 421 651 497 651 q 286 617 346 651 q 193 519 226 582 q 160 376 160 457 l 160 361 q 197 215 160 278 q 299 116 233 151 q 450 81 365 81 q 574 104 517 81 q 674 176 632 128 l 729 113 q 608 24 681 54 q 447 -7 535 -7 m 389 -306 q 326 -297 354 -306 q 272 -274 297 -289 l 296 -221 q 340 -240 317 -233 q 388 -247 363 -247 q 451 -230 429 -247 q 474 -182 474 -212 q 452 -136 474 -154 q 388 -118 431 -118 l 356 -118 l 389 8 l 449 8 l 428 -72 q 515 -108 485 -76 q 546 -185 546 -139 q 502 -273 546 -240 q 389 -306 458 -306 m 419 836 q 272 884 332 836 q 208 1015 211 932 l 278 1015 q 322 929 281 961 q 419 897 363 897 q 519 929 478 897 q 561 1015 560 961 l 631 1015 q 567 884 628 932 q 419 836 507 836 z "},"ê":{"ha":839,"x_min":64,"x_max":775,"o":"m 447 -7 q 247 41 333 -7 q 113 173 161 89 q 64 365 64 257 q 110 557 64 474 q 238 688 157 640 q 421 736 319 736 q 603 690 524 736 q 729 559 683 643 q 775 365 775 475 q 774 351 775 358 q 774 335 774 343 l 139 335 l 139 408 l 721 408 l 682 379 q 648 520 682 458 q 556 617 614 582 q 421 651 497 651 q 286 617 346 651 q 193 519 226 582 q 160 376 160 457 l 160 361 q 197 215 160 278 q 299 116 233 151 q 450 81 365 81 q 574 104 517 81 q 674 176 632 128 l 729 113 q 608 24 681 54 q 447 -7 535 -7 m 190 843 l 369 1015 l 469 1015 l 649 843 l 557 843 l 381 990 l 458 990 l 282 843 l 190 843 z "},"ế":{"ha":839,"x_min":64,"x_max":835,"o":"m 447 -7 q 247 41 333 -7 q 113 173 161 89 q 64 365 64 257 q 110 557 64 474 q 238 688 157 640 q 421 736 319 736 q 603 690 524 736 q 729 559 683 643 q 775 365 775 475 q 774 351 775 358 q 774 335 774 343 l 139 335 l 139 408 l 721 408 l 682 379 q 648 520 682 458 q 556 617 614 582 q 421 651 497 651 q 286 617 346 651 q 193 519 226 582 q 160 376 160 457 l 160 361 q 197 215 160 278 q 299 116 233 151 q 450 81 365 81 q 574 104 517 81 q 674 176 632 128 l 729 113 q 608 24 681 54 q 447 -7 535 -7 z "},"ệ":{"ha":839,"x_min":64,"x_max":775,"o":"m 447 -7 q 247 41 333 -7 q 113 173 161 89 q 64 365 64 257 q 110 557 64 474 q 238 688 157 640 q 421 736 319 736 q 603 690 524 736 q 729 559 683 643 q 775 365 775 475 q 774 351 775 358 q 774 335 774 343 l 139 335 l 139 408 l 721 408 l 682 379 q 648 520 682 458 q 556 617 614 582 q 421 651 497 651 q 286 617 346 651 q 193 519 226 582 q 160 376 160 457 l 160 361 q 197 215 160 278 q 299 116 233 151 q 450 81 365 81 q 574 104 517 81 q 674 176 632 128 l 729 113 q 608 24 681 54 q 447 -7 535 -7 m 419 -264 q 378 -247 396 -264 q 360 -204 360 -231 q 378 -161 360 -178 q 419 -144 396 -144 q 462 -161 444 -144 q 479 -204 479 -178 q 462 -247 479 -231 q 419 -264 444 -264 m 190 843 l 369 1015 l 469 1015 l 649 843 l 557 843 l 381 990 l 458 990 l 282 843 l 190 843 z "},"ề":{"ha":839,"x_min":64,"x_max":775,"o":"m 447 -7 q 247 41 333 -7 q 113 173 161 89 q 64 365 64 257 q 110 557 64 474 q 238 688 157 640 q 421 736 319 736 q 603 690 524 736 q 729 559 683 643 q 775 365 775 475 q 774 351 775 358 q 774 335 774 343 l 139 335 l 139 408 l 721 408 l 682 379 q 648 520 682 458 q 556 617 614 582 q 421 651 497 651 q 286 617 346 651 q 193 519 226 582 q 160 376 160 457 l 160 361 q 197 215 160 278 q 299 116 233 151 q 450 81 365 81 q 574 104 517 81 q 674 176 632 128 l 729 113 q 608 24 681 54 q 447 -7 535 -7 z "},"ể":{"ha":839,"x_min":64,"x_max":775,"o":"m 447 -7 q 247 41 333 -7 q 113 173 161 89 q 64 365 64 257 q 110 557 64 474 q 238 688 157 640 q 421 736 319 736 q 603 690 524 736 q 729 559 683 643 q 775 365 775 475 q 774 351 775 358 q 774 335 774 343 l 139 335 l 139 408 l 721 408 l 682 379 q 648 520 682 458 q 556 617 614 582 q 421 651 497 651 q 286 617 346 651 q 193 519 226 582 q 160 376 160 457 l 160 361 q 197 215 160 278 q 299 116 233 151 q 450 81 365 81 q 574 104 517 81 q 674 176 632 128 l 729 113 q 608 24 681 54 q 447 -7 535 -7 z "},"ễ":{"ha":839,"x_min":64,"x_max":775,"o":"m 447 -7 q 247 41 333 -7 q 113 173 161 89 q 64 365 64 257 q 110 557 64 474 q 238 688 157 640 q 421 736 319 736 q 603 690 524 736 q 729 559 683 643 q 775 365 775 475 q 774 351 775 358 q 774 335 774 343 l 139 335 l 139 408 l 721 408 l 682 379 q 648 520 682 458 q 556 617 614 582 q 421 651 497 651 q 286 617 346 651 q 193 519 226 582 q 160 376 160 457 l 160 361 q 197 215 160 278 q 299 116 233 151 q 450 81 365 81 q 574 104 517 81 q 674 176 632 128 l 729 113 q 608 24 681 54 q 447 -7 535 -7 z "},"ȅ":{"ha":839,"x_min":64,"x_max":775,"o":"m 447 -7 q 247 41 333 -7 q 113 173 161 89 q 64 365 64 257 q 110 557 64 474 q 238 688 157 640 q 421 736 319 736 q 603 690 524 736 q 729 559 683 643 q 775 365 775 475 q 774 351 775 358 q 774 335 774 343 l 139 335 l 139 408 l 721 408 l 682 379 q 648 520 682 458 q 556 617 614 582 q 421 651 497 651 q 286 617 346 651 q 193 519 226 582 q 160 376 160 457 l 160 361 q 197 215 160 278 q 299 116 233 151 q 450 81 365 81 q 574 104 517 81 q 674 176 632 128 l 729 113 q 608 24 681 54 q 447 -7 535 -7 m 489 843 l 332 1015 l 442 1015 l 576 843 l 489 843 m 263 843 l 107 1015 l 217 1015 l 350 843 l 263 843 z "},"ë":{"ha":839,"x_min":64,"x_max":775,"o":"m 447 -7 q 247 41 333 -7 q 113 173 161 89 q 64 365 64 257 q 110 557 64 474 q 238 688 157 640 q 421 736 319 736 q 603 690 524 736 q 729 559 683 643 q 775 365 775 475 q 774 351 775 358 q 774 335 774 343 l 139 335 l 139 408 l 721 408 l 682 379 q 648 520 682 458 q 556 617 614 582 q 421 651 497 651 q 286 617 346 651 q 193 519 226 582 q 160 376 160 457 l 160 361 q 197 215 160 278 q 299 116 233 151 q 450 81 365 81 q 574 104 517 81 q 674 176 632 128 l 729 113 q 608 24 681 54 q 447 -7 535 -7 m 543 875 q 501 892 519 875 q 483 935 483 908 q 501 978 483 961 q 543 994 519 994 q 585 978 568 994 q 603 935 603 961 q 585 892 603 908 q 543 875 568 875 m 296 875 q 253 892 271 875 q 236 935 236 908 q 253 978 236 961 q 296 994 271 994 q 338 978 319 994 q 356 935 356 961 q 338 892 356 908 q 296 875 319 875 z "},"ė":{"ha":839,"x_min":64,"x_max":775,"o":"m 447 -7 q 247 41 333 -7 q 113 173 161 89 q 64 365 64 257 q 110 557 64 474 q 238 688 157 640 q 421 736 319 736 q 603 690 524 736 q 729 559 683 643 q 775 365 775 475 q 774 351 775 358 q 774 335 774 343 l 139 335 l 139 408 l 721 408 l 682 379 q 648 520 682 458 q 556 617 614 582 q 421 651 497 651 q 286 617 346 651 q 193 519 226 582 q 160 376 160 457 l 160 361 q 197 215 160 278 q 299 116 233 151 q 450 81 365 81 q 574 104 517 81 q 674 176 632 128 l 729 113 q 608 24 681 54 q 447 -7 535 -7 m 419 875 q 372 894 392 875 q 353 942 353 914 q 372 990 353 971 q 419 1008 392 1008 q 467 990 447 1008 q 486 942 486 971 q 467 894 486 914 q 419 875 447 875 z "},"ẹ":{"ha":839,"x_min":64,"x_max":775,"o":"m 447 -7 q 247 41 333 -7 q 113 173 161 89 q 64 365 64 257 q 110 557 64 474 q 238 688 157 640 q 421 736 319 736 q 603 690 524 736 q 729 559 683 643 q 775 365 775 475 q 774 351 775 358 q 774 335 774 343 l 139 335 l 139 408 l 721 408 l 682 379 q 648 520 682 458 q 556 617 614 582 q 421 651 497 651 q 286 617 346 651 q 193 519 226 582 q 160 376 160 457 l 160 361 q 197 215 160 278 q 299 116 233 151 q 450 81 365 81 q 574 104 517 81 q 674 176 632 128 l 729 113 q 608 24 681 54 q 447 -7 535 -7 m 419 -264 q 378 -247 396 -264 q 360 -204 360 -231 q 378 -161 360 -178 q 419 -144 396 -144 q 462 -161 444 -144 q 479 -204 479 -178 q 462 -247 479 -231 q 419 -264 444 -264 z "},"è":{"ha":839,"x_min":64,"x_max":775,"o":"m 447 -7 q 247 41 333 -7 q 113 173 161 89 q 64 365 64 257 q 110 557 64 474 q 238 688 157 640 q 421 736 319 736 q 603 690 524 736 q 729 559 683 643 q 775 365 775 475 q 774 351 775 358 q 774 335 774 343 l 139 335 l 139 408 l 721 408 l 682 379 q 648 520 682 458 q 556 617 614 582 q 421 651 497 651 q 286 617 346 651 q 193 519 226 582 q 160 376 160 457 l 160 361 q 197 215 160 278 q 299 116 233 151 q 450 81 365 81 q 574 104 517 81 q 674 176 632 128 l 729 113 q 608 24 681 54 q 447 -7 535 -7 m 413 843 l 188 1015 l 319 1015 l 510 843 l 413 843 z "},"ẻ":{"ha":839,"x_min":64,"x_max":775,"o":"m 447 -7 q 247 41 333 -7 q 113 173 161 89 q 64 365 64 257 q 110 557 64 474 q 238 688 157 640 q 421 736 319 736 q 603 690 524 736 q 729 559 683 643 q 775 365 775 475 q 774 351 775 358 q 774 335 774 343 l 139 335 l 139 408 l 721 408 l 682 379 q 648 520 682 458 q 556 617 614 582 q 421 651 497 651 q 286 617 346 651 q 193 519 226 582 q 160 376 160 457 l 160 361 q 197 215 160 278 q 299 116 233 151 q 450 81 365 81 q 574 104 517 81 q 674 176 632 128 l 729 113 q 608 24 681 54 q 447 -7 535 -7 m 438 833 l 403 876 q 465 919 444 896 q 485 975 485 943 q 464 1024 485 1004 q 408 1043 443 1043 q 325 1017 365 1043 l 301 1065 q 356 1092 325 1083 q 417 1101 388 1101 q 512 1069 475 1101 q 549 982 549 1036 q 522 897 549 933 q 438 833 494 860 z "},"ȇ":{"ha":839,"x_min":64,"x_max":775,"o":"m 447 -7 q 247 41 333 -7 q 113 173 161 89 q 64 365 64 257 q 110 557 64 474 q 238 688 157 640 q 421 736 319 736 q 603 690 524 736 q 729 559 683 643 q 775 365 775 475 q 774 351 775 358 q 774 335 774 343 l 139 335 l 139 408 l 721 408 l 682 379 q 648 520 682 458 q 556 617 614 582 q 421 651 497 651 q 286 617 346 651 q 193 519 226 582 q 160 376 160 457 l 160 361 q 197 215 160 278 q 299 116 233 151 q 450 81 365 81 q 574 104 517 81 q 674 176 632 128 l 729 113 q 608 24 681 54 q 447 -7 535 -7 m 208 843 q 272 974 211 926 q 419 1021 332 1021 q 567 974 507 1021 q 631 843 628 926 l 561 843 q 519 929 560 897 q 419 961 478 961 q 322 929 363 961 q 278 843 281 897 l 208 843 z "},"ē":{"ha":839,"x_min":64,"x_max":775,"o":"m 447 -7 q 247 41 333 -7 q 113 173 161 89 q 64 365 64 257 q 110 557 64 474 q 238 688 157 640 q 421 736 319 736 q 603 690 524 736 q 729 559 683 643 q 775 365 775 475 q 774 351 775 358 q 774 335 774 343 l 139 335 l 139 408 l 721 408 l 682 379 q 648 520 682 458 q 556 617 614 582 q 421 651 497 651 q 286 617 346 651 q 193 519 226 582 q 160 376 160 457 l 160 361 q 197 215 160 278 q 299 116 233 151 q 450 81 365 81 q 574 104 517 81 q 674 176 632 128 l 729 113 q 608 24 681 54 q 447 -7 535 -7 m 206 896 l 206 961 l 633 961 l 633 896 l 206 896 z "},"ḗ":{"ha":839,"x_min":64,"x_max":775,"o":"m 447 -7 q 247 41 333 -7 q 113 173 161 89 q 64 365 64 257 q 110 557 64 474 q 238 688 157 640 q 421 736 319 736 q 603 690 524 736 q 729 559 683 643 q 775 365 775 475 q 774 351 775 358 q 774 335 774 343 l 139 335 l 139 408 l 721 408 l 682 379 q 648 520 682 458 q 556 617 614 582 q 421 651 497 651 q 286 617 346 651 q 193 519 226 582 q 160 376 160 457 l 160 361 q 197 215 160 278 q 299 116 233 151 q 450 81 365 81 q 574 104 517 81 q 674 176 632 128 l 729 113 q 608 24 681 54 q 447 -7 535 -7 z "},"ḕ":{"ha":839,"x_min":64,"x_max":775,"o":"m 447 -7 q 247 41 333 -7 q 113 173 161 89 q 64 365 64 257 q 110 557 64 474 q 238 688 157 640 q 421 736 319 736 q 603 690 524 736 q 729 559 683 643 q 775 365 775 475 q 774 351 775 358 q 774 335 774 343 l 139 335 l 139 408 l 721 408 l 682 379 q 648 520 682 458 q 556 617 614 582 q 421 651 497 651 q 286 617 346 651 q 193 519 226 582 q 160 376 160 457 l 160 361 q 197 215 160 278 q 299 116 233 151 q 450 81 365 81 q 574 104 517 81 q 674 176 632 128 l 729 113 q 608 24 681 54 q 447 -7 535 -7 z "},"ę":{"ha":839,"x_min":64,"x_max":775,"o":"m 597 -306 q 487 -269 529 -306 q 444 -169 444 -232 q 470 -72 444 -125 q 563 35 496 -18 l 594 19 q 524 0 561 7 q 447 -7 488 -7 q 247 41 333 -7 q 113 173 161 89 q 64 365 64 257 q 110 557 64 474 q 238 688 157 640 q 421 736 319 736 q 603 690 524 736 q 729 559 683 643 q 775 365 775 475 q 774 351 775 358 q 774 335 774 343 l 139 335 l 139 408 l 721 408 l 682 379 q 648 520 682 458 q 556 617 614 582 q 421 651 497 651 q 286 617 346 651 q 193 519 226 582 q 160 376 160 457 l 160 361 q 197 215 160 278 q 299 116 233 151 q 450 81 365 81 q 574 104 517 81 q 674 176 632 128 l 729 113 q 705 88 718 99 q 676 63 692 76 q 577 -34 611 7 q 530 -106 543 -75 q 517 -164 517 -136 q 542 -225 517 -206 q 608 -244 568 -244 q 653 -237 631 -244 q 693 -218 676 -231 l 715 -272 q 660 -297 690 -287 q 597 -306 631 -306 z "},"ẽ":{"ha":839,"x_min":64,"x_max":775,"o":"m 447 -7 q 247 41 333 -7 q 113 173 161 89 q 64 365 64 257 q 110 557 64 474 q 238 688 157 640 q 421 736 319 736 q 603 690 524 736 q 729 559 683 643 q 775 365 775 475 q 774 351 775 358 q 774 335 774 343 l 139 335 l 139 408 l 721 408 l 682 379 q 648 520 682 458 q 556 617 614 582 q 421 651 497 651 q 286 617 346 651 q 193 519 226 582 q 160 376 160 457 l 160 361 q 197 215 160 278 q 299 116 233 151 q 450 81 365 81 q 574 104 517 81 q 674 176 632 128 l 729 113 q 608 24 681 54 q 447 -7 535 -7 m 514 851 q 457 865 482 851 q 412 898 432 879 q 372 931 392 917 q 332 946 353 946 q 281 922 300 946 q 260 857 263 899 l 200 857 q 237 968 203 926 q 325 1010 271 1010 q 383 995 357 1010 q 428 962 408 981 q 467 929 449 943 q 507 915 486 915 q 558 938 539 915 q 579 1001 578 961 l 639 1001 q 603 893 638 935 q 514 851 568 851 z "},"ə":{"ha":839,"x_min":64,"x_max":775,"o":"m 392 736 q 592 688 506 736 q 726 557 678 640 q 775 365 775 474 q 728 173 775 257 q 601 41 682 89 q 418 -7 521 -7 q 235 40 315 -7 q 110 172 156 88 q 64 365 64 256 q 65 379 64 371 q 65 394 65 388 l 700 394 l 700 321 l 118 321 l 157 350 q 191 210 157 272 q 283 113 225 149 q 418 78 342 78 q 553 113 494 78 q 646 211 613 149 q 679 353 679 274 l 679 369 q 642 515 679 453 q 540 614 606 578 q 389 650 475 650 q 264 626 321 650 q 165 553 207 603 l 110 618 q 233 706 160 676 q 392 736 306 736 z "},"ʒ":{"ha":714,"x_min":-31,"x_max":664,"o":"m 314 -278 q 115 -242 207 -278 q -31 -150 22 -207 l 10 -69 q 135 -153 56 -121 q 311 -186 215 -186 q 498 -131 433 -186 q 563 17 563 -76 q 499 165 563 110 q 300 219 436 219 l 231 219 l 231 290 l 535 679 l 543 642 l 3 642 l 3 729 l 624 729 l 624 658 l 321 269 l 279 301 l 317 301 q 577 223 490 301 q 664 17 664 144 q 624 -133 664 -67 q 508 -238 585 -199 q 314 -278 431 -278 z "},"ǯ":{"ha":714,"x_min":-31,"x_max":664,"o":"m 314 -278 q 115 -242 207 -278 q -31 -150 22 -207 l 10 -69 q 135 -153 56 -121 q 311 -186 215 -186 q 498 -131 433 -186 q 563 17 563 -76 q 499 165 563 110 q 300 219 436 219 l 231 219 l 231 290 l 535 679 l 543 642 l 3 642 l 3 729 l 624 729 l 624 658 l 321 269 l 279 301 l 317 301 q 577 223 490 301 q 664 17 664 144 q 624 -133 664 -67 q 508 -238 585 -199 q 314 -278 431 -278 m 257 843 l 78 1015 l 169 1015 l 346 869 l 268 869 l 444 1015 l 536 1015 l 357 843 l 257 843 z "},"f":{"ha":471,"x_min":24,"x_max":521,"o":"m 154 0 l 154 821 q 211 978 154 918 q 375 1038 268 1038 q 456 1026 417 1038 q 521 992 494 1015 l 488 918 q 439 945 467 936 q 379 954 411 954 q 283 919 317 954 q 250 817 250 885 l 250 706 l 253 660 l 253 0 l 154 0 m 24 647 l 24 729 l 475 729 l 475 647 l 24 647 z "},"g":{"ha":951,"x_min":64,"x_max":814,"o":"m 449 -276 q 257 -247 349 -276 q 108 -164 165 -218 l 158 -89 q 285 -162 210 -135 q 446 -189 361 -189 q 650 -124 585 -189 q 715 76 715 -60 l 715 258 l 729 383 l 719 508 l 719 729 l 814 729 l 814 89 q 722 -188 814 -100 q 449 -276 629 -276 m 431 28 q 243 73 326 28 q 112 199 160 118 q 64 383 64 279 q 112 567 64 488 q 243 692 160 647 q 431 736 326 736 q 606 696 528 736 q 729 576 683 656 q 775 383 775 497 q 729 190 775 269 q 606 69 683 111 q 431 28 528 28 m 440 115 q 583 149 521 115 q 682 244 646 183 q 718 383 718 304 q 682 522 718 463 q 583 616 646 582 q 440 650 521 650 q 298 616 361 650 q 199 522 235 582 q 164 383 164 463 q 199 244 164 304 q 298 149 235 183 q 440 115 361 115 z "},"ğ":{"ha":951,"x_min":64,"x_max":814,"o":"m 449 -276 q 257 -247 349 -276 q 108 -164 165 -218 l 158 -89 q 285 -162 210 -135 q 446 -189 361 -189 q 650 -124 585 -189 q 715 76 715 -60 l 715 258 l 729 383 l 719 508 l 719 729 l 814 729 l 814 89 q 722 -188 814 -100 q 449 -276 629 -276 m 431 28 q 243 73 326 28 q 112 199 160 118 q 64 383 64 279 q 112 567 64 488 q 243 692 160 647 q 431 736 326 736 q 606 696 528 736 q 729 576 683 656 q 775 383 775 497 q 729 190 775 269 q 606 69 683 111 q 431 28 528 28 m 440 115 q 583 149 521 115 q 682 244 646 183 q 718 383 718 304 q 682 522 718 463 q 583 616 646 582 q 440 650 521 650 q 298 616 361 650 q 199 522 235 582 q 164 383 164 463 q 199 244 164 304 q 298 149 235 183 q 440 115 361 115 m 451 836 q 303 884 364 836 q 240 1015 243 932 l 310 1015 q 353 929 313 961 q 451 897 394 897 q 551 929 510 897 q 593 1015 592 961 l 663 1015 q 599 884 660 932 q 451 836 539 836 z "},"ǧ":{"ha":951,"x_min":64,"x_max":814,"o":"m 449 -276 q 257 -247 349 -276 q 108 -164 165 -218 l 158 -89 q 285 -162 210 -135 q 446 -189 361 -189 q 650 -124 585 -189 q 715 76 715 -60 l 715 258 l 729 383 l 719 508 l 719 729 l 814 729 l 814 89 q 722 -188 814 -100 q 449 -276 629 -276 m 431 28 q 243 73 326 28 q 112 199 160 118 q 64 383 64 279 q 112 567 64 488 q 243 692 160 647 q 431 736 326 736 q 606 696 528 736 q 729 576 683 656 q 775 383 775 497 q 729 190 775 269 q 606 69 683 111 q 431 28 528 28 m 440 115 q 583 149 521 115 q 682 244 646 183 q 718 383 718 304 q 682 522 718 463 q 583 616 646 582 q 440 650 521 650 q 298 616 361 650 q 199 522 235 582 q 164 383 164 463 q 199 244 164 304 q 298 149 235 183 q 440 115 361 115 m 401 843 l 222 1015 l 314 1015 l 490 869 l 413 869 l 589 1015 l 681 1015 l 501 843 l 401 843 z "},"ĝ":{"ha":951,"x_min":64,"x_max":814,"o":"m 449 -276 q 257 -247 349 -276 q 108 -164 165 -218 l 158 -89 q 285 -162 210 -135 q 446 -189 361 -189 q 650 -124 585 -189 q 715 76 715 -60 l 715 258 l 729 383 l 719 508 l 719 729 l 814 729 l 814 89 q 722 -188 814 -100 q 449 -276 629 -276 m 431 28 q 243 73 326 28 q 112 199 160 118 q 64 383 64 279 q 112 567 64 488 q 243 692 160 647 q 431 736 326 736 q 606 696 528 736 q 729 576 683 656 q 775 383 775 497 q 729 190 775 269 q 606 69 683 111 q 431 28 528 28 m 440 115 q 583 149 521 115 q 682 244 646 183 q 718 383 718 304 q 682 522 718 463 q 583 616 646 582 q 440 650 521 650 q 298 616 361 650 q 199 522 235 582 q 164 383 164 463 q 199 244 164 304 q 298 149 235 183 q 440 115 361 115 m 222 843 l 401 1015 l 501 1015 l 681 843 l 589 843 l 413 990 l 490 990 l 314 843 l 222 843 z "},"ģ":{"ha":951,"x_min":64,"x_max":814,"o":"m 449 -276 q 257 -247 349 -276 q 108 -164 165 -218 l 158 -89 q 285 -162 210 -135 q 446 -189 361 -189 q 650 -124 585 -189 q 715 76 715 -60 l 715 258 l 729 383 l 719 508 l 719 729 l 814 729 l 814 89 q 722 -188 814 -100 q 449 -276 629 -276 m 431 28 q 243 73 326 28 q 112 199 160 118 q 64 383 64 279 q 112 567 64 488 q 243 692 160 647 q 431 736 326 736 q 606 696 528 736 q 729 576 683 656 q 775 383 775 497 q 729 190 775 269 q 606 69 683 111 q 431 28 528 28 m 440 115 q 583 149 521 115 q 682 244 646 183 q 718 383 718 304 q 682 522 718 463 q 583 616 646 582 q 440 650 521 650 q 298 616 361 650 q 199 522 235 582 q 164 383 164 463 q 199 244 164 304 q 298 149 235 183 q 440 115 361 115 m 451 836 q 404 853 421 836 q 388 890 388 869 q 392 918 388 904 q 403 950 396 932 l 451 1085 l 511 1085 l 463 906 l 451 944 q 498 930 481 944 q 515 890 515 915 q 499 852 515 868 q 451 836 482 836 z "},"ġ":{"ha":951,"x_min":64,"x_max":814,"o":"m 449 -276 q 257 -247 349 -276 q 108 -164 165 -218 l 158 -89 q 285 -162 210 -135 q 446 -189 361 -189 q 650 -124 585 -189 q 715 76 715 -60 l 715 258 l 729 383 l 719 508 l 719 729 l 814 729 l 814 89 q 722 -188 814 -100 q 449 -276 629 -276 m 431 28 q 243 73 326 28 q 112 199 160 118 q 64 383 64 279 q 112 567 64 488 q 243 692 160 647 q 431 736 326 736 q 606 696 528 736 q 729 576 683 656 q 775 383 775 497 q 729 190 775 269 q 606 69 683 111 q 431 28 528 28 m 440 115 q 583 149 521 115 q 682 244 646 183 q 718 383 718 304 q 682 522 718 463 q 583 616 646 582 q 440 650 521 650 q 298 616 361 650 q 199 522 235 582 q 164 383 164 463 q 199 244 164 304 q 298 149 235 183 q 440 115 361 115 m 451 875 q 404 894 424 875 q 385 942 385 914 q 404 990 385 971 q 451 1008 424 1008 q 499 990 479 1008 q 518 942 518 971 q 499 894 518 914 q 451 875 479 875 z "},"ḡ":{"ha":951,"x_min":64,"x_max":814,"o":"m 449 -276 q 257 -247 349 -276 q 108 -164 165 -218 l 158 -89 q 285 -162 210 -135 q 446 -189 361 -189 q 650 -124 585 -189 q 715 76 715 -60 l 715 258 l 729 383 l 719 508 l 719 729 l 814 729 l 814 89 q 722 -188 814 -100 q 449 -276 629 -276 m 431 28 q 243 73 326 28 q 112 199 160 118 q 64 383 64 279 q 112 567 64 488 q 243 692 160 647 q 431 736 326 736 q 606 696 528 736 q 729 576 683 656 q 775 383 775 497 q 729 190 775 269 q 606 69 683 111 q 431 28 528 28 m 440 115 q 583 149 521 115 q 682 244 646 183 q 718 383 718 304 q 682 522 718 463 q 583 616 646 582 q 440 650 521 650 q 298 616 361 650 q 199 522 235 582 q 164 383 164 463 q 199 244 164 304 q 298 149 235 183 q 440 115 361 115 m 238 896 l 238 961 l 665 961 l 665 896 l 238 896 z "},"ǥ":{"ha":960,"x_min":64,"x_max":903,"o":"m 449 -276 q 257 -247 349 -276 q 108 -164 165 -218 l 158 -89 q 285 -162 210 -135 q 446 -189 361 -189 q 650 -124 585 -189 q 715 76 715 -60 l 715 258 l 729 383 l 719 508 l 719 729 l 814 729 l 814 89 q 722 -188 814 -100 q 449 -276 629 -276 m 400 -86 l 400 -15 l 903 -15 l 903 -86 l 400 -86 m 431 49 q 243 92 326 49 q 112 214 160 136 q 64 393 64 292 q 112 573 64 496 q 243 693 160 650 q 431 736 326 736 q 606 697 528 736 q 729 581 683 657 q 775 393 775 504 q 729 205 775 282 q 606 88 683 128 q 431 49 528 49 m 440 132 q 583 165 521 132 q 682 258 646 199 q 718 393 718 317 q 682 529 718 471 q 583 620 646 588 q 440 653 521 653 q 298 620 361 653 q 199 529 235 588 q 164 393 164 471 q 199 258 164 317 q 298 165 235 199 q 440 132 361 132 z "},"h":{"ha":939,"x_min":138,"x_max":810,"o":"m 510 736 q 666 702 599 736 q 772 599 733 668 q 810 424 810 529 l 810 0 l 711 0 l 711 414 q 653 588 711 529 q 492 647 596 647 q 356 616 414 647 q 267 526 299 585 q 236 383 236 467 l 236 0 l 138 0 l 138 1031 l 236 1031 l 236 529 l 217 567 q 328 691 251 646 q 510 736 404 736 z "},"ħ":{"ha":939,"x_min":0,"x_max":810,"o":"m 510 736 q 666 702 599 736 q 772 599 733 668 q 810 424 810 529 l 810 0 l 711 0 l 711 414 q 653 588 711 529 q 492 647 596 647 q 356 616 414 647 q 267 526 299 585 q 236 383 236 467 l 236 0 l 138 0 l 138 1031 l 236 1031 l 236 529 l 217 567 q 328 691 251 646 q 510 736 404 736 m 0 843 l 0 915 l 542 915 l 542 843 l 0 843 z "},"ḫ":{"ha":939,"x_min":138,"x_max":810,"o":"m 510 736 q 666 702 599 736 q 772 599 733 668 q 810 424 810 529 l 810 0 l 711 0 l 711 414 q 653 588 711 529 q 492 647 596 647 q 356 616 414 647 q 267 526 299 585 q 236 383 236 467 l 236 0 l 138 0 l 138 1031 l 236 1031 l 236 529 l 217 567 q 328 691 251 646 q 510 736 404 736 m 472 -285 q 324 -239 385 -285 q 261 -117 264 -193 l 328 -117 q 371 -198 329 -168 q 472 -228 413 -228 q 575 -198 533 -228 q 617 -117 617 -168 l 683 -117 q 620 -239 681 -193 q 472 -285 560 -285 z "},"ȟ":{"ha":939,"x_min":-43,"x_max":810,"o":"m 510 736 q 666 702 599 736 q 772 599 733 668 q 810 424 810 529 l 810 0 l 711 0 l 711 414 q 653 588 711 529 q 492 647 596 647 q 356 616 414 647 q 267 526 299 585 q 236 383 236 467 l 236 0 l 138 0 l 138 1031 l 236 1031 l 236 529 l 217 567 q 328 691 251 646 q 510 736 404 736 m 138 1144 l -42 1317 l 50 1317 l 226 1171 l 149 1171 l 325 1317 l 417 1317 l 238 1144 l 138 1144 z "},"ĥ":{"ha":939,"x_min":-43,"x_max":810,"o":"m 510 736 q 666 702 599 736 q 772 599 733 668 q 810 424 810 529 l 810 0 l 711 0 l 711 414 q 653 588 711 529 q 492 647 596 647 q 356 616 414 647 q 267 526 299 585 q 236 383 236 467 l 236 0 l 138 0 l 138 1031 l 236 1031 l 236 529 l 217 567 q 328 691 251 646 q 510 736 404 736 z "},"ḥ":{"ha":939,"x_min":138,"x_max":810,"o":"m 510 736 q 666 702 599 736 q 772 599 733 668 q 810 424 810 529 l 810 0 l 711 0 l 711 414 q 653 588 711 529 q 492 647 596 647 q 356 616 414 647 q 267 526 299 585 q 236 383 236 467 l 236 0 l 138 0 l 138 1031 l 236 1031 l 236 529 l 217 567 q 328 691 251 646 q 510 736 404 736 m 472 -264 q 431 -247 449 -264 q 413 -204 413 -231 q 431 -161 413 -178 q 472 -144 449 -144 q 515 -161 497 -144 q 532 -204 532 -178 q 515 -247 532 -231 q 472 -264 497 -264 z "},"i":{"ha":374,"x_min":115,"x_max":260,"o":"m 138 0 l 138 729 l 236 729 l 236 0 l 138 0 m 188 890 q 136 911 157 890 q 115 961 115 932 q 136 1010 115 990 q 188 1031 157 1031 q 239 1011 218 1031 q 260 963 260 992 q 240 911 260 932 q 188 890 219 890 z "},"ı":{"ha":374,"x_min":138,"x_max":236,"o":"m 138 0 l 138 729 l 236 729 l 236 0 l 138 0 z "},"í":{"ha":374,"x_min":96,"x_max":419,"o":"m 138 0 l 138 729 l 236 729 l 236 0 l 138 0 m 97 843 l 288 1015 l 419 1015 l 194 843 l 97 843 z "},"ĭ":{"ha":374,"x_min":10,"x_max":364,"o":"m 138 0 l 138 729 l 236 729 l 236 0 l 138 0 m 188 836 q 62 884 113 836 q 11 1015 11 932 l 76 1015 q 107 929 76 961 q 188 897 138 897 q 268 929 238 897 q 299 1015 299 961 l 364 1015 q 314 884 364 932 q 188 836 264 836 z "},"î":{"ha":374,"x_min":-8,"x_max":382,"o":"m 138 0 l 138 729 l 236 729 l 236 0 l 138 0 m -7 843 l 139 1015 l 236 1015 l 382 843 l 293 843 l 154 990 l 221 990 l 82 843 l -7 843 z "},"ȉ":{"ha":374,"x_min":-126,"x_max":344,"o":"m 138 0 l 138 729 l 236 729 l 236 0 l 138 0 m 257 843 l 100 1015 l 210 1015 l 344 843 l 257 843 m 31 843 l -125 1015 l -15 1015 l 118 843 l 31 843 z "},"ï":{"ha":374,"x_min":38,"x_max":336,"o":"m 138 0 l 138 729 l 236 729 l 236 0 l 138 0 m 279 875 q 239 892 256 875 q 222 935 222 910 q 239 976 222 958 q 279 993 256 993 q 321 976 304 993 q 338 935 338 960 q 321 892 338 910 q 279 875 304 875 m 96 875 q 54 892 71 875 q 38 935 38 910 q 54 976 38 958 q 96 993 71 993 q 137 976 121 993 q 153 935 153 960 q 137 892 153 910 q 96 875 121 875 z "},"ḯ":{"ha":374,"x_min":7,"x_max":390,"o":"m 138 0 l 138 729 l 236 729 l 236 0 l 138 0 z "},"ị":{"ha":374,"x_min":115,"x_max":260,"o":"m 138 0 l 138 729 l 236 729 l 236 0 l 138 0 m 188 890 q 136 911 157 890 q 115 961 115 932 q 136 1010 115 990 q 188 1031 157 1031 q 239 1011 218 1031 q 260 963 260 992 q 240 911 260 932 q 188 890 219 890 m 188 -264 q 146 -247 164 -264 q 128 -204 128 -231 q 146 -161 128 -178 q 188 -144 164 -144 q 230 -161 213 -144 q 247 -204 247 -178 q 230 -247 247 -231 q 188 -264 213 -264 z "},"ì":{"ha":374,"x_min":-46,"x_max":278,"o":"m 138 0 l 138 729 l 236 729 l 236 0 l 138 0 m 181 843 l -44 1015 l 88 1015 l 278 843 l 181 843 z "},"ỉ":{"ha":374,"x_min":68,"x_max":315,"o":"m 138 0 l 138 729 l 236 729 l 236 0 l 138 0 m 206 833 l 171 876 q 233 919 213 896 q 253 975 253 943 q 232 1024 253 1004 q 176 1043 211 1043 q 93 1017 133 1043 l 69 1065 q 124 1092 93 1083 q 185 1101 156 1101 q 280 1069 243 1101 q 317 982 317 1036 q 290 897 317 933 q 206 833 263 860 z "},"ȋ":{"ha":374,"x_min":10,"x_max":364,"o":"m 138 0 l 138 729 l 236 729 l 236 0 l 138 0 m 11 843 q 62 974 11 926 q 188 1021 113 1021 q 314 974 264 1021 q 364 843 364 926 l 299 843 q 268 929 299 897 q 188 961 238 961 q 107 929 138 961 q 76 843 76 897 l 11 843 z "},"ĳ":{"ha":756,"x_min":115,"x_max":640,"o":"m 138 0 l 138 729 l 236 729 l 236 0 l 138 0 m 188 890 q 136 911 157 890 q 115 961 115 932 q 136 1010 115 990 q 188 1031 157 1031 q 239 1011 218 1031 q 260 963 260 992 q 240 911 260 932 q 188 890 219 890 z "},"ī":{"ha":374,"x_min":13,"x_max":361,"o":"m 138 0 l 138 729 l 236 729 l 236 0 l 138 0 m 13 896 l 13 961 l 363 961 l 363 896 l 13 896 z "},"į":{"ha":374,"x_min":85,"x_max":290,"o":"m 138 0 l 138 729 l 236 729 l 236 0 l 138 0 m 188 890 q 136 911 157 890 q 115 961 115 932 q 136 1010 115 990 q 188 1031 157 1031 q 239 1011 218 1031 q 260 963 260 992 q 240 911 260 932 q 188 890 219 890 m 207 -306 q 117 -271 151 -306 q 83 -179 83 -236 q 108 -74 83 -131 q 200 38 133 -18 l 236 0 q 169 -94 183 -53 q 156 -169 156 -136 q 174 -226 156 -206 q 218 -246 193 -246 q 246 -240 233 -246 q 269 -226 258 -235 l 289 -276 q 207 -306 258 -306 z "},"ĩ":{"ha":374,"x_min":3,"x_max":371,"o":"m 138 0 l 138 729 l 236 729 l 236 0 l 138 0 m 267 851 q 216 865 238 851 q 177 898 194 879 q 145 931 160 917 q 113 946 131 946 q 76 922 89 946 q 63 857 63 899 l 3 857 q 31 969 3 929 q 108 1010 60 1010 q 160 995 139 1010 q 198 963 181 981 q 230 931 215 944 q 263 917 244 917 q 299 940 286 917 q 313 1001 313 963 l 372 1001 q 344 892 372 932 q 267 851 317 851 z "},"j":{"ha":381,"x_min":-125,"x_max":267,"o":"m 29 -276 q -56 -265 -15 -276 q -125 -229 -97 -253 l -90 -154 q 24 -192 -46 -192 q 113 -157 82 -192 q 144 -54 144 -122 l 144 729 l 243 729 l 243 -54 q 188 -216 243 -156 q 29 -276 133 -276 m 194 890 q 143 911 164 890 q 122 961 122 932 q 143 1010 122 990 q 194 1031 164 1031 q 246 1011 225 1031 q 267 963 267 992 q 247 911 267 932 q 194 890 226 890 z "},"ȷ":{"ha":381,"x_min":-125,"x_max":243,"o":"m 29 -276 q -56 -265 -15 -276 q -125 -229 -97 -253 l -90 -154 q 24 -192 -46 -192 q 113 -157 82 -192 q 144 -54 144 -122 l 144 729 l 243 729 l 243 -54 q 188 -216 243 -156 q 29 -276 133 -276 z "},"ĵ":{"ha":381,"x_min":-125,"x_max":389,"o":"m 29 -276 q -56 -265 -15 -276 q -125 -229 -97 -253 l -90 -154 q 24 -192 -46 -192 q 113 -157 82 -192 q 144 -54 144 -122 l 144 729 l 243 729 l 243 -54 q 188 -216 243 -156 q 29 -276 133 -276 m 0 843 l 146 1015 l 243 1015 l 389 843 l 300 843 l 161 990 l 228 990 l 89 843 l 0 843 z "},"k":{"ha":835,"x_min":138,"x_max":824,"o":"m 215 189 l 218 315 l 672 729 l 793 729 l 472 422 l 417 375 l 215 189 m 138 0 l 138 1031 l 236 1031 l 236 0 l 138 0 m 703 0 l 399 379 l 463 456 l 824 0 l 703 0 z "},"ǩ":{"ha":835,"x_min":-43,"x_max":824,"o":"m 215 189 l 218 315 l 672 729 l 793 729 l 472 422 l 417 375 l 215 189 m 138 0 l 138 1031 l 236 1031 l 236 0 l 138 0 m 703 0 l 399 379 l 463 456 l 824 0 l 703 0 m 138 1144 l -42 1317 l 50 1317 l 226 1171 l 149 1171 l 325 1317 l 417 1317 l 238 1144 l 138 1144 z "},"ķ":{"ha":835,"x_min":138,"x_max":824,"o":"m 215 189 l 218 315 l 672 729 l 793 729 l 472 422 l 417 375 l 215 189 m 138 0 l 138 1031 l 236 1031 l 236 0 l 138 0 m 703 0 l 399 379 l 463 456 l 824 0 l 703 0 m 383 -364 l 422 -214 l 432 -253 q 389 -237 406 -253 q 372 -199 372 -222 q 389 -160 372 -175 q 432 -144 406 -144 q 476 -160 460 -144 q 492 -199 492 -176 q 488 -228 492 -212 q 476 -261 485 -243 l 438 -364 l 383 -364 z "},"ĸ":{"ha":819,"x_min":138,"x_max":824,"o":"m 215 189 l 218 315 l 672 729 l 793 729 l 472 422 l 417 375 l 215 189 m 138 0 l 138 729 l 236 729 l 236 0 l 138 0 m 703 0 l 399 379 l 463 456 l 824 0 l 703 0 z "},"l":{"ha":374,"x_min":138,"x_max":236,"o":"m 138 0 l 138 1031 l 236 1031 l 236 0 l 138 0 z "},"ĺ":{"ha":374,"x_min":96,"x_max":419,"o":"m 138 0 l 138 1031 l 236 1031 l 236 0 l 138 0 m 97 1144 l 288 1317 l 419 1317 l 194 1144 l 97 1144 z "},"ľ":{"ha":374,"x_min":138,"x_max":447,"o":"m 138 0 l 138 1031 l 236 1031 l 236 0 l 138 0 m 364 808 l 364 1069 l 447 1069 l 435 808 l 364 808 z "},"ļ":{"ha":374,"x_min":128,"x_max":247,"o":"m 138 0 l 138 1031 l 236 1031 l 236 0 l 138 0 m 139 -364 l 178 -214 l 188 -253 q 144 -237 161 -253 q 128 -199 128 -222 q 144 -160 128 -175 q 188 -144 161 -144 q 231 -160 215 -144 q 247 -199 247 -176 q 244 -228 247 -212 q 232 -261 240 -243 l 193 -364 l 139 -364 z "},"ŀ":{"ha":436,"x_min":138,"x_max":469,"o":"m 138 0 l 138 1031 l 236 1031 l 236 0 l 138 0 m 404 428 q 358 447 376 428 q 339 493 339 467 q 358 539 339 519 q 404 558 376 558 q 451 539 432 558 q 469 493 469 519 q 451 447 469 467 q 404 428 432 428 z "},"ḷ":{"ha":374,"x_min":128,"x_max":247,"o":"m 138 0 l 138 1031 l 236 1031 l 236 0 l 138 0 m 188 -264 q 146 -247 164 -264 q 128 -204 128 -231 q 146 -161 128 -178 q 188 -144 164 -144 q 230 -161 213 -144 q 247 -204 247 -178 q 230 -247 247 -231 q 188 -264 213 -264 z "},"ǉ":{"ha":756,"x_min":138,"x_max":640,"o":"m 138 0 l 138 1031 l 236 1031 l 236 0 l 138 0 m 403 -276 q 317 -265 358 -276 q 249 -229 276 -253 l 283 -154 q 397 -192 328 -192 q 487 -157 456 -192 q 518 -54 518 -122 l 518 729 l 617 729 l 617 -54 q 562 -216 617 -156 q 403 -276 507 -276 m 568 890 q 517 911 538 890 q 496 961 496 932 q 517 1010 496 990 q 568 1031 538 1031 q 619 1011 599 1031 q 640 963 640 992 q 620 911 640 932 q 568 890 600 890 z "},"ḻ":{"ha":374,"x_min":-26,"x_max":401,"o":"m 138 0 l 138 1031 l 236 1031 l 236 0 l 138 0 m -26 -235 l -26 -169 l 401 -169 l 401 -235 l -26 -235 z "},"ł":{"ha":388,"x_min":4,"x_max":385,"o":"m 144 0 l 144 1031 l 243 1031 l 243 0 l 144 0 m 49 338 l 3 397 l 339 650 l 383 589 l 49 338 z "},"m":{"ha":1474,"x_min":138,"x_max":1343,"o":"m 1049 736 q 1203 702 1138 736 q 1306 599 1269 668 q 1343 424 1343 529 l 1343 0 l 1244 0 l 1244 414 q 1190 588 1244 529 q 1035 647 1135 647 q 905 616 960 647 q 820 526 850 585 q 790 383 790 467 l 790 0 l 692 0 l 692 414 q 636 588 692 529 q 481 647 581 647 q 351 616 407 647 q 266 526 296 585 q 236 383 236 467 l 236 0 l 138 0 l 138 729 l 232 729 l 232 532 l 217 567 q 324 691 250 646 q 500 736 399 736 q 682 683 607 736 q 779 522 757 629 l 740 538 q 853 681 772 626 q 1049 736 935 736 z "},"ṃ":{"ha":1474,"x_min":138,"x_max":1343,"o":"m 1049 736 q 1203 702 1138 736 q 1306 599 1269 668 q 1343 424 1343 529 l 1343 0 l 1244 0 l 1244 414 q 1190 588 1244 529 q 1035 647 1135 647 q 905 616 960 647 q 820 526 850 585 q 790 383 790 467 l 790 0 l 692 0 l 692 414 q 636 588 692 529 q 481 647 581 647 q 351 616 407 647 q 266 526 296 585 q 236 383 236 467 l 236 0 l 138 0 l 138 729 l 232 729 l 232 532 l 217 567 q 324 691 250 646 q 500 736 399 736 q 682 683 607 736 q 779 522 757 629 l 740 538 q 853 681 772 626 q 1049 736 935 736 m 739 -264 q 697 -247 715 -264 q 679 -204 679 -231 q 697 -161 679 -178 q 739 -144 715 -144 q 781 -161 764 -144 q 799 -204 799 -178 q 781 -247 799 -231 q 739 -264 764 -264 z "},"n":{"ha":939,"x_min":138,"x_max":810,"o":"m 510 736 q 666 702 599 736 q 772 599 733 668 q 810 424 810 529 l 810 0 l 711 0 l 711 414 q 653 588 711 529 q 492 647 596 647 q 356 616 414 647 q 267 526 299 585 q 236 383 236 467 l 236 0 l 138 0 l 138 729 l 232 729 l 232 529 l 217 567 q 328 691 251 646 q 510 736 404 736 z "},"ń":{"ha":939,"x_min":138,"x_max":810,"o":"m 510 736 q 666 702 599 736 q 772 599 733 668 q 810 424 810 529 l 810 0 l 711 0 l 711 414 q 653 588 711 529 q 492 647 596 647 q 356 616 414 647 q 267 526 299 585 q 236 383 236 467 l 236 0 l 138 0 l 138 729 l 232 729 l 232 529 l 217 567 q 328 691 251 646 q 510 736 404 736 m 382 843 l 572 1015 l 704 1015 l 479 843 l 382 843 z "},"ŉ":{"ha":1001,"x_min":32,"x_max":871,"o":"m 572 736 q 728 702 661 736 q 834 599 796 668 q 872 424 872 529 l 872 0 l 774 0 l 774 414 q 716 588 774 529 q 554 647 658 647 q 419 616 476 647 q 330 526 361 585 q 299 383 299 467 l 299 0 l 200 0 l 200 729 l 294 729 l 294 529 l 279 567 q 390 691 314 646 q 572 736 467 736 z "},"ň":{"ha":939,"x_min":138,"x_max":810,"o":"m 510 736 q 666 702 599 736 q 772 599 733 668 q 810 424 810 529 l 810 0 l 711 0 l 711 414 q 653 588 711 529 q 492 647 596 647 q 356 616 414 647 q 267 526 299 585 q 236 383 236 467 l 236 0 l 138 0 l 138 729 l 232 729 l 232 529 l 217 567 q 328 691 251 646 q 510 736 404 736 m 422 843 l 243 1015 l 335 1015 l 511 869 l 433 869 l 610 1015 l 701 1015 l 522 843 l 422 843 z "},"ņ":{"ha":939,"x_min":138,"x_max":810,"o":"m 510 736 q 666 702 599 736 q 772 599 733 668 q 810 424 810 529 l 810 0 l 711 0 l 711 414 q 653 588 711 529 q 492 647 596 647 q 356 616 414 647 q 267 526 299 585 q 236 383 236 467 l 236 0 l 138 0 l 138 729 l 232 729 l 232 529 l 217 567 q 328 691 251 646 q 510 736 404 736 m 424 -364 l 463 -214 l 472 -253 q 429 -237 446 -253 q 413 -199 413 -222 q 429 -160 413 -175 q 472 -144 446 -144 q 516 -160 500 -144 q 532 -199 532 -176 q 528 -228 532 -212 q 517 -261 525 -243 l 478 -364 l 424 -364 z "},"ṅ":{"ha":939,"x_min":138,"x_max":810,"o":"m 510 736 q 666 702 599 736 q 772 599 733 668 q 810 424 810 529 l 810 0 l 711 0 l 711 414 q 653 588 711 529 q 492 647 596 647 q 356 616 414 647 q 267 526 299 585 q 236 383 236 467 l 236 0 l 138 0 l 138 729 l 232 729 l 232 529 l 217 567 q 328 691 251 646 q 510 736 404 736 m 472 875 q 425 894 444 875 q 406 942 406 914 q 425 990 406 971 q 472 1008 444 1008 q 519 990 500 1008 q 539 942 539 971 q 519 894 539 914 q 472 875 500 875 z "},"ṇ":{"ha":939,"x_min":138,"x_max":810,"o":"m 510 736 q 666 702 599 736 q 772 599 733 668 q 810 424 810 529 l 810 0 l 711 0 l 711 414 q 653 588 711 529 q 492 647 596 647 q 356 616 414 647 q 267 526 299 585 q 236 383 236 467 l 236 0 l 138 0 l 138 729 l 232 729 l 232 529 l 217 567 q 328 691 251 646 q 510 736 404 736 m 472 -264 q 431 -247 449 -264 q 413 -204 413 -231 q 431 -161 413 -178 q 472 -144 449 -144 q 515 -161 497 -144 q 532 -204 532 -178 q 515 -247 532 -231 q 472 -264 497 -264 z "},"ŋ":{"ha":939,"x_min":138,"x_max":810,"o":"m 510 736 q 666 702 599 736 q 772 599 733 668 q 810 424 810 529 l 810 -54 q 754 -216 810 -156 q 596 -276 699 -276 q 510 -265 551 -276 q 442 -229 468 -253 l 476 -154 q 590 -192 519 -192 q 680 -157 649 -192 q 711 -54 711 -122 l 711 414 q 653 588 711 529 q 492 647 596 647 q 356 616 414 647 q 267 526 299 585 q 236 383 236 467 l 236 0 l 138 0 l 138 729 l 232 729 l 232 529 l 217 567 q 328 691 251 646 q 510 736 404 736 z "},"ǌ":{"ha":1321,"x_min":138,"x_max":1206,"o":"m 510 736 q 666 702 599 736 q 772 599 733 668 q 810 424 810 529 l 810 0 l 711 0 l 711 414 q 653 588 711 529 q 492 647 596 647 q 356 616 414 647 q 267 526 299 585 q 236 383 236 467 l 236 0 l 138 0 l 138 729 l 232 729 l 232 529 l 217 567 q 328 691 251 646 q 510 736 404 736 m 968 -276 q 883 -265 924 -276 q 814 -229 842 -253 l 849 -154 q 963 -192 893 -192 q 1052 -157 1021 -192 q 1083 -54 1083 -122 l 1083 729 l 1182 729 l 1182 -54 q 1127 -216 1182 -156 q 968 -276 1072 -276 m 1133 890 q 1082 911 1103 890 q 1061 961 1061 932 q 1082 1010 1061 990 q 1133 1031 1103 1031 q 1185 1011 1164 1031 q 1206 963 1206 992 q 1185 911 1206 932 q 1133 890 1165 890 z "},"ṉ":{"ha":939,"x_min":138,"x_max":810,"o":"m 510 736 q 666 702 599 736 q 772 599 733 668 q 810 424 810 529 l 810 0 l 711 0 l 711 414 q 653 588 711 529 q 492 647 596 647 q 356 616 414 647 q 267 526 299 585 q 236 383 236 467 l 236 0 l 138 0 l 138 729 l 232 729 l 232 529 l 217 567 q 328 691 251 646 q 510 736 404 736 m 258 -235 l 258 -169 l 686 -169 l 686 -235 l 258 -235 z "},"ñ":{"ha":939,"x_min":138,"x_max":810,"o":"m 510 736 q 666 702 599 736 q 772 599 733 668 q 810 424 810 529 l 810 0 l 711 0 l 711 414 q 653 588 711 529 q 492 647 596 647 q 356 616 414 647 q 267 526 299 585 q 236 383 236 467 l 236 0 l 138 0 l 138 729 l 232 729 l 232 529 l 217 567 q 328 691 251 646 q 510 736 404 736 m 567 851 q 510 865 535 851 q 465 898 485 879 q 425 931 444 917 q 385 946 406 946 q 334 922 353 946 q 313 857 315 899 l 253 857 q 290 968 256 926 q 378 1010 324 1010 q 435 995 410 1010 q 481 962 461 981 q 520 929 501 943 q 560 915 539 915 q 611 938 592 915 q 632 1001 631 961 l 692 1001 q 656 893 690 935 q 567 851 621 851 z "},"o":{"ha":871,"x_min":64,"x_max":807,"o":"m 435 -7 q 245 41 329 -7 q 113 173 161 89 q 64 365 64 257 q 113 558 64 475 q 244 689 161 642 q 435 736 328 736 q 627 689 543 736 q 759 558 711 642 q 807 365 807 475 q 759 173 807 257 q 626 41 711 89 q 435 -7 542 -7 m 435 81 q 575 116 514 81 q 672 216 636 151 q 707 365 707 281 q 672 515 707 451 q 575 615 636 579 q 436 650 514 650 q 297 615 358 650 q 200 515 236 579 q 164 365 164 451 q 200 216 164 281 q 297 116 236 151 q 435 81 358 81 z "},"ó":{"ha":871,"x_min":64,"x_max":807,"o":"m 435 -7 q 245 41 329 -7 q 113 173 161 89 q 64 365 64 257 q 113 558 64 475 q 244 689 161 642 q 435 736 328 736 q 627 689 543 736 q 759 558 711 642 q 807 365 807 475 q 759 173 807 257 q 626 41 711 89 q 435 -7 542 -7 m 435 81 q 575 116 514 81 q 672 216 636 151 q 707 365 707 281 q 672 515 707 451 q 575 615 636 579 q 436 650 514 650 q 297 615 358 650 q 200 515 236 579 q 164 365 164 451 q 200 216 164 281 q 297 116 236 151 q 435 81 358 81 m 344 843 l 535 1015 l 667 1015 l 442 843 l 344 843 z "},"ŏ":{"ha":871,"x_min":64,"x_max":807,"o":"m 435 -7 q 245 41 329 -7 q 113 173 161 89 q 64 365 64 257 q 113 558 64 475 q 244 689 161 642 q 435 736 328 736 q 627 689 543 736 q 759 558 711 642 q 807 365 807 475 q 759 173 807 257 q 626 41 711 89 q 435 -7 542 -7 m 435 81 q 575 116 514 81 q 672 216 636 151 q 707 365 707 281 q 672 515 707 451 q 575 615 636 579 q 436 650 514 650 q 297 615 358 650 q 200 515 236 579 q 164 365 164 451 q 200 216 164 281 q 297 116 236 151 q 435 81 358 81 m 435 836 q 287 884 347 836 q 224 1015 226 932 l 293 1015 q 337 929 296 961 q 435 897 378 897 q 534 929 493 897 q 576 1015 575 961 l 646 1015 q 583 884 643 932 q 435 836 522 836 z "},"ô":{"ha":871,"x_min":64,"x_max":807,"o":"m 435 -7 q 245 41 329 -7 q 113 173 161 89 q 64 365 64 257 q 113 558 64 475 q 244 689 161 642 q 435 736 328 736 q 627 689 543 736 q 759 558 711 642 q 807 365 807 475 q 759 173 807 257 q 626 41 711 89 q 435 -7 542 -7 m 435 81 q 575 116 514 81 q 672 216 636 151 q 707 365 707 281 q 672 515 707 451 q 575 615 636 579 q 436 650 514 650 q 297 615 358 650 q 200 515 236 579 q 164 365 164 451 q 200 216 164 281 q 297 116 236 151 q 435 81 358 81 m 206 843 l 385 1015 l 485 1015 l 664 843 l 572 843 l 396 990 l 474 990 l 297 843 l 206 843 z "},"ố":{"ha":871,"x_min":64,"x_max":850,"o":"m 435 -7 q 245 41 329 -7 q 113 173 161 89 q 64 365 64 257 q 113 558 64 475 q 244 689 161 642 q 435 736 328 736 q 627 689 543 736 q 759 558 711 642 q 807 365 807 475 q 759 173 807 257 q 626 41 711 89 q 435 -7 542 -7 m 435 81 q 575 116 514 81 q 672 216 636 151 q 707 365 707 281 q 672 515 707 451 q 575 615 636 579 q 436 650 514 650 q 297 615 358 650 q 200 515 236 579 q 164 365 164 451 q 200 216 164 281 q 297 116 236 151 q 435 81 358 81 z "},"ộ":{"ha":871,"x_min":64,"x_max":807,"o":"m 435 -7 q 245 41 329 -7 q 113 173 161 89 q 64 365 64 257 q 113 558 64 475 q 244 689 161 642 q 435 736 328 736 q 627 689 543 736 q 759 558 711 642 q 807 365 807 475 q 759 173 807 257 q 626 41 711 89 q 435 -7 542 -7 m 435 81 q 575 116 514 81 q 672 216 636 151 q 707 365 707 281 q 672 515 707 451 q 575 615 636 579 q 436 650 514 650 q 297 615 358 650 q 200 515 236 579 q 164 365 164 451 q 200 216 164 281 q 297 116 236 151 q 435 81 358 81 m 435 -264 q 393 -247 411 -264 q 375 -204 375 -231 q 393 -161 375 -178 q 435 -144 411 -144 q 477 -161 460 -144 q 494 -204 494 -178 q 477 -247 494 -231 q 435 -264 460 -264 m 206 843 l 385 1015 l 485 1015 l 664 843 l 572 843 l 396 990 l 474 990 l 297 843 l 206 843 z "},"ồ":{"ha":871,"x_min":64,"x_max":807,"o":"m 435 -7 q 245 41 329 -7 q 113 173 161 89 q 64 365 64 257 q 113 558 64 475 q 244 689 161 642 q 435 736 328 736 q 627 689 543 736 q 759 558 711 642 q 807 365 807 475 q 759 173 807 257 q 626 41 711 89 q 435 -7 542 -7 m 435 81 q 575 116 514 81 q 672 216 636 151 q 707 365 707 281 q 672 515 707 451 q 575 615 636 579 q 436 650 514 650 q 297 615 358 650 q 200 515 236 579 q 164 365 164 451 q 200 216 164 281 q 297 116 236 151 q 435 81 358 81 z "},"ổ":{"ha":871,"x_min":64,"x_max":807,"o":"m 435 -7 q 245 41 329 -7 q 113 173 161 89 q 64 365 64 257 q 113 558 64 475 q 244 689 161 642 q 435 736 328 736 q 627 689 543 736 q 759 558 711 642 q 807 365 807 475 q 759 173 807 257 q 626 41 711 89 q 435 -7 542 -7 m 435 81 q 575 116 514 81 q 672 216 636 151 q 707 365 707 281 q 672 515 707 451 q 575 615 636 579 q 436 650 514 650 q 297 615 358 650 q 200 515 236 579 q 164 365 164 451 q 200 216 164 281 q 297 116 236 151 q 435 81 358 81 z "},"ỗ":{"ha":871,"x_min":64,"x_max":807,"o":"m 435 -7 q 245 41 329 -7 q 113 173 161 89 q 64 365 64 257 q 113 558 64 475 q 244 689 161 642 q 435 736 328 736 q 627 689 543 736 q 759 558 711 642 q 807 365 807 475 q 759 173 807 257 q 626 41 711 89 q 435 -7 542 -7 m 435 81 q 575 116 514 81 q 672 216 636 151 q 707 365 707 281 q 672 515 707 451 q 575 615 636 579 q 436 650 514 650 q 297 615 358 650 q 200 515 236 579 q 164 365 164 451 q 200 216 164 281 q 297 116 236 151 q 435 81 358 81 z "},"ȍ":{"ha":871,"x_min":64,"x_max":807,"o":"m 435 -7 q 245 41 329 -7 q 113 173 161 89 q 64 365 64 257 q 113 558 64 475 q 244 689 161 642 q 435 736 328 736 q 627 689 543 736 q 759 558 711 642 q 807 365 807 475 q 759 173 807 257 q 626 41 711 89 q 435 -7 542 -7 m 435 81 q 575 116 514 81 q 672 216 636 151 q 707 365 707 281 q 672 515 707 451 q 575 615 636 579 q 436 650 514 650 q 297 615 358 650 q 200 515 236 579 q 164 365 164 451 q 200 216 164 281 q 297 116 236 151 q 435 81 358 81 m 504 843 l 347 1015 l 457 1015 l 592 843 l 504 843 m 278 843 l 122 1015 l 232 1015 l 365 843 l 278 843 z "},"ö":{"ha":871,"x_min":64,"x_max":807,"o":"m 435 -7 q 245 41 329 -7 q 113 173 161 89 q 64 365 64 257 q 113 558 64 475 q 244 689 161 642 q 435 736 328 736 q 627 689 543 736 q 759 558 711 642 q 807 365 807 475 q 759 173 807 257 q 626 41 711 89 q 435 -7 542 -7 m 435 81 q 575 116 514 81 q 672 216 636 151 q 707 365 707 281 q 672 515 707 451 q 575 615 636 579 q 436 650 514 650 q 297 615 358 650 q 200 515 236 579 q 164 365 164 451 q 200 216 164 281 q 297 116 236 151 q 435 81 358 81 m 558 875 q 517 892 535 875 q 499 935 499 908 q 517 978 499 961 q 558 994 535 994 q 601 978 583 994 q 618 935 618 961 q 601 892 618 908 q 558 875 583 875 m 311 875 q 269 892 286 875 q 251 935 251 908 q 269 978 251 961 q 311 994 286 994 q 353 978 335 994 q 371 935 371 961 q 353 892 371 908 q 311 875 335 875 z "},"ȫ":{"ha":871,"x_min":64,"x_max":807,"o":"m 435 -7 q 245 41 329 -7 q 113 173 161 89 q 64 365 64 257 q 113 558 64 475 q 244 689 161 642 q 435 736 328 736 q 627 689 543 736 q 759 558 711 642 q 807 365 807 475 q 759 173 807 257 q 626 41 711 89 q 435 -7 542 -7 m 435 81 q 575 116 514 81 q 672 216 636 151 q 707 365 707 281 q 672 515 707 451 q 575 615 636 579 q 436 650 514 650 q 297 615 358 650 q 200 515 236 579 q 164 365 164 451 q 200 216 164 281 q 297 116 236 151 q 435 81 358 81 z "},"ȱ":{"ha":871,"x_min":64,"x_max":807,"o":"m 435 -7 q 245 41 329 -7 q 113 173 161 89 q 64 365 64 257 q 113 558 64 475 q 244 689 161 642 q 435 736 328 736 q 627 689 543 736 q 759 558 711 642 q 807 365 807 475 q 759 173 807 257 q 626 41 711 89 q 435 -7 542 -7 m 435 81 q 575 116 514 81 q 672 216 636 151 q 707 365 707 281 q 672 515 707 451 q 575 615 636 579 q 436 650 514 650 q 297 615 358 650 q 200 515 236 579 q 164 365 164 451 q 200 216 164 281 q 297 116 236 151 q 435 81 358 81 z "},"ọ":{"ha":871,"x_min":64,"x_max":807,"o":"m 435 -7 q 245 41 329 -7 q 113 173 161 89 q 64 365 64 257 q 113 558 64 475 q 244 689 161 642 q 435 736 328 736 q 627 689 543 736 q 759 558 711 642 q 807 365 807 475 q 759 173 807 257 q 626 41 711 89 q 435 -7 542 -7 m 435 81 q 575 116 514 81 q 672 216 636 151 q 707 365 707 281 q 672 515 707 451 q 575 615 636 579 q 436 650 514 650 q 297 615 358 650 q 200 515 236 579 q 164 365 164 451 q 200 216 164 281 q 297 116 236 151 q 435 81 358 81 m 435 -264 q 393 -247 411 -264 q 375 -204 375 -231 q 393 -161 375 -178 q 435 -144 411 -144 q 477 -161 460 -144 q 494 -204 494 -178 q 477 -247 494 -231 q 435 -264 460 -264 z "},"ò":{"ha":871,"x_min":64,"x_max":807,"o":"m 435 -7 q 245 41 329 -7 q 113 173 161 89 q 64 365 64 257 q 113 558 64 475 q 244 689 161 642 q 435 736 328 736 q 627 689 543 736 q 759 558 711 642 q 807 365 807 475 q 759 173 807 257 q 626 41 711 89 q 435 -7 542 -7 m 435 81 q 575 116 514 81 q 672 216 636 151 q 707 365 707 281 q 672 515 707 451 q 575 615 636 579 q 436 650 514 650 q 297 615 358 650 q 200 515 236 579 q 164 365 164 451 q 200 216 164 281 q 297 116 236 151 q 435 81 358 81 m 428 843 l 203 1015 l 335 1015 l 525 843 l 428 843 z "},"ỏ":{"ha":871,"x_min":64,"x_max":807,"o":"m 435 -7 q 245 41 329 -7 q 113 173 161 89 q 64 365 64 257 q 113 558 64 475 q 244 689 161 642 q 435 736 328 736 q 627 689 543 736 q 759 558 711 642 q 807 365 807 475 q 759 173 807 257 q 626 41 711 89 q 435 -7 542 -7 m 435 81 q 575 116 514 81 q 672 216 636 151 q 707 365 707 281 q 672 515 707 451 q 575 615 636 579 q 436 650 514 650 q 297 615 358 650 q 200 515 236 579 q 164 365 164 451 q 200 216 164 281 q 297 116 236 151 q 435 81 358 81 m 453 833 l 418 876 q 480 919 460 896 q 500 975 500 943 q 479 1024 500 1004 q 424 1043 458 1043 q 340 1017 381 1043 l 317 1065 q 372 1092 340 1083 q 432 1101 403 1101 q 527 1069 490 1101 q 564 982 564 1036 q 537 897 564 933 q 453 833 510 860 z "},"ơ":{"ha":871,"x_min":64,"x_max":807,"o":"m 435 -7 q 244 41 328 -7 q 113 173 161 89 q 64 365 64 257 q 113 558 64 475 q 245 688 161 640 q 436 736 329 736 q 499 735 474 736 q 551 731 525 733 q 608 728 576 728 q 694 757 667 728 q 721 825 721 786 q 713 873 721 851 q 693 914 704 894 l 757 939 q 783 885 774 915 q 793 822 793 854 q 772 738 793 775 q 708 681 750 701 q 603 660 665 660 q 566 662 585 660 q 524 667 547 664 l 572 713 q 742 583 678 675 q 807 365 807 490 q 759 173 807 257 q 627 41 711 89 q 435 -7 543 -7 m 435 81 q 574 116 513 81 q 672 216 636 151 q 707 365 707 281 q 672 515 707 451 q 575 615 636 579 q 435 650 514 650 q 297 615 358 650 q 200 515 236 579 q 164 365 164 451 q 200 216 164 281 q 297 116 236 151 q 435 81 358 81 z "},"ớ":{"ha":871,"x_min":64,"x_max":807,"o":"m 435 -7 q 244 41 328 -7 q 113 173 161 89 q 64 365 64 257 q 113 558 64 475 q 245 688 161 640 q 436 736 329 736 q 499 735 474 736 q 551 731 525 733 q 608 728 576 728 q 694 757 667 728 q 721 825 721 786 q 713 873 721 851 q 693 914 704 894 l 757 939 q 783 885 774 915 q 793 822 793 854 q 772 738 793 775 q 708 681 750 701 q 603 660 665 660 q 566 662 585 660 q 524 667 547 664 l 572 713 q 742 583 678 675 q 807 365 807 490 q 759 173 807 257 q 627 41 711 89 q 435 -7 543 -7 m 435 81 q 574 116 513 81 q 672 216 636 151 q 707 365 707 281 q 672 515 707 451 q 575 615 636 579 q 435 650 514 650 q 297 615 358 650 q 200 515 236 579 q 164 365 164 451 q 200 216 164 281 q 297 116 236 151 q 435 81 358 81 m 344 843 l 535 1015 l 667 1015 l 442 843 l 344 843 z "},"ợ":{"ha":871,"x_min":64,"x_max":807,"o":"m 435 -7 q 244 41 328 -7 q 113 173 161 89 q 64 365 64 257 q 113 558 64 475 q 245 688 161 640 q 436 736 329 736 q 499 735 474 736 q 551 731 525 733 q 608 728 576 728 q 694 757 667 728 q 721 825 721 786 q 713 873 721 851 q 693 914 704 894 l 757 939 q 783 885 774 915 q 793 822 793 854 q 772 738 793 775 q 708 681 750 701 q 603 660 665 660 q 566 662 585 660 q 524 667 547 664 l 572 713 q 742 583 678 675 q 807 365 807 490 q 759 173 807 257 q 627 41 711 89 q 435 -7 543 -7 m 435 81 q 574 116 513 81 q 672 216 636 151 q 707 365 707 281 q 672 515 707 451 q 575 615 636 579 q 435 650 514 650 q 297 615 358 650 q 200 515 236 579 q 164 365 164 451 q 200 216 164 281 q 297 116 236 151 q 435 81 358 81 m 435 -264 q 393 -247 411 -264 q 375 -204 375 -231 q 393 -161 375 -178 q 435 -144 411 -144 q 477 -161 460 -144 q 494 -204 494 -178 q 477 -247 494 -231 q 435 -264 460 -264 z "},"ờ":{"ha":871,"x_min":64,"x_max":807,"o":"m 435 -7 q 244 41 328 -7 q 113 173 161 89 q 64 365 64 257 q 113 558 64 475 q 245 688 161 640 q 436 736 329 736 q 499 735 474 736 q 551 731 525 733 q 608 728 576 728 q 694 757 667 728 q 721 825 721 786 q 713 873 721 851 q 693 914 704 894 l 757 939 q 783 885 774 915 q 793 822 793 854 q 772 738 793 775 q 708 681 750 701 q 603 660 665 660 q 566 662 585 660 q 524 667 547 664 l 572 713 q 742 583 678 675 q 807 365 807 490 q 759 173 807 257 q 627 41 711 89 q 435 -7 543 -7 m 435 81 q 574 116 513 81 q 672 216 636 151 q 707 365 707 281 q 672 515 707 451 q 575 615 636 579 q 435 650 514 650 q 297 615 358 650 q 200 515 236 579 q 164 365 164 451 q 200 216 164 281 q 297 116 236 151 q 435 81 358 81 m 428 843 l 203 1015 l 335 1015 l 525 843 l 428 843 z "},"ở":{"ha":871,"x_min":64,"x_max":807,"o":"m 435 -7 q 244 41 328 -7 q 113 173 161 89 q 64 365 64 257 q 113 558 64 475 q 245 688 161 640 q 436 736 329 736 q 499 735 474 736 q 551 731 525 733 q 608 728 576 728 q 694 757 667 728 q 721 825 721 786 q 713 873 721 851 q 693 914 704 894 l 757 939 q 783 885 774 915 q 793 822 793 854 q 772 738 793 775 q 708 681 750 701 q 603 660 665 660 q 566 662 585 660 q 524 667 547 664 l 572 713 q 742 583 678 675 q 807 365 807 490 q 759 173 807 257 q 627 41 711 89 q 435 -7 543 -7 m 435 81 q 574 116 513 81 q 672 216 636 151 q 707 365 707 281 q 672 515 707 451 q 575 615 636 579 q 435 650 514 650 q 297 615 358 650 q 200 515 236 579 q 164 365 164 451 q 200 216 164 281 q 297 116 236 151 q 435 81 358 81 m 453 833 l 418 876 q 480 919 460 896 q 500 975 500 943 q 479 1024 500 1004 q 424 1043 458 1043 q 340 1017 381 1043 l 317 1065 q 372 1092 340 1083 q 432 1101 403 1101 q 527 1069 490 1101 q 564 982 564 1036 q 537 897 564 933 q 453 833 510 860 z "},"ỡ":{"ha":876,"x_min":64,"x_max":807,"o":"m 526 851 q 472 865 496 851 q 429 898 449 879 q 392 931 410 917 q 353 946 374 946 q 306 922 324 946 q 286 857 288 899 l 231 857 q 264 968 232 926 q 349 1010 296 1010 q 401 995 378 1010 q 444 962 425 981 q 482 929 464 943 q 519 915 500 915 q 569 938 550 915 q 589 1001 588 961 l 644 1001 q 610 893 642 935 q 526 851 578 851 m 435 -7 q 244 41 328 -7 q 113 173 161 89 q 64 365 64 257 q 113 558 64 475 q 245 688 161 640 q 436 736 329 736 q 499 735 474 736 q 551 731 525 733 q 608 728 576 728 q 694 757 667 728 q 721 825 721 786 q 713 873 721 851 q 693 914 704 894 l 757 939 q 783 885 774 915 q 793 822 793 854 q 772 738 793 775 q 708 681 750 701 q 603 660 665 660 q 566 662 585 660 q 524 667 547 664 l 572 713 q 742 583 678 675 q 807 365 807 490 q 759 173 807 257 q 627 41 711 89 q 435 -7 543 -7 m 435 81 q 574 116 513 81 q 672 216 636 151 q 707 365 707 281 q 672 515 707 451 q 575 615 636 579 q 435 650 514 650 q 297 615 358 650 q 200 515 236 579 q 164 365 164 451 q 200 216 164 281 q 297 116 236 151 q 435 81 358 81 z "},"ő":{"ha":871,"x_min":64,"x_max":807,"o":"m 435 -7 q 245 41 329 -7 q 113 173 161 89 q 64 365 64 257 q 113 558 64 475 q 244 689 161 642 q 435 736 328 736 q 627 689 543 736 q 759 558 711 642 q 807 365 807 475 q 759 173 807 257 q 626 41 711 89 q 435 -7 542 -7 m 435 81 q 575 116 514 81 q 672 216 636 151 q 707 365 707 281 q 672 515 707 451 q 575 615 636 579 q 436 650 514 650 q 297 615 358 650 q 200 515 236 579 q 164 365 164 451 q 200 216 164 281 q 297 116 236 151 q 435 81 358 81 m 504 843 l 638 1015 l 747 1015 l 592 843 l 504 843 m 278 843 l 413 1015 l 522 1015 l 365 843 l 278 843 z "},"ȏ":{"ha":871,"x_min":64,"x_max":807,"o":"m 435 -7 q 245 41 329 -7 q 113 173 161 89 q 64 365 64 257 q 113 558 64 475 q 244 689 161 642 q 435 736 328 736 q 627 689 543 736 q 759 558 711 642 q 807 365 807 475 q 759 173 807 257 q 626 41 711 89 q 435 -7 542 -7 m 435 81 q 575 116 514 81 q 672 216 636 151 q 707 365 707 281 q 672 515 707 451 q 575 615 636 579 q 436 650 514 650 q 297 615 358 650 q 200 515 236 579 q 164 365 164 451 q 200 216 164 281 q 297 116 236 151 q 435 81 358 81 m 224 843 q 287 974 226 926 q 435 1021 347 1021 q 583 974 522 1021 q 646 843 643 926 l 576 843 q 534 929 575 897 q 435 961 493 961 q 337 929 378 961 q 293 843 296 897 l 224 843 z "},"ō":{"ha":871,"x_min":64,"x_max":807,"o":"m 435 -7 q 245 41 329 -7 q 113 173 161 89 q 64 365 64 257 q 113 558 64 475 q 244 689 161 642 q 435 736 328 736 q 627 689 543 736 q 759 558 711 642 q 807 365 807 475 q 759 173 807 257 q 626 41 711 89 q 435 -7 542 -7 m 435 81 q 575 116 514 81 q 672 216 636 151 q 707 365 707 281 q 672 515 707 451 q 575 615 636 579 q 436 650 514 650 q 297 615 358 650 q 200 515 236 579 q 164 365 164 451 q 200 216 164 281 q 297 116 236 151 q 435 81 358 81 m 221 896 l 221 961 l 649 961 l 649 896 l 221 896 z "},"ṓ":{"ha":871,"x_min":64,"x_max":807,"o":"m 435 -7 q 245 41 329 -7 q 113 173 161 89 q 64 365 64 257 q 113 558 64 475 q 244 689 161 642 q 435 736 328 736 q 627 689 543 736 q 759 558 711 642 q 807 365 807 475 q 759 173 807 257 q 626 41 711 89 q 435 -7 542 -7 m 435 81 q 575 116 514 81 q 672 216 636 151 q 707 365 707 281 q 672 515 707 451 q 575 615 636 579 q 436 650 514 650 q 297 615 358 650 q 200 515 236 579 q 164 365 164 451 q 200 216 164 281 q 297 116 236 151 q 435 81 358 81 z "},"ṑ":{"ha":871,"x_min":64,"x_max":807,"o":"m 435 -7 q 245 41 329 -7 q 113 173 161 89 q 64 365 64 257 q 113 558 64 475 q 244 689 161 642 q 435 736 328 736 q 627 689 543 736 q 759 558 711 642 q 807 365 807 475 q 759 173 807 257 q 626 41 711 89 q 435 -7 542 -7 m 435 81 q 575 116 514 81 q 672 216 636 151 q 707 365 707 281 q 672 515 707 451 q 575 615 636 579 q 436 650 514 650 q 297 615 358 650 q 200 515 236 579 q 164 365 164 451 q 200 216 164 281 q 297 116 236 151 q 435 81 358 81 z "},"ǫ":{"ha":871,"x_min":64,"x_max":807,"o":"m 475 -306 q 364 -269 406 -306 q 322 -176 322 -233 q 339 -103 322 -140 q 397 -29 356 -65 q 511 38 439 7 l 513 0 q 470 -6 488 -4 q 435 -7 453 -7 q 244 41 328 -7 q 113 173 161 89 q 64 365 64 257 q 113 558 64 475 q 244 688 161 640 q 435 736 328 736 q 627 688 543 736 q 759 558 711 640 q 807 365 807 475 q 749 157 807 246 q 592 24 690 68 q 467 -47 508 -14 q 410 -110 425 -81 q 396 -167 396 -139 q 422 -225 396 -206 q 486 -244 447 -244 q 531 -237 508 -244 q 571 -218 554 -231 l 593 -272 q 539 -297 569 -287 q 475 -306 508 -306 m 435 81 q 575 116 514 81 q 672 216 636 151 q 707 365 707 281 q 672 515 707 451 q 575 615 636 579 q 435 650 514 650 q 297 615 358 650 q 200 515 236 579 q 164 365 164 451 q 200 216 164 281 q 297 116 236 151 q 435 81 358 81 z "},"ø":{"ha":871,"x_min":64,"x_max":807,"o":"m 435 -7 q 245 41 329 -7 q 113 173 161 89 q 64 365 64 257 q 113 558 64 475 q 244 689 161 642 q 435 736 328 736 q 627 689 543 736 q 759 558 711 642 q 807 365 807 475 q 759 173 807 257 q 626 41 711 89 q 435 -7 542 -7 m 435 81 q 575 116 514 81 q 672 216 636 151 q 707 365 707 281 q 672 515 707 451 q 575 615 636 579 q 436 650 514 650 q 297 615 358 650 q 200 515 236 579 q 164 365 164 451 q 200 216 164 281 q 297 116 236 151 q 435 81 358 81 m 93 -99 l 708 825 l 774 825 l 160 -99 l 93 -99 z "},"ǿ":{"ha":871,"x_min":64,"x_max":807,"o":"m 435 -7 q 245 41 329 -7 q 113 173 161 89 q 64 365 64 257 q 113 558 64 475 q 244 689 161 642 q 435 736 328 736 q 627 689 543 736 q 759 558 711 642 q 807 365 807 475 q 759 173 807 257 q 626 41 711 89 q 435 -7 542 -7 m 435 81 q 575 116 514 81 q 672 216 636 151 q 707 365 707 281 q 672 515 707 451 q 575 615 636 579 q 436 650 514 650 q 297 615 358 650 q 200 515 236 579 q 164 365 164 451 q 200 216 164 281 q 297 116 236 151 q 435 81 358 81 m 93 -99 l 708 825 l 774 825 l 160 -99 l 93 -99 m 343 843 l 533 1015 l 665 1015 l 440 843 l 343 843 z "},"õ":{"ha":871,"x_min":64,"x_max":807,"o":"m 435 -7 q 245 41 329 -7 q 113 173 161 89 q 64 365 64 257 q 113 558 64 475 q 244 689 161 642 q 435 736 328 736 q 627 689 543 736 q 759 558 711 642 q 807 365 807 475 q 759 173 807 257 q 626 41 711 89 q 435 -7 542 -7 m 435 81 q 575 116 514 81 q 672 216 636 151 q 707 365 707 281 q 672 515 707 451 q 575 615 636 579 q 436 650 514 650 q 297 615 358 650 q 200 515 236 579 q 164 365 164 451 q 200 216 164 281 q 297 116 236 151 q 435 81 358 81 m 529 851 q 472 865 497 851 q 427 898 447 879 q 388 931 407 917 q 347 946 368 946 q 297 922 315 946 q 275 857 278 899 l 215 857 q 252 968 218 926 q 340 1010 286 1010 q 398 995 372 1010 q 444 962 424 981 q 483 929 464 943 q 522 915 501 915 q 574 938 554 915 q 594 1001 593 961 l 654 1001 q 618 893 653 935 q 529 851 583 851 z "},"ṍ":{"ha":871,"x_min":64,"x_max":807,"o":"m 435 -7 q 245 41 329 -7 q 113 173 161 89 q 64 365 64 257 q 113 558 64 475 q 244 689 161 642 q 435 736 328 736 q 627 689 543 736 q 759 558 711 642 q 807 365 807 475 q 759 173 807 257 q 626 41 711 89 q 435 -7 542 -7 m 435 81 q 575 116 514 81 q 672 216 636 151 q 707 365 707 281 q 672 515 707 451 q 575 615 636 579 q 436 650 514 650 q 297 615 358 650 q 200 515 236 579 q 164 365 164 451 q 200 216 164 281 q 297 116 236 151 q 435 81 358 81 z "},"ṏ":{"ha":871,"x_min":64,"x_max":807,"o":"m 435 -7 q 245 41 329 -7 q 113 173 161 89 q 64 365 64 257 q 113 558 64 475 q 244 689 161 642 q 435 736 328 736 q 627 689 543 736 q 759 558 711 642 q 807 365 807 475 q 759 173 807 257 q 626 41 711 89 q 435 -7 542 -7 m 435 81 q 575 116 514 81 q 672 216 636 151 q 707 365 707 281 q 672 515 707 451 q 575 615 636 579 q 436 650 514 650 q 297 615 358 650 q 200 515 236 579 q 164 365 164 451 q 200 216 164 281 q 297 116 236 151 q 435 81 358 81 z "},"ȭ":{"ha":871,"x_min":64,"x_max":807,"o":"m 435 -7 q 245 41 329 -7 q 113 173 161 89 q 64 365 64 257 q 113 558 64 475 q 244 689 161 642 q 435 736 328 736 q 627 689 543 736 q 759 558 711 642 q 807 365 807 475 q 759 173 807 257 q 626 41 711 89 q 435 -7 542 -7 m 435 81 q 575 116 514 81 q 672 216 636 151 q 707 365 707 281 q 672 515 707 451 q 575 615 636 579 q 436 650 514 650 q 297 615 358 650 q 200 515 236 579 q 164 365 164 451 q 200 216 164 281 q 297 116 236 151 q 435 81 358 81 z "},"œ":{"ha":1483,"x_min":64,"x_max":1419,"o":"m 435 -7 q 244 41 328 -7 q 113 173 161 89 q 64 365 64 257 q 113 558 64 475 q 244 688 161 640 q 435 736 328 736 q 624 688 543 736 q 751 558 706 640 q 797 365 797 475 q 751 173 797 257 q 624 41 706 89 q 435 -7 543 -7 m 435 81 q 575 116 514 81 q 672 216 636 151 q 707 365 707 281 q 672 515 707 451 q 575 615 636 579 q 435 650 514 650 q 297 615 358 650 q 200 515 236 579 q 164 365 164 451 q 200 216 164 281 q 297 116 236 151 q 435 81 358 81 m 1092 -7 q 894 41 979 -7 q 761 173 808 89 q 714 365 714 257 q 759 557 714 474 q 883 688 804 640 q 1065 736 963 736 q 1248 690 1168 736 q 1374 559 1328 643 q 1419 365 1419 475 q 1419 351 1419 358 q 1418 335 1418 343 l 783 335 l 783 408 l 1365 408 l 1326 379 q 1292 520 1326 458 q 1200 617 1258 582 q 1065 651 1142 651 q 931 617 989 651 q 838 519 872 582 q 804 376 804 457 l 804 361 q 841 215 804 278 q 944 116 878 151 q 1094 81 1010 81 q 1219 104 1161 81 q 1317 176 1276 128 l 1372 113 q 1251 24 1324 54 q 1092 -7 1179 -7 z "},"p":{"ha":942,"x_min":138,"x_max":878,"o":"m 514 -7 q 343 37 419 -7 q 222 163 267 81 q 176 365 176 246 q 221 567 176 485 q 342 693 265 650 q 514 736 418 736 q 701 690 618 736 q 831 559 783 643 q 878 365 878 475 q 831 171 878 254 q 701 40 783 88 q 514 -7 618 -7 m 138 -269 l 138 729 l 232 729 l 232 510 l 222 364 l 236 217 l 236 -269 l 138 -269 m 507 81 q 646 116 585 81 q 743 216 707 151 q 779 365 779 281 q 743 514 779 450 q 646 614 707 578 q 507 650 585 650 q 367 614 429 650 q 270 514 306 578 q 235 365 235 450 q 270 216 235 281 q 367 116 306 151 q 507 81 429 81 z "},"þ":{"ha":942,"x_min":138,"x_max":878,"o":"m 514 -7 q 343 37 419 -7 q 222 163 267 81 q 176 365 176 246 q 221 567 176 485 q 342 693 265 650 q 514 736 418 736 q 701 690 618 736 q 831 559 783 643 q 878 365 878 475 q 831 171 878 254 q 701 40 783 88 q 514 -7 618 -7 m 138 -269 l 138 1031 l 236 1031 l 236 510 l 222 364 l 236 217 l 236 -269 l 138 -269 m 507 81 q 646 116 585 81 q 743 216 707 151 q 779 365 779 281 q 743 514 779 450 q 646 614 707 578 q 507 650 585 650 q 367 614 429 650 q 270 514 306 578 q 235 365 235 450 q 270 216 235 281 q 367 116 306 151 q 507 81 429 81 z "},"q":{"ha":942,"x_min":64,"x_max":804,"o":"m 428 -7 q 241 40 324 -7 q 111 171 158 88 q 64 365 64 254 q 111 559 64 475 q 241 690 158 643 q 428 736 324 736 q 601 693 525 736 q 721 567 676 650 q 765 365 765 485 q 720 163 765 246 q 599 37 675 81 q 428 -7 524 -7 m 435 81 q 574 116 513 81 q 672 216 636 151 q 707 365 707 281 q 672 514 707 450 q 574 614 636 578 q 435 650 513 650 q 297 614 358 650 q 200 514 236 578 q 164 365 164 450 q 200 216 164 281 q 297 116 236 151 q 435 81 358 81 m 706 -269 l 706 217 l 719 364 l 710 510 l 710 729 l 804 729 l 804 -269 l 706 -269 z "},"r":{"ha":557,"x_min":138,"x_max":504,"o":"m 138 0 l 138 729 l 232 729 l 232 531 l 222 565 q 325 692 253 649 q 504 736 397 736 l 504 640 q 493 641 499 640 q 482 642 488 642 q 301 572 367 642 q 236 372 236 501 l 236 0 l 138 0 z "},"ŕ":{"ha":557,"x_min":138,"x_max":554,"o":"m 138 0 l 138 729 l 232 729 l 232 531 l 222 565 q 325 692 253 649 q 504 736 397 736 l 504 640 q 493 641 499 640 q 482 642 488 642 q 301 572 367 642 q 236 372 236 501 l 236 0 l 138 0 m 232 843 l 422 1015 l 554 1015 l 329 843 l 232 843 z "},"ř":{"ha":557,"x_min":92,"x_max":551,"o":"m 138 0 l 138 729 l 232 729 l 232 531 l 222 565 q 325 692 253 649 q 504 736 397 736 l 504 640 q 493 641 499 640 q 482 642 488 642 q 301 572 367 642 q 236 372 236 501 l 236 0 l 138 0 m 272 843 l 93 1015 l 185 1015 l 361 869 l 283 869 l 460 1015 l 551 1015 l 372 843 l 272 843 z "},"ŗ":{"ha":557,"x_min":128,"x_max":504,"o":"m 138 0 l 138 729 l 232 729 l 232 531 l 222 565 q 325 692 253 649 q 504 736 397 736 l 504 640 q 493 641 499 640 q 482 642 488 642 q 301 572 367 642 q 236 372 236 501 l 236 0 l 138 0 m 139 -364 l 178 -214 l 188 -253 q 144 -237 161 -253 q 128 -199 128 -222 q 144 -160 128 -175 q 188 -144 161 -144 q 231 -160 215 -144 q 247 -199 247 -176 q 244 -228 247 -212 q 232 -261 240 -243 l 193 -364 l 139 -364 z "},"ȑ":{"ha":557,"x_min":8,"x_max":504,"o":"m 138 0 l 138 729 l 232 729 l 232 531 l 222 565 q 325 692 253 649 q 504 736 397 736 l 504 640 q 493 641 499 640 q 482 642 488 642 q 301 572 367 642 q 236 372 236 501 l 236 0 l 138 0 m 392 843 l 235 1015 l 344 1015 l 479 843 l 392 843 m 165 843 l 10 1015 l 119 1015 l 253 843 l 165 843 z "},"ṛ":{"ha":557,"x_min":128,"x_max":504,"o":"m 138 0 l 138 729 l 232 729 l 232 531 l 222 565 q 325 692 253 649 q 504 736 397 736 l 504 640 q 493 641 499 640 q 482 642 488 642 q 301 572 367 642 q 236 372 236 501 l 236 0 l 138 0 m 188 -264 q 146 -247 164 -264 q 128 -204 128 -231 q 146 -161 128 -178 q 188 -144 164 -144 q 230 -161 213 -144 q 247 -204 247 -178 q 230 -247 247 -231 q 188 -264 213 -264 z "},"ȓ":{"ha":557,"x_min":110,"x_max":533,"o":"m 138 0 l 138 729 l 232 729 l 232 531 l 222 565 q 325 692 253 649 q 504 736 397 736 l 504 640 q 493 641 499 640 q 482 642 488 642 q 301 572 367 642 q 236 372 236 501 l 236 0 l 138 0 m 111 843 q 174 974 114 926 q 322 1021 235 1021 q 470 974 410 1021 q 533 843 531 926 l 464 843 q 422 929 463 897 q 322 961 381 961 q 224 929 265 961 q 181 843 183 897 l 111 843 z "},"ṟ":{"ha":557,"x_min":-26,"x_max":504,"o":"m 138 0 l 138 729 l 232 729 l 232 531 l 222 565 q 325 692 253 649 q 504 736 397 736 l 504 640 q 493 641 499 640 q 482 642 488 642 q 301 572 367 642 q 236 372 236 501 l 236 0 l 138 0 m -26 -235 l -26 -169 l 401 -169 l 401 -235 l -26 -235 z "},"s":{"ha":678,"x_min":36,"x_max":635,"o":"m 333 -7 q 163 19 243 -7 q 36 83 82 44 l 81 161 q 194 103 125 128 q 340 79 264 79 q 490 112 444 79 q 536 199 536 144 q 510 262 536 239 q 443 297 485 285 q 350 317 401 308 q 248 336 299 325 q 156 369 197 347 q 88 428 114 390 q 63 528 63 465 q 96 635 63 588 q 194 709 129 682 q 351 736 258 736 q 493 717 422 736 q 610 668 564 699 l 567 589 q 463 637 518 622 q 351 651 407 651 q 206 617 253 651 q 160 531 160 583 q 185 465 160 489 q 253 428 211 442 q 347 407 296 415 q 448 387 397 399 q 541 355 499 375 q 609 298 583 335 q 635 201 635 261 q 599 91 635 138 q 497 19 564 44 q 333 -7 429 -7 z "},"ś":{"ha":678,"x_min":36,"x_max":635,"o":"m 333 -7 q 163 19 243 -7 q 36 83 82 44 l 81 161 q 194 103 125 128 q 340 79 264 79 q 490 112 444 79 q 536 199 536 144 q 510 262 536 239 q 443 297 485 285 q 350 317 401 308 q 248 336 299 325 q 156 369 197 347 q 88 428 114 390 q 63 528 63 465 q 96 635 63 588 q 194 709 129 682 q 351 736 258 736 q 493 717 422 736 q 610 668 564 699 l 567 589 q 463 637 518 622 q 351 651 407 651 q 206 617 253 651 q 160 531 160 583 q 185 465 160 489 q 253 428 211 442 q 347 407 296 415 q 448 387 397 399 q 541 355 499 375 q 609 298 583 335 q 635 201 635 261 q 599 91 635 138 q 497 19 564 44 q 333 -7 429 -7 m 247 843 l 438 1015 l 569 1015 l 344 843 l 247 843 z "},"ṥ":{"ha":678,"x_min":36,"x_max":635,"o":"m 333 -7 q 163 19 243 -7 q 36 83 82 44 l 81 161 q 194 103 125 128 q 340 79 264 79 q 490 112 444 79 q 536 199 536 144 q 510 262 536 239 q 443 297 485 285 q 350 317 401 308 q 248 336 299 325 q 156 369 197 347 q 88 428 114 390 q 63 528 63 465 q 96 635 63 588 q 194 709 129 682 q 351 736 258 736 q 493 717 422 736 q 610 668 564 699 l 567 589 q 463 637 518 622 q 351 651 407 651 q 206 617 253 651 q 160 531 160 583 q 185 465 160 489 q 253 428 211 442 q 347 407 296 415 q 448 387 397 399 q 541 355 499 375 q 609 298 583 335 q 635 201 635 261 q 599 91 635 138 q 497 19 564 44 q 333 -7 429 -7 z "},"ꞌ":{"ha":333,"x_min":117,"x_max":217,"o":"m 117 413 l 118 906 l 217 906 l 204 413 l 117 413 z "},"š":{"ha":678,"x_min":36,"x_max":635,"o":"m 333 -7 q 163 19 243 -7 q 36 83 82 44 l 81 161 q 194 103 125 128 q 340 79 264 79 q 490 112 444 79 q 536 199 536 144 q 510 262 536 239 q 443 297 485 285 q 350 317 401 308 q 248 336 299 325 q 156 369 197 347 q 88 428 114 390 q 63 528 63 465 q 96 635 63 588 q 194 709 129 682 q 351 736 258 736 q 493 717 422 736 q 610 668 564 699 l 567 589 q 463 637 518 622 q 351 651 407 651 q 206 617 253 651 q 160 531 160 583 q 185 465 160 489 q 253 428 211 442 q 347 407 296 415 q 448 387 397 399 q 541 355 499 375 q 609 298 583 335 q 635 201 635 261 q 599 91 635 138 q 497 19 564 44 q 333 -7 429 -7 m 288 843 l 108 1015 l 200 1015 l 376 869 l 299 869 l 475 1015 l 567 1015 l 388 843 l 288 843 z "},"ṧ":{"ha":678,"x_min":36,"x_max":635,"o":"m 333 -7 q 163 19 243 -7 q 36 83 82 44 l 81 161 q 194 103 125 128 q 340 79 264 79 q 490 112 444 79 q 536 199 536 144 q 510 262 536 239 q 443 297 485 285 q 350 317 401 308 q 248 336 299 325 q 156 369 197 347 q 88 428 114 390 q 63 528 63 465 q 96 635 63 588 q 194 709 129 682 q 351 736 258 736 q 493 717 422 736 q 610 668 564 699 l 567 589 q 463 637 518 622 q 351 651 407 651 q 206 617 253 651 q 160 531 160 583 q 185 465 160 489 q 253 428 211 442 q 347 407 296 415 q 448 387 397 399 q 541 355 499 375 q 609 298 583 335 q 635 201 635 261 q 599 91 635 138 q 497 19 564 44 q 333 -7 429 -7 z "},"ş":{"ha":678,"x_min":36,"x_max":635,"o":"m 333 -7 q 163 19 243 -7 q 36 83 82 44 l 81 161 q 194 103 125 128 q 340 79 264 79 q 490 112 444 79 q 536 199 536 144 q 510 262 536 239 q 443 297 485 285 q 350 317 401 308 q 248 336 299 325 q 156 369 197 347 q 88 428 114 390 q 63 528 63 465 q 96 635 63 588 q 194 709 129 682 q 351 736 258 736 q 493 717 422 736 q 610 668 564 699 l 567 589 q 463 637 518 622 q 351 651 407 651 q 206 617 253 651 q 160 531 160 583 q 185 465 160 489 q 253 428 211 442 q 347 407 296 415 q 448 387 397 399 q 541 355 499 375 q 609 298 583 335 q 635 201 635 261 q 599 91 635 138 q 497 19 564 44 q 333 -7 429 -7 m 307 -306 q 244 -297 272 -306 q 190 -274 215 -289 l 214 -221 q 258 -240 235 -233 q 306 -247 281 -247 q 369 -230 347 -247 q 392 -182 392 -212 q 370 -136 392 -154 q 306 -118 349 -118 l 274 -118 l 307 8 l 367 8 l 346 -72 q 433 -108 403 -76 q 464 -185 464 -139 q 420 -273 464 -240 q 307 -306 376 -306 z "},"ŝ":{"ha":678,"x_min":36,"x_max":635,"o":"m 333 -7 q 163 19 243 -7 q 36 83 82 44 l 81 161 q 194 103 125 128 q 340 79 264 79 q 490 112 444 79 q 536 199 536 144 q 510 262 536 239 q 443 297 485 285 q 350 317 401 308 q 248 336 299 325 q 156 369 197 347 q 88 428 114 390 q 63 528 63 465 q 96 635 63 588 q 194 709 129 682 q 351 736 258 736 q 493 717 422 736 q 610 668 564 699 l 567 589 q 463 637 518 622 q 351 651 407 651 q 206 617 253 651 q 160 531 160 583 q 185 465 160 489 q 253 428 211 442 q 347 407 296 415 q 448 387 397 399 q 541 355 499 375 q 609 298 583 335 q 635 201 635 261 q 599 91 635 138 q 497 19 564 44 q 333 -7 429 -7 m 108 843 l 288 1015 l 388 1015 l 567 843 l 475 843 l 299 990 l 376 990 l 200 843 l 108 843 z "},"ș":{"ha":678,"x_min":36,"x_max":635,"o":"m 333 -7 q 163 19 243 -7 q 36 83 82 44 l 81 161 q 194 103 125 128 q 340 79 264 79 q 490 112 444 79 q 536 199 536 144 q 510 262 536 239 q 443 297 485 285 q 350 317 401 308 q 248 336 299 325 q 156 369 197 347 q 88 428 114 390 q 63 528 63 465 q 96 635 63 588 q 194 709 129 682 q 351 736 258 736 q 493 717 422 736 q 610 668 564 699 l 567 589 q 463 637 518 622 q 351 651 407 651 q 206 617 253 651 q 160 531 160 583 q 185 465 160 489 q 253 428 211 442 q 347 407 296 415 q 448 387 397 399 q 541 355 499 375 q 609 298 583 335 q 635 201 635 261 q 599 91 635 138 q 497 19 564 44 q 333 -7 429 -7 m 289 -364 l 328 -214 l 338 -253 q 294 -237 311 -253 q 278 -199 278 -222 q 294 -160 278 -175 q 338 -144 311 -144 q 381 -160 365 -144 q 397 -199 397 -176 q 394 -228 397 -212 q 382 -261 390 -243 l 343 -364 l 289 -364 z "},"ṡ":{"ha":678,"x_min":36,"x_max":635,"o":"m 333 -7 q 163 19 243 -7 q 36 83 82 44 l 81 161 q 194 103 125 128 q 340 79 264 79 q 490 112 444 79 q 536 199 536 144 q 510 262 536 239 q 443 297 485 285 q 350 317 401 308 q 248 336 299 325 q 156 369 197 347 q 88 428 114 390 q 63 528 63 465 q 96 635 63 588 q 194 709 129 682 q 351 736 258 736 q 493 717 422 736 q 610 668 564 699 l 567 589 q 463 637 518 622 q 351 651 407 651 q 206 617 253 651 q 160 531 160 583 q 185 465 160 489 q 253 428 211 442 q 347 407 296 415 q 448 387 397 399 q 541 355 499 375 q 609 298 583 335 q 635 201 635 261 q 599 91 635 138 q 497 19 564 44 q 333 -7 429 -7 m 338 875 q 290 894 310 875 q 271 942 271 914 q 290 990 271 971 q 338 1008 310 1008 q 385 990 365 1008 q 404 942 404 971 q 385 894 404 914 q 338 875 365 875 z "},"ṣ":{"ha":678,"x_min":36,"x_max":635,"o":"m 333 -7 q 163 19 243 -7 q 36 83 82 44 l 81 161 q 194 103 125 128 q 340 79 264 79 q 490 112 444 79 q 536 199 536 144 q 510 262 536 239 q 443 297 485 285 q 350 317 401 308 q 248 336 299 325 q 156 369 197 347 q 88 428 114 390 q 63 528 63 465 q 96 635 63 588 q 194 709 129 682 q 351 736 258 736 q 493 717 422 736 q 610 668 564 699 l 567 589 q 463 637 518 622 q 351 651 407 651 q 206 617 253 651 q 160 531 160 583 q 185 465 160 489 q 253 428 211 442 q 347 407 296 415 q 448 387 397 399 q 541 355 499 375 q 609 298 583 335 q 635 201 635 261 q 599 91 635 138 q 497 19 564 44 q 333 -7 429 -7 m 338 -264 q 296 -247 314 -264 q 278 -204 278 -231 q 296 -161 278 -178 q 338 -144 314 -144 q 380 -161 363 -144 q 397 -204 397 -178 q 380 -247 397 -231 q 338 -264 363 -264 z "},"ṩ":{"ha":678,"x_min":36,"x_max":635,"o":"m 333 -7 q 163 19 243 -7 q 36 83 82 44 l 81 161 q 194 103 125 128 q 340 79 264 79 q 490 112 444 79 q 536 199 536 144 q 510 262 536 239 q 443 297 485 285 q 350 317 401 308 q 248 336 299 325 q 156 369 197 347 q 88 428 114 390 q 63 528 63 465 q 96 635 63 588 q 194 709 129 682 q 351 736 258 736 q 493 717 422 736 q 610 668 564 699 l 567 589 q 463 637 518 622 q 351 651 407 651 q 206 617 253 651 q 160 531 160 583 q 185 465 160 489 q 253 428 211 442 q 347 407 296 415 q 448 387 397 399 q 541 355 499 375 q 609 298 583 335 q 635 201 635 261 q 599 91 635 138 q 497 19 564 44 q 333 -7 429 -7 m 338 -264 q 296 -247 314 -264 q 278 -204 278 -231 q 296 -161 278 -178 q 338 -144 314 -144 q 380 -161 363 -144 q 397 -204 397 -178 q 380 -247 397 -231 q 338 -264 363 -264 m 338 875 q 290 894 310 875 q 271 942 271 914 q 290 990 271 971 q 338 1008 310 1008 q 385 990 365 1008 q 404 942 404 971 q 385 894 404 914 q 338 875 365 875 z "},"ß":{"ha":928,"x_min":138,"x_max":864,"o":"m 535 -7 q 453 -1 494 -7 q 378 15 411 4 l 396 99 q 457 84 425 89 q 531 79 489 79 q 652 103 600 79 q 734 172 704 126 q 764 279 764 217 q 697 425 764 374 q 521 476 629 476 l 440 476 l 440 561 q 621 618 556 563 q 686 768 686 674 q 630 901 686 850 q 472 951 574 951 q 300 888 364 951 q 236 700 236 825 l 236 0 l 138 0 l 138 692 q 181 883 138 807 q 299 999 224 960 q 472 1038 375 1038 q 638 1003 568 1038 q 744 908 707 968 q 782 772 782 849 q 758 660 782 710 q 696 577 735 611 q 609 525 657 543 q 514 507 561 507 l 553 549 q 712 517 642 549 q 823 424 782 485 q 864 276 864 364 q 821 124 864 188 q 703 27 778 61 q 535 -7 629 -7 z "},"ſ":{"ha":410,"x_min":39,"x_max":535,"o":"m 169 0 l 169 821 q 226 978 169 918 q 389 1038 283 1038 q 469 1026 431 1038 q 535 992 508 1015 l 501 918 q 453 945 481 936 q 394 954 425 954 q 300 919 332 954 q 268 817 268 885 l 268 0 l 169 0 m 39 647 l 39 729 l 221 729 l 221 647 l 39 647 z "},"t":{"ha":564,"x_min":24,"x_max":522,"o":"m 368 -7 q 210 49 265 -7 q 154 206 154 104 l 154 890 l 253 890 l 253 211 q 285 113 253 147 q 379 78 318 78 q 488 115 444 78 l 522 44 q 452 6 493 18 q 368 -7 411 -7 m 24 647 l 24 729 l 475 729 l 475 647 l 24 647 z "},"ŧ":{"ha":578,"x_min":31,"x_max":529,"o":"m 375 -7 q 217 49 272 -7 q 161 206 161 104 l 161 890 l 260 890 l 260 211 q 292 113 260 147 q 386 78 325 78 q 494 115 451 78 l 529 44 q 459 6 500 18 q 375 -7 418 -7 m 31 647 l 31 729 l 482 729 l 482 647 l 31 647 m 47 374 l 47 444 l 467 444 l 467 374 l 47 374 z "},"ť":{"ha":564,"x_min":24,"x_max":522,"o":"m 368 -7 q 210 49 265 -7 q 154 206 154 104 l 154 890 l 253 890 l 253 211 q 285 113 253 147 q 379 78 318 78 q 488 115 444 78 l 522 44 q 452 6 493 18 q 368 -7 411 -7 m 24 647 l 24 729 l 475 729 l 475 647 l 24 647 m 379 831 l 379 1061 l 458 1061 l 446 831 l 379 831 z "}}}
